<?xml version="1.0" encoding="UTF-8"?>
<svg id="Layer_1" data-name="Layer 1" xmlns="http://www.w3.org/2000/svg" xmlns:xlink="http://www.w3.org/1999/xlink" viewBox="0 0 3840 996.04">
  <defs>
    <style>
      .cls-1 {
        fill: #568f41;
      }

      .cls-2 {
        clip-path: url(#clippath-2);
      }

      .cls-3 {
        clip-path: url(#clippath-1);
      }

      .cls-4 {
        clip-path: url(#clippath-4);
      }

      .cls-5 {
        clip-path: url(#clippath);
      }

      .cls-6 {
        fill: none;
      }

      .cls-7 {
        clip-path: url(#clippath-3);
      }

      .cls-8 {
        fill-rule: evenodd;
      }
    </style>
    <clipPath id="clippath">
      <rect class="cls-6" x="206.23" y="471.55" width="590.25" height="524.5"/>
    </clipPath>
    <clipPath id="clippath-1">
      <rect class="cls-6" y="650.73" width="195.69" height="284.58"/>
    </clipPath>
    <clipPath id="clippath-2">
      <rect class="cls-6" x="733.24" width="21.08" height="18.32"/>
    </clipPath>
    <clipPath id="clippath-3">
      <rect class="cls-6" x="808.01" y="658.02" width="195.9" height="272.03"/>
    </clipPath>
    <clipPath id="clippath-4">
      <rect class="cls-6" x="248.39" width="21.08" height="18.32"/>
    </clipPath>
  </defs>
  <path class="cls-8" d="m606.63,591.98l-3.5-4.24c-2.06,1.4-3.99,2.51-5.72,3.01,3.66.82,6.67,1.19,9.22,1.24"/>
  <path class="cls-8" d="m688.73,693.34l-5.06-6.22c-3.38,17.21-9.43,34.71-18.77,55.79,10.29-16.35,18.24-32.77,23.84-49.57"/>
  <g class="cls-5">
    <path class="cls-8" d="m710.47,887.55c-20.38,4.12-22.03,33.64-44.22,31.09-15.48-1.77-18.12,24.5-55.21,24.21-32.73-.29-54.1,27.5-73.58,18.98-9.22-4.03-16.47-5.31-22.52-5.19-.08-.33-.21-.62-.29-.95-4.49-14.66-.99-43.73-.29-64.43,41.42,1.56,84.44-7.12,118.62-23.59,18.77-9.06,35.12-21.29,49.04-35.78,7.33,4.78,14.37,8.73,21.08,11.12,25.69,9.1,24.29,12.35,36.19,20.42-2.26,16.59,3.91,17.5-28.82,24.13Zm-206.23-7c-48.75-2.84-105.98-33.56-149.74-73.41,8.32-6.75,17.29-17,25.12-26.64l.08.08-.08-.12c10.29-12.68,18.65-24.29,21.24-25.61,2.88-1.44,5.85-4.03,8.69-7.16,9.8,10.46,21.08,19.64,33.31,27.17,22.36,13.75,45.08,19.47,66.62,18.77,5.23,34.42-6.96,51.75-5.23,86.92Zm-8.85,80.78c-8.48,2.88-16.22,4.12-29.64-7.62-2.02-1.77-43.73,1.98-51.96,5.35-21.33,8.77-20.92-5.72-45.04-13.38-48.01-15.27-22.4,14.99-58.67-28.78-4.57-5.56-6.3-20.83-20.63-36.89,6.34-5.64,14-13.42,14.45-14.25,1.03-1.85,4.57-9.02,9.47-17.46,16.84,16.43,35.98,30.71,57.07,42.37-20.75-14.53-39.11-29.52-55.09-45.74,7.91-13.22,18.45-28.16,27.3-30.8,1.36-.41,2.72-.99,4.16-1.77,27.42,25.86,59.49,47.1,90.37,61.55,20.34,9.47,43.52,14.9,67.52,16.76.25,29.48-10.09,40.51-9.3,70.65Zm-111.91-309.16c3.05-22.11,11.12-43.56,23.22-62.29,6.96,5.81,16.63,11.12,22.73,12.02,7.12,1.07,6.59,4.2,15.85,2.59-10.87,17.13-11.36,40.72-4.16,65.55-.7-29.36-5.76-56.98,24.29-74.69,12.06-7.12,30.51-9.02,48.79-6.75-4.16,13.67-2.96,36.73-3.75,53.44-8.89,2.06-3.5-6.18-11.4-1.4-2.31,1.4-2.59,5.81-2.84,8.56-.04.29.29,1.15.16,1.36-.54.7-.12,2.26.91,4.12-3.87,3.87-10,9.84-15.81,15.32-3.42-4.03-5.02-9.51-3.66-16.96,2.96-16.59,15.73-25.9,30.06-31.99-11.61-1.24-17.87,1.48-26.68,9.88-19.06,18.16-16.51,34.63-5.93,44.92-4.61,4.24-8.19,7.41-8.93,7.74-6.75,3.17-34.26,28.78-56.24,49.24-19.19-23.92-30.43-52.95-26.6-80.66Zm213.56,97c4.86,6.92,21.33,22.48,23.43,27.05,6.88,14.86,24.37,29.03,41.95,41.83,3.46,2.51,6.96,5.06,10.33,7.49-41.46,39.24-99.02,55.75-158.1,55.29,1.56-25.94,16.55-68.1-.08-87.45,32.07-2.51,61.26-19.15,82.47-44.22Zm175.48,33.76c-.99,2.31-1.89,5.02-2.68,8.32-3.58,14.82-3.42,34.67-11.86,42.41-2.35,2.18-5.56,12.52-11.94,18.4-3.58-3.17-8.15-6.38-9.96-6.42-16.55-.45-35.74-14.66-45.99-22.69,20.42-24.21,34.91-53.69,43.52-85.14-1.03-.86-2.31-1.48-3.71-1.81-1.11-.21-2.18-.58-3.21-1.03-5.11,16.47-12.02,32.65-20.96,48.42-7.08,12.43-15.27,23.59-24.42,33.51-10.91-4.53-29.07-21.45-37.63-25.44-14.82-6.96-17.42-20.63-21.99-24.29-9.76-7.74-12.52-18.73-15.27-21.24-1.81-1.61-3.13-2.72-4.12-3.42,12.43-16.67,21.57-36.48,26.06-58.05-19.93,48.3-53.94,96.06-110.42,101.61-35.86,3.54-75.02-16.55-101.94-46.32,5.6-7.53,10.25-15.15,12.39-16.67,21.16-14.95,41.38-30.96,53.07-42.45,12.85,7.86,31.21,8.81,41.91-1.61-11.03,1.48-26.39,1.28-36.27-4.41,7.29-8.56,8.15-12.43,11.03-18.49,2.84,4.36,8.03,9.39,10.7,8.07,5.89-2.8,11.9-.54,10.99-8.07-.62-5.39,1.19-12.76-2.35-14.66,9.59-14.04,7.99-42.12,10.13-50.44,26.06,6.3,48.5,21.04,47.22,41.21-1.11,17.33-1.4,54.39-8.52,68.1-7.41,14.2-25.16,13.79-40.55,18.65,17.05-1.19,35.66.12,45.29-16.06,8.77-14.7,10.42-51.3,12.27-69.95,2.8-28-24.54-44.3-52.41-51.05,4.94-16.22,2.35-28.61,3.25-46.2.74-13.88-7.29-31.13-3.62-43.64-.29,0-.58-.04-.86-.08-2.22-.25-3.75-1.28-4.94-3.13l-1.98-3.17c-.33-.49-.58-1.07-.74-1.65-.82-2.68-2.64-4.61-5.23-5.6-1.73-.62-3.05-1.85-3.79-3.38-.82,6.59-1.07,13.22-1.07,14.78,0,6.13,8.03,32.2,9.88,35.78,6.83,13.38,2.1,38.95-3.79,53.81-10.21-1.4-19.8-1.56-27.38-.58-21.2,2.8-35.57,11.45-44.14,23.8-7.53-3.58-23.67-12.39-34.46-20.55,19.97-27.09,48.87-47.27,83.25-53.28l12.56-1.77c-31.62-.91-59.04,10.54-80.78,29.4-1.89,4.45-4.57,8.61-7.7,12.43l-28.86,35.61c-5.35,10.87-9.63,22.4-12.72,34.21-9.68,37.3,2.1,73,24.87,101.04-10.38,9.68-18.53,17.17-21,18.86-3.54,2.47-7.33,5.93-11.2,9.96-20.22-27.38-35.45-56.65-39.77-90.17l-4.78,5.89c6.26,31.54,22.56,61.47,43.48,85.35-8.56,9.02-17.5,20.34-24.95,27.96-21.12-20.92-38.33-43.85-48.71-66.29-.99-2.1-1.94-4.24-2.84-6.38-1.73,1.98-3.66,3.99-5.72,5.76,11.32,26.39,29.23,51.09,50.64,72.88-16.39,12.85-31.99,12.1-35.53,27.17-18.32-21.29-32.73-44.84-43.19-72.18l-4.57,4.53c11.57,26.64,27.46,51.3,47.02,72.96v.74c-.16,5.43-10.91,9.72-19.31,12.1-2.84-6.51-7.82-13.67-16.67-21.33-4.65-3.95-1.61-8.19-16.63-16.76-13.34-7.62-12.35-18.12-12.06-29.97l-17.87,17.91c-2.06,6.18-7.58,10.91-7.58,15.97,0,6.34,1.94,9.84,8.32,13.13,6.42,3.29,18.03.99,27.09,5.06,9.06,4.08-6.63,22.77.54,27.75,7.12,4.94,15.65,1.98,16.96,11.03,1.28,9.02,15.97,13.71,14.7,23.92-1.28,10.17-1.98,19.39,3.25,26.84,5.23,7.41,18.98,6.79,24.42,12.52,5.43,5.72,2.76,14.45,5.68,19.1,2.88,4.65,4.36,6.51,10.7,7.16,6.38.7,19.35-4.65,25.32-3.29,5.93,1.4-.62,6.67,4.45,10.17,5.11,3.5,15.6,6.83,24.13,9.55,8.52,2.68,18.32,6.59,26.8,6.55,8.48-.04,14.74-4.57,22.36-6.88,7.58-2.26,16.84-5.89,23.22-6.83,6.34-.99,9.51-2.1,14.29,1.19,4.82,3.25,5.89,13.22,11.9,16.72,6.05,3.46,15.15,4.49,21.16,2.39,6.01-2.14,4.28-10.83,10.42-13.46,6.13-2.59,17.66-4.65,22.93-.86,5.27,3.75-8.28,12.27-2.06,15.81,6.18,3.54,18.77,2.14,26.8-1.77,7.99-3.95,9.06-15.69,17.54-20.01,8.52-4.36,22.03-5.81,30.39-4.49,8.36,1.36,7.95,11.82,16.1,11.94,8.11.12,19.6-5.64,26.52-11.32,6.83-5.72,4.86-17.37,12.8-21.2,7.91-3.83,21.33,2.59,28,1.48,6.59-1.11,6.88-3.46,9.51-7.74s1.77-11.78,5.64-17.05c3.91-5.23,9.22-11.78,16.67-13.09,7.45-1.36,15.4,9.26,23.55,5.97,8.15-3.38,13.92-13.67,17.29-22.69,3.29-9.06-3.33-19.6,1.77-29.27,5.06-9.68,21.04-16.47,26.47-24.74,5.48-8.28,3.66-14.86,4.78-22.69.62-4.08.16-8.81.12-13.26l-19.43-19.47"/>
  </g>
  <path class="cls-8" d="m510.41,462.2l-.12-.12c-1.19-1.28-1.69-2.22-2.39-3.83-.62-1.32-1.44-2.39-2.51-3.21-1.24.04-2.43.08-3.66.16-.99.78-1.73,1.81-2.31,3.05-.7,1.61-1.19,2.55-2.39,3.83,0,.04-.04.08-.12.12-1.56,1.69-2.35,3.71-2.31,5.93,5.89-.95,11.86-1.56,17.95-1.85-.33-1.48-1.03-2.88-2.14-4.08"/>
  <g class="cls-3">
    <path class="cls-8" d="m85.97,877.18c-10.54,12.06-14.53,15.77-25.57,5.89-14.99-13.34-22.64-27.09-16.55-42.57,7.62-19.31,42.94-110.88,55.79-119.77,9.22,1.73,14.37-1.28,18.61-6.05-17.83-18.12-35.7-36.27-53.52-54.43-4.2,4.08-5.48,9.43-4.98,15.56-18.65,57.27-38.87,114.09-54.84,172.18-4.78,17.37,2.84,31.74,13.79,42.98l29.11,29.97c9.39,9.68,27.71,11.08,39.73-1.15l107.05-108.86c-6.79-11.57-13.63-23.14-20.42-34.75l-88.19,101"/>
  </g>
  <path class="cls-8" d="m150.44,584.24c-4.03,4.03-10.58,4.03-14.58,0-4.03-4.03-4.03-10.58,0-14.62,3.99-4.03,10.54-4.03,14.58,0,3.99,4.03,3.99,10.58,0,14.62Zm90.66,133.69l-22.23-25.77c-22.85-75.47-62.5-171.85-69.13-253.21-4.2-51.51,6.42-48.87,41.87-17.09l23.47-20.38c-10.79-8.61-27.83-21.94-43.85-31.17-21.08-12.23-48.21-18.12-54.18,14.16-8.98,48.38,4.36,102.19,13.5,158.06-41.79,17.5-19.85,79.26,17.95,67.98l34.3,130.19-14.29,12.72,30.01,56.2,65.3-65.42-22.73-26.27"/>
  <path class="cls-8" d="m236.99,689.27c1.98,7.53,5.48,14.7,11.36,20.17l15.81,14.58c8.23,7.58,13.67,8.85,25.82-6.18l124.13-153.2c18.69-23.1,6.75-42.53-13.34-62.5-48.05-47.64-91.9-99.39-137.85-149.09l-1.98,1.89c.33,3.62.49,7.37.49,11.2.29,38.78-.78,77.57-2.26,116.31l.08.08c8.65,7.62,9.47,21.04,1.85,29.73-4.24,4.86-10.29,7.25-16.3,7.08l-22.64,40.64c-10.83,18.9-11.12,38.58-3.66,59.29l18.49,69.99"/>
  <path class="cls-8" d="m63.2,657.28c1.24-.66,2.84-.45,3.91.66,17.83,18.12,35.66,36.27,53.52,54.43,1.19,1.19,1.28,3.05.25,4.36,3.62-.37,6.75-3.09,9.35-8.85l31.29-36.15-15.15-57.6c-7.86,1.65-15.73.54-22.81-3.66-11.9-7.12-18.69-21.37-18.69-35,.04-15.69,8.56-28.12,22.36-34.75-2.88-17.29-6.18-34.58-9.06-51.92l-56.04,48.67c-30.34,26.35-42.65,39.94-30.06,65.63,9.43,19.27,19.6,37.43,31.13,54.18"/>
  <path class="cls-8" d="m235.05,516.71c-1.28-.74-2.51-1.56-3.66-2.59-8.65-7.66-9.47-21.04-1.85-29.73.58-.66,1.24-1.32,1.89-1.89,1.89-27.34,3.33-60.15-3.83-88.69l-72.88,63.24c1.98,14.62,4.82,29.15,8.07,43.44,4.98,21.66,11.08,43.07,17.62,64.27,6.42,20.75,13.3,41.3,20.22,61.84l8.28-9.51-.16-.74c-7.45-20.71-6.92-40.64,3.91-59.54l22.4-40.1"/>
  <path class="cls-8" d="m240.65,494.19c2.26-2.59,6.22-2.8,8.81-.54,2.55,2.26,2.8,6.22.54,8.77-2.26,2.59-6.22,2.84-8.77.58-2.59-2.26-2.84-6.22-.58-8.81Zm-70.94-171.61c68.76,25.28,71.19,91.65,66.16,162.26-1.03.74-2.02,1.61-2.88,2.59-6.01,6.79-5.35,17.21,1.44,23.22,6.83,6.01,17.21,5.39,23.22-1.44s5.35-17.21-1.44-23.22c-.54-.54-1.15-.95-1.73-1.36,1.52-39.9,2.68-78.31,2.39-118.45-.41-53.15-28.66-79.75-65.96-93.71-13.22-4.98-22.97-3.01-25.98,7.45-2.47,8.65-4.32,17.46-5.76,26.35-1.4,8.73,2.68,13.42,10.54,16.3"/>
  <path class="cls-8" d="m439.89,453.64l30.96-33.06c-.16-.16-.33-.37-.54-.54-.78-.91-1.44-1.89-1.94-2.96-.74-1.52-.82-2.43-1.94-3.71-.62-.7-.82-.62-1.69-1.07-1.52-.74-2.84-1.69-3.95-2.96-.78-.82-1.44-1.77-1.89-2.76-1.81.7-3.79,1.03-5.85.99l-26.64,34.54,13.46,11.53"/>
  <path class="cls-8" d="m735.79,75.06c2.96-3.01,7.78-3.01,10.79,0s2.96,7.78,0,10.75c-3.01,2.96-7.82,2.96-10.79,0s-2.96-7.78,0-10.75Zm-215.91,203.84c1.32.74,2.55,1.73,3.58,2.96.74.91,1.36,1.94,1.85,3.01.66,1.52.66,2.47,1.77,3.79.62.74.78.66,1.65,1.11,1.52.78,2.76,1.77,3.87,3.09.74.91,1.32,1.85,1.77,2.88,2.47-.86,5.19-1.07,8.03-.54,2.35.45,4.12,1.81,5.23,3.87l1.73,3.25c1.19,2.22,1.19,4.78.16,6.88,1.61-.41,3.33-.29,4.98.45,3.05,1.36,4.78,4.41,4.41,7.74-.29,2.43-.99,4.65-2.06,6.63,1.07.74,2.1,1.65,2.96,2.72.74.91,1.36,1.94,1.81,3.05.66,1.52.7,2.47,1.73,3.79.58.74.78.66,1.65,1.15,1.52.78,2.76,1.81,3.83,3.13.7.91,1.28,1.89,1.73,2.88,2.47-.82,5.23-.99,8.07-.37.49.08.91.21,1.36.41,74.81-84.94,143.98-169.63,203.64-254.82,32.9-46.94-20.09-85.72-59.7-43.93-69.5,73.33-137.35,148.43-202.77,225.95.58,1.24.86,2.64.74,4.08-.25,2.47-.91,4.78-2.02,6.83"/>
  <path class="cls-8" d="m482.71,443.63c-1.32-2.14-1.48-4.69-.58-6.88-1.56.54-3.33.49-4.98-.12-3.13-1.19-5.02-4.16-4.82-7.49.08-2.26.62-4.41,1.48-6.38-1.03-.54-1.98-1.24-2.88-2.1l-31.46,36.77-16.76-14.41,30.06-35.45c-.62-.04-1.28-.12-1.89-.21-2.31-.33-4.16-1.61-5.35-3.66l-1.85-3.17c-1.28-2.18-1.36-4.73-.41-6.88-1.56.49-3.33.41-4.98-.29-3.09-1.24-4.94-4.2-4.69-7.58.21-2.31.78-4.49,1.73-6.46-1.15-.62-2.18-1.4-3.09-2.39-22.36,28.33-44.3,56.98-65.88,86.01,11.86,12.68,23.92,25.16,36.23,37.38,5.72,5.68,11.03,11.53,15.11,17.62,22.52-23.88,44.75-47.68,66.74-71.48l-1.73-2.84"/>
  <path class="cls-8" d="m730.15,27.63c.91,1.07,1.28,2.43,1.28,3.75.41-.49.91-.99,1.69-1.61.99-.78,1.85-1.28,2.59-1.65-1.32-.25-2.59-.99-3.54-2.14-.91-1.15-1.32-2.59-1.28-3.95-.49.66-1.19,1.44-2.26,2.26-.7.58-1.28.91-1.81,1.19,1.28.29,2.47.99,3.33,2.14"/>
  <path class="cls-8" d="m713.6,39.44c.74-.66,1.89-.58,2.51.16.66.74.62,1.85-.12,2.51s-1.89.58-2.51-.16c-.66-.74-.58-1.85.12-2.51Zm10.7-9.51c.74-.66,1.85-.58,2.51.16s.62,1.85-.16,2.51c-.7.66-1.85.58-2.51-.16-.62-.7-.58-1.85.16-2.51Zm-6.13,14.66c1.81-1.61,1.07-3.05,4.08-5.68,3.21-2.88,4.9-2.31,6.63-3.83,2.1-1.85,2.26-5.06.41-7.16s-5.06-2.31-7.16-.45c-1.69,1.52-1.4,3.33-4.65,6.22-2.96,2.64-4.2,1.65-6.05,3.29-2.1,1.85-2.31,5.11-.41,7.21,1.85,2.1,5.06,2.31,7.16.41"/>
  <path class="cls-8" d="m393.24,423.38c.78-1.03,1.48-1.73,2.14-2.26-1.4.08-2.76-.29-3.95-1.19s-1.94-2.18-2.22-3.54c-.33.82-.82,1.69-1.65,2.76-.54.7-1.03,1.24-1.48,1.61,1.32-.04,2.64.37,3.79,1.24,1.11.86,1.85,2.06,2.14,3.38.29-.62.66-1.24,1.24-1.98"/>
  <path class="cls-8" d="m378.95,439.19c-.62.74-1.73.91-2.51.33-.78-.62-.91-1.73-.33-2.51.62-.78,1.73-.95,2.51-.33.78.58.91,1.69.33,2.51Zm5.89-13.55c.58-.82,1.69-.95,2.47-.33.78.58.95,1.69.33,2.47-.58.78-1.73.95-2.47.33-.82-.58-.95-1.73-.33-2.47Zm-3.29,15.52c1.48-1.94.49-3.17,2.96-6.38,2.59-3.42,4.36-3.13,5.76-4.98,1.69-2.22,1.28-5.43-.95-7.12-2.22-1.73-5.39-1.32-7.12.95-1.4,1.77-.74,3.5-3.38,6.96-2.43,3.17-3.83,2.43-5.31,4.41-1.73,2.22-1.32,5.43.95,7.12,2.18,1.73,5.39,1.28,7.08-.95"/>
  <path class="cls-8" d="m374.5,448.2c.29-.58.66-1.19,1.24-1.98.78-1.03,1.48-1.69,2.14-2.22-1.36.08-2.76-.33-3.95-1.24-1.19-.86-1.94-2.14-2.18-3.5-.37.78-.86,1.69-1.69,2.76-.54.7-1.03,1.24-1.48,1.61,1.32-.04,2.64.37,3.79,1.24,1.11.86,1.85,2.06,2.14,3.33"/>
  <path class="cls-8" d="m361.25,452.11c.49-.7.86-1.48,1.19-2.31.29-.78.49-1.61.78-2.39.21-.54.45-.99.82-1.44,1.07-1.4,2.59-2.18,4.2-2.35-2.31-2.59-5.15-3.99-8.73-3.17l-1.61,3.33c.33.16.66.41.95.62,2.39,1.85,3.25,4.98,2.39,7.7"/>
  <path class="cls-8" d="m367.34,448.49c.58-.78,1.73-.95,2.47-.33.78.58.95,1.73.33,2.51-.58.78-1.69.91-2.47.33-.78-.62-.95-1.73-.33-2.51Zm-.33,9.18c2.64-3.42,4.36-3.17,5.76-4.98,1.73-2.26,1.28-5.43-.95-7.16-2.22-1.69-5.43-1.28-7.12.95-1.4,1.81-.74,3.5-3.38,6.96-.74.99-1.4,1.61-1.98,2.02,1.89,2.06,3.83,4.12,5.76,6.18.25-1.03.54-2.18,1.89-3.95"/>
  <path class="cls-8" d="m410.98,399.66c.78-1.03,1.48-1.73,2.14-2.26-1.36.08-2.76-.29-3.95-1.19s-1.94-2.18-2.18-3.54c-.37.78-.86,1.69-1.69,2.76-.54.7-1.03,1.24-1.48,1.65,1.32-.04,2.64.33,3.79,1.19,1.11.86,1.85,2.06,2.14,3.33.29-.54.66-1.19,1.24-1.94"/>
  <path class="cls-8" d="m394.76,393.9l-1.61,3.29c.33.21.66.41.95.66,2.43,1.81,3.25,4.94,2.39,7.66.49-.7.86-1.44,1.19-2.26.29-.82.49-1.65.78-2.39.21-.58.45-1.03.82-1.48,1.07-1.36,2.59-2.18,4.2-2.31-2.31-2.59-5.15-4.03-8.73-3.17"/>
  <path class="cls-8" d="m391.01,410.24c-1.81.29-3.75-.12-5.35-1.36-.25-.21-.49-.45-.78-.7.54,3.25,2.14,5.52,4.53,7-.21-1.52.16-3.13,1.19-4.45.12-.16.29-.37.41-.49"/>
  <path class="cls-8" d="m414.19,392.58c-.62.78-1.73.91-2.51.33-.78-.62-.91-1.73-.33-2.51.62-.78,1.73-.91,2.51-.33.78.62.95,1.73.33,2.51Zm5.89-13.55c.58-.78,1.69-.95,2.47-.33.78.58.95,1.69.33,2.51-.58.78-1.69.91-2.47.33-.78-.62-.95-1.73-.33-2.51Zm-3.29,15.52c1.52-1.89.49-3.13,2.96-6.34,2.59-3.42,4.36-3.17,5.76-4.98,1.69-2.26,1.28-5.43-.95-7.16-2.22-1.69-5.39-1.32-7.12.95-1.4,1.81-.74,3.5-3.38,6.96-2.43,3.17-3.83,2.43-5.31,4.41-1.73,2.22-1.32,5.43.95,7.12,2.22,1.73,5.39,1.32,7.08-.95"/>
  <path class="cls-8" d="m394.23,415.76c-.78-.58-.95-1.73-.33-2.51.58-.78,1.69-.91,2.47-.33.78.62.95,1.73.33,2.51-.58.78-1.69.95-2.47.33Zm8.36-13.88c.58-.78,1.73-.91,2.47-.33.78.62.95,1.73.33,2.51-.58.78-1.69.91-2.47.33-.78-.62-.95-1.73-.33-2.51Zm-3.25,15.56c1.48-1.94.45-3.17,2.92-6.38,2.64-3.42,4.36-3.17,5.76-4.98,1.73-2.22,1.28-5.43-.95-7.12-2.22-1.73-5.43-1.32-7.12.95-1.4,1.77-.74,3.5-3.38,6.92-2.43,3.17-3.83,2.47-5.31,4.41-1.73,2.26-1.28,5.43.95,7.16,2.22,1.69,5.43,1.28,7.12-.95"/>
  <path class="cls-8" d="m428.48,376.77c.74-.95,1.4-1.61,1.98-2.1l-.04-.12c-1.32.04-2.64-.37-3.75-1.24-1.15-.91-1.94-2.14-2.18-3.54-.37.82-.86,1.73-1.65,2.8-.58.7-1.07,1.19-1.52,1.56,1.32,0,2.68.37,3.79,1.24,1.11.91,1.85,2.1,2.14,3.38.29-.58.66-1.24,1.24-1.98"/>
  <path class="cls-8" d="m422.43,365.69c-.78-.86-1.36-1.81-1.85-2.8-.12.04-.21.08-.33.12.62,2.64,2.06,4.49,4.12,5.89-.04-.45-.04-.95,0-1.4-.7-.54-1.32-1.11-1.94-1.81"/>
  <path class="cls-8" d="m427.04,372.2c.82.66,1.77.99,2.76,1.11-.62-1.4-.7-2.31-1.77-3.54-.62-.66-.82-.62-1.69-1.03-.41-.25-.78-.45-1.19-.66-.04,1.52.62,3.05,1.89,4.12"/>
  <path class="cls-8" d="m516.18,264.04c-.12-.21-.29-.37-.49-.54-.82-.7-1.81-1.11-2.8-1.24-.12.62-.33,1.24-.58,1.81,1.24-.33,2.59-.37,3.87-.04"/>
  <path class="cls-8" d="m517.54,264.53c.49.21.91.49,1.32.78.21-.29.41-.58.66-.86.86-.99,1.61-1.61,2.26-2.1-1.36,0-2.72-.45-3.83-1.44-1.15-.99-1.81-2.31-2.02-3.66-.37.78-.95,1.65-1.81,2.64-.37.45-.74.82-1.11,1.15v.41c1.15.12,2.26.58,3.21,1.4.58.49.99,1.07,1.32,1.69"/>
  <path class="cls-8" d="m540.68,240.61c-1.36,0-2.76-.49-3.87-1.48-1.15-.95-1.77-2.26-1.98-3.62-.41.74-.95,1.61-1.85,2.64-.58.66-1.07,1.15-1.56,1.52,1.32.04,2.64.54,3.66,1.44,1.11.95,1.77,2.18,1.98,3.5.29-.58.74-1.19,1.32-1.89.86-.99,1.61-1.61,2.31-2.1"/>
  <path class="cls-8" d="m520.46,255.27c.66-.74,1.81-.86,2.51-.21.74.66.82,1.81.21,2.51-.66.78-1.81.86-2.51.21-.78-.66-.82-1.81-.21-2.51Zm9.39-10.83c.66-.74,1.77-.82,2.51-.16s.82,1.77.21,2.51c-.66.74-1.77.82-2.55.16-.74-.66-.78-1.77-.16-2.51Zm-11.36,15.85c2.1,1.81,5.31,1.61,7.16-.54,1.61-1.85.66-3.13,3.33-6.18,2.8-3.25,4.53-2.88,6.05-4.61,1.85-2.14,1.61-5.35-.49-7.21-2.14-1.85-5.31-1.61-7.16.49-1.48,1.73-.95,3.46-3.83,6.75-2.59,3.01-3.95,2.18-5.56,4.08-1.85,2.1-1.65,5.35.49,7.21"/>
  <path class="cls-8" d="m542.49,225.25c.49-.7.95-1.4,1.32-2.22.33-.78.58-1.61.91-2.35.25-.54.54-.99.91-1.44,1.11-1.32,2.68-2.02,4.32-2.06-2.18-2.76-4.9-4.32-8.56-3.66l-1.77,3.25c.29.21.62.45.91.7,2.31,1.98,3.01,5.11,1.98,7.78"/>
  <path class="cls-8" d="m578.23,196.1c-1.4.04-2.76-.45-3.91-1.4-1.11-.99-1.81-2.26-1.98-3.66-.41.78-.95,1.65-1.81,2.68-.58.66-1.11,1.19-1.56,1.52,1.32.04,2.59.54,3.71,1.44,1.07.91,1.73,2.14,1.98,3.46.29-.54.7-1.19,1.32-1.89.82-.99,1.61-1.65,2.26-2.14"/>
  <path class="cls-8" d="m539.48,232.83c.62-.74,1.77-.82,2.51-.16.74.62.82,1.73.21,2.51-.66.74-1.77.82-2.55.21-.7-.66-.82-1.77-.16-2.55Zm9.26-10.87c.66-.74,1.77-.86,2.51-.21.78.62.82,1.77.21,2.51s-1.77.86-2.51.21c-.74-.62-.82-1.77-.21-2.51Zm-11.24,15.93c2.14,1.81,5.35,1.56,7.21-.58,1.56-1.85.62-3.13,3.25-6.22,2.8-3.25,4.53-2.92,6.01-4.69,1.81-2.14,1.56-5.35-.58-7.16-2.1-1.81-5.31-1.56-7.12.54-1.52,1.77-.95,3.5-3.75,6.79-2.59,3.05-3.95,2.26-5.56,4.12-1.85,2.14-1.61,5.35.54,7.21"/>
  <path class="cls-8" d="m534.91,234.56c-.12-1.56.33-3.17,1.4-4.41l.49-.49c-1.85.21-3.79-.33-5.31-1.65-.25-.21-.49-.45-.7-.7.29,3.25,1.81,5.6,4.12,7.25"/>
  <path class="cls-8" d="m558.13,210.97c.66-.78,1.77-.86,2.51-.25.78.66.86,1.81.21,2.51-.62.78-1.77.86-2.51.25-.74-.66-.82-1.81-.21-2.51Zm9.3-10.91c.62-.74,1.77-.86,2.51-.21s.82,1.77.21,2.51c-.66.74-1.77.82-2.55.21-.7-.66-.82-1.77-.16-2.51Zm-11.24,15.93c2.14,1.81,5.35,1.56,7.16-.58,1.56-1.85.66-3.17,3.29-6.22,2.76-3.25,4.53-2.92,6.01-4.69,1.81-2.14,1.56-5.35-.58-7.16s-5.35-1.56-7.16.58c-1.48,1.73-.95,3.46-3.75,6.75-2.59,3.05-3.95,2.22-5.56,4.12-1.81,2.14-1.56,5.35.58,7.21"/>
  <path class="cls-8" d="m555.95,222.04c.29-.54.7-1.15,1.32-1.89.86-.99,1.61-1.65,2.26-2.1-1.4,0-2.76-.49-3.87-1.44-1.15-.95-1.81-2.26-2.02-3.62-.37.78-.95,1.65-1.81,2.68-.58.66-1.11,1.15-1.56,1.52,1.32.04,2.64.49,3.71,1.4,1.07.95,1.73,2.18,1.98,3.46"/>
  <path class="cls-8" d="m576.99,188.69c.66-.74,1.81-.82,2.55-.16s.78,1.77.16,2.51c-.66.74-1.81.82-2.51.16-.78-.66-.82-1.77-.21-2.51Zm9.47-10.75c.66-.74,1.77-.82,2.51-.16.74.62.78,1.77.16,2.51-.66.74-1.77.82-2.51.16s-.82-1.77-.16-2.51Zm-11.49,15.73c2.14,1.89,5.35,1.69,7.21-.45,1.61-1.81.66-3.13,3.33-6.13,2.84-3.25,4.57-2.88,6.09-4.61,1.85-2.1,1.65-5.35-.45-7.21s-5.35-1.65-7.16.49c-1.52,1.69-.99,3.46-3.83,6.71-2.64,3.01-3.99,2.18-5.6,4.03-1.89,2.1-1.69,5.31.41,7.16"/>
  <path class="cls-8" d="m580.12,181.12c.54-.66.99-1.36,1.36-2.18.37-.78.58-1.61.95-2.35.25-.54.54-.99.91-1.4,1.15-1.32,2.76-1.98,4.32-2.02-2.1-2.76-4.82-4.36-8.48-3.75l-1.81,3.21c.33.21.62.41.91.66,2.31,2.02,2.96,5.19,1.85,7.82"/>
  <path class="cls-8" d="m593.62,178.15c.33-.58.74-1.19,1.36-1.89.86-.95,1.61-1.61,2.31-2.06-1.4-.04-2.76-.54-3.87-1.52s-1.77-2.26-1.98-3.66c-.37.78-.95,1.65-1.81,2.68-.62.62-1.11,1.11-1.61,1.48,1.32.08,2.64.54,3.66,1.48,1.11.95,1.73,2.18,1.94,3.5"/>
  <path class="cls-8" d="m616.27,152.5c-1.36,0-2.76-.49-3.87-1.44-1.11-.99-1.77-2.31-1.94-3.66-.41.74-.95,1.61-1.85,2.59-.58.7-1.11,1.19-1.56,1.52,1.28.04,2.59.54,3.66,1.48s1.69,2.18,1.94,3.5c.29-.54.74-1.15,1.36-1.89.82-.95,1.61-1.61,2.26-2.1"/>
  <path class="cls-8" d="m596.01,167.04c.62-.7,1.77-.78,2.51-.12.7.66.78,1.77.12,2.51-.62.7-1.77.78-2.51.16-.7-.66-.78-1.77-.12-2.55Zm9.43-10.75c.66-.74,1.77-.82,2.51-.16s.82,1.77.16,2.51c-.66.78-1.77.82-2.51.16s-.82-1.77-.16-2.51Zm-11.45,15.77c2.1,1.85,5.31,1.65,7.16-.45,1.61-1.85.7-3.13,3.33-6.18,2.84-3.21,4.57-2.88,6.09-4.61,1.85-2.1,1.65-5.31-.45-7.16-2.14-1.85-5.31-1.65-7.16.45-1.52,1.73-.99,3.46-3.83,6.71-2.64,3.01-3.99,2.18-5.64,4.03-1.85,2.14-1.61,5.35.49,7.21"/>
  <path class="cls-8" d="m572.42,190.3c-.08-1.52.37-3.09,1.48-4.36l.45-.45c-1.81.16-3.75-.37-5.23-1.73-.29-.21-.49-.45-.74-.74.29,3.29,1.77,5.64,4.03,7.29"/>
  <path class="cls-8" d="m618.49,137.85c.54-.66,1.03-1.36,1.4-2.14s.62-1.61.99-2.35c.25-.49.54-.99.95-1.36,1.15-1.28,2.76-1.94,4.36-1.94-2.06-2.8-4.73-4.49-8.4-3.95l-1.89,3.17c.33.21.62.45.91.7,2.22,2.06,2.8,5.23,1.69,7.86"/>
  <path class="cls-8" d="m634.63,124.13c.7-.74,1.81-.78,2.55-.12.7.66.74,1.77.08,2.51s-1.77.78-2.51.12c-.7-.66-.78-1.81-.12-2.51Zm9.68-10.58c.66-.7,1.81-.78,2.51-.08.74.66.78,1.77.12,2.51-.66.7-1.81.74-2.51.08-.74-.66-.78-1.77-.12-2.51Zm-4.61,15.19c1.65-1.77.78-3.09,3.5-6.09,2.88-3.17,4.65-2.76,6.18-4.45,1.89-2.06,1.77-5.31-.33-7.21-2.06-1.89-5.27-1.77-7.16.33-1.52,1.69-1.03,3.42-3.95,6.63-2.72,2.92-4.03,2.1-5.72,3.91-1.89,2.06-1.73,5.31.33,7.21s5.27,1.77,7.16-.33"/>
  <path class="cls-8" d="m632.04,135.17c.33-.58.78-1.19,1.4-1.85.91-.95,1.65-1.61,2.35-2.06-1.36-.04-2.76-.54-3.83-1.56-1.11-.99-1.73-2.35-1.89-3.71-.41.74-.99,1.61-1.89,2.59-.62.66-1.11,1.11-1.61,1.48,1.28.08,2.59.58,3.62,1.56,1.07.95,1.69,2.22,1.85,3.54"/>
  <path class="cls-8" d="m615.2,145.34c.7-.7,1.81-.78,2.55-.08.7.62.74,1.77.08,2.51-.66.7-1.77.74-2.51.08s-.78-1.77-.12-2.51Zm9.68-10.54c.66-.74,1.81-.78,2.51-.12.74.66.78,1.77.12,2.51s-1.81.78-2.51.12c-.74-.66-.78-1.77-.12-2.51Zm-11.78,15.48c2.06,1.89,5.27,1.81,7.16-.29,1.65-1.81.78-3.13,3.5-6.09,2.88-3.17,4.61-2.76,6.18-4.45,1.89-2.1,1.77-5.31-.33-7.21-2.06-1.89-5.27-1.77-7.16.29-1.52,1.69-1.07,3.46-3.99,6.67-2.68,2.92-4.03,2.06-5.68,3.91-1.89,2.06-1.73,5.31.33,7.16"/>
  <path class="cls-8" d="m610.59,146.86c-.08-1.52.45-3.13,1.56-4.32l.49-.49c-1.85.16-3.75-.45-5.23-1.81-.25-.25-.49-.45-.7-.74.21,3.29,1.61,5.64,3.87,7.37"/>
  <path class="cls-8" d="m655.22,110.01c-1.36-.04-2.72-.58-3.83-1.52-1.07-1.03-1.73-2.35-1.85-3.75-.41.78-.99,1.61-1.94,2.59-.58.66-1.11,1.15-1.61,1.48,1.32.08,2.59.62,3.66,1.56,1.03.95,1.65,2.22,1.85,3.5.29-.54.74-1.11,1.4-1.81.86-.95,1.61-1.61,2.31-2.06"/>
  <path class="cls-8" d="m673.75,81.52c.66-.7,1.81-.74,2.51-.08.74.66.74,1.81.08,2.51-.66.74-1.77.78-2.51.08-.7-.66-.74-1.77-.08-2.51Zm9.76-10.46c.7-.7,1.81-.74,2.55-.08.7.7.74,1.81.08,2.51-.7.74-1.81.78-2.51.08-.74-.66-.78-1.81-.12-2.51Zm-4.73,15.15c1.65-1.77.78-3.09,3.54-6.05,2.92-3.13,4.65-2.72,6.22-4.41,1.94-2.06,1.81-5.27-.25-7.21-2.02-1.89-5.23-1.81-7.16.25-1.56,1.65-1.07,3.42-4.03,6.59-2.72,2.92-4.03,2.06-5.76,3.87-1.89,2.06-1.81,5.31.25,7.21,2.06,1.94,5.27,1.81,7.21-.25"/>
  <path class="cls-8" d="m649.5,104.04c-.08-1.52.45-3.09,1.61-4.32.12-.16.29-.33.45-.45-1.85.08-3.71-.54-5.19-1.89-.25-.21-.49-.49-.7-.74.16,3.29,1.56,5.64,3.83,7.41"/>
  <path class="cls-8" d="m654.11,102.56c.66-.7,1.81-.74,2.51-.08s.74,1.81.08,2.51c-.66.74-1.81.74-2.51.08s-.74-1.81-.08-2.51Zm9.76-10.46c.7-.74,1.81-.74,2.51-.08.74.66.78,1.81.08,2.51-.66.74-1.77.74-2.51.08-.7-.66-.74-1.81-.08-2.51Zm-11.94,15.4c2.06,1.94,5.27,1.81,7.21-.25,1.65-1.77.78-3.13,3.54-6.05,2.92-3.13,4.65-2.72,6.22-4.41,1.94-2.06,1.81-5.27-.25-7.21-2.02-1.89-5.27-1.81-7.16.25-1.56,1.69-1.11,3.42-4.03,6.59-2.72,2.92-4.08,2.06-5.72,3.87-1.94,2.06-1.81,5.27.21,7.21"/>
  <path class="cls-8" d="m657.48,95.11c.54-.66.99-1.4,1.4-2.14.37-.78.62-1.61,1.03-2.35.25-.49.54-.95.95-1.36,1.19-1.28,2.8-1.89,4.36-1.89-1.98-2.8-4.65-4.49-8.32-4.03l-1.98,3.17c.33.21.62.45.91.74,2.22,2.06,2.8,5.23,1.65,7.86"/>
  <path class="cls-8" d="m671.03,92.51c.33-.54.78-1.11,1.44-1.81.91-.95,1.65-1.56,2.35-2.02-1.4-.04-2.72-.62-3.83-1.61-1.07-1.03-1.69-2.35-1.85-3.75-.41.78-.99,1.61-1.89,2.59-.62.66-1.15,1.11-1.65,1.48,1.32.08,2.59.62,3.62,1.56,1.07.99,1.65,2.22,1.81,3.54"/>
  <path class="cls-8" d="m690.71,71.48c.33-.54.78-1.11,1.4-1.81.91-.95,1.65-1.56,2.35-2.06-1.36,0-2.72-.58-3.79-1.56-1.11-1.03-1.73-2.35-1.85-3.75-.41.78-.99,1.61-1.94,2.59-.62.66-1.11,1.11-1.65,1.48,1.32.08,2.64.62,3.62,1.56,1.07.95,1.69,2.22,1.85,3.54"/>
  <path class="cls-8" d="m710.68,50.52c.33-.54.78-1.15,1.44-1.81.91-.95,1.69-1.56,2.35-2.02-1.36-.04-2.72-.62-3.75-1.65-1.11-.99-1.69-2.35-1.81-3.75-.45.78-1.03,1.61-1.98,2.59-.62.62-1.15,1.11-1.65,1.4,1.32.12,2.59.66,3.62,1.65s1.61,2.26,1.77,3.58"/>
  <path class="cls-8" d="m697.09,52.91c.54-.66.99-1.32,1.4-2.1s.66-1.56,1.07-2.35c.25-.49.58-.95.95-1.32,1.19-1.28,2.84-1.89,4.45-1.85-2.02-2.84-4.65-4.57-8.32-4.12l-1.98,3.13c.29.21.58.45.91.74,2.14,2.1,2.68,5.27,1.52,7.86"/>
  <path class="cls-8" d="m688.98,61.76c-.04-1.52.49-3.09,1.65-4.28l.49-.49c-1.85.12-3.75-.49-5.19-1.89-.25-.25-.45-.49-.7-.78.16,3.29,1.52,5.68,3.75,7.45"/>
  <path class="cls-8" d="m693.63,60.36c.66-.74,1.81-.74,2.51-.08.7.7.74,1.81.04,2.55-.66.7-1.81.7-2.51.04-.7-.7-.74-1.81-.04-2.51Zm9.88-10.33c.66-.74,1.81-.74,2.51-.08.7.7.74,1.81.04,2.51-.66.7-1.77.74-2.51.08-.7-.7-.7-1.81-.04-2.51Zm-12.15,15.23c2.06,1.94,5.27,1.89,7.21-.16,1.69-1.77.82-3.09,3.62-6.01,2.96-3.09,4.69-2.68,6.26-4.32,1.98-2.02,1.89-5.27-.12-7.21-2.06-1.94-5.27-1.89-7.21.16-1.56,1.65-1.11,3.42-4.12,6.55-2.76,2.88-4.08,2.02-5.76,3.79-1.94,2.02-1.89,5.27.12,7.21"/>
  <g class="cls-2">
    <path class="cls-8" d="m747.77,12.93c.45-.33.99-.54,1.52-.7,1.65-.49,3.33-.25,4.73.62-.33-3.46-1.77-6.3-5.19-7.74l-3.25,1.77c.12.33.29.7.41,1.07.86,2.88-.29,5.93-2.59,7.62.78-.33,1.56-.7,2.31-1.15.7-.49,1.32-1.03,2.06-1.48"/>
  </g>
  <path class="cls-8" d="m736.74,20.26c.95-.25,1.94.25,2.22,1.19s-.25,1.98-1.19,2.22c-.95.29-1.94-.25-2.22-1.19s.25-1.94,1.19-2.22Zm13.71-4.03c.95-.29,1.94.25,2.22,1.19s-.25,1.94-1.19,2.22c-.95.25-1.94-.29-2.22-1.24s.25-1.94,1.19-2.18Zm-18.07,7.21c.78,2.68,3.62,4.24,6.34,3.42,2.31-.66,2.22-2.26,6.09-3.42,4.12-1.19,5.39.04,7.62-.62,2.68-.78,4.2-3.62,3.42-6.34-.78-2.68-3.62-4.24-6.34-3.46-2.18.66-2.64,2.43-6.79,3.66-3.83,1.11-4.53-.29-6.92.41-2.68.82-4.2,3.66-3.42,6.34"/>
  <path class="cls-8" d="m735.59,16.3c.21-.08.41-.12.66-.16-1.69-.82-3.01-2.31-3.58-4.24-.08-.33-.16-.7-.21-1.03-1.48,2.92-1.48,5.68-.45,8.32.74-1.36,1.98-2.43,3.58-2.88"/>
  <path class="cls-8" d="m756.67,20.87c.62-.16,1.36-.33,2.31-.41,1.28-.16,2.26-.12,3.09,0-1.03-.95-1.69-2.22-1.81-3.71-.16-1.48.25-2.88,1.03-4.03-.82.29-1.81.54-3.13.66-.86.12-1.61.12-2.18.04.91.95,1.52,2.18,1.69,3.58.12,1.44-.25,2.8-.99,3.87"/>
  <path class="cls-8" d="m765.19,15.4c.33-.91,1.36-1.4,2.26-1.07.95.37,1.4,1.4,1.07,2.31-.33.95-1.36,1.4-2.31,1.03-.91-.33-1.4-1.32-1.03-2.26Zm13.38,4.98c.33-.95,1.36-1.4,2.31-1.07.91.33,1.4,1.36,1.03,2.31-.33.91-1.36,1.4-2.26,1.03-.95-.33-1.4-1.36-1.07-2.26Zm-13.5.41c2.31.86,3.17-.49,6.96.95,4.03,1.48,4.32,3.21,6.46,4.03,2.64.99,5.56-.37,6.51-3.01.99-2.64-.37-5.6-2.96-6.55-2.14-.78-3.58.33-7.66-1.19-3.71-1.36-3.46-2.92-5.76-3.79-2.64-.99-5.56.37-6.51,3.01-.99,2.64.33,5.6,2.96,6.55"/>
  <path class="cls-8" d="m781.95,26.76c.58.29,1.15.7,1.89,1.28,1.03.86,1.69,1.56,2.18,2.22-.04-1.36.41-2.76,1.36-3.87.91-1.19,2.22-1.85,3.58-2.1-.78-.37-1.65-.91-2.68-1.77-.7-.58-1.19-1.07-1.56-1.52,0,1.32-.45,2.59-1.36,3.71s-2.14,1.81-3.42,2.06"/>
  <path class="cls-8" d="m800.68,37.51c.54.62,1.19,1.15,1.77,1.81.37.41.66.86.91,1.36.74,1.56.74,3.33.12,4.82,3.38-.86,5.93-2.72,6.79-6.34l-2.22-2.96c-.29.25-.62.41-.99.62-2.72,1.28-5.89.62-7.91-1.4.41.74.91,1.44,1.52,2.1"/>
  <path class="cls-8" d="m797.22,27.75c.12.21.21.41.25.62.58-1.77,1.85-3.29,3.66-4.16.29-.16.62-.29.95-.37-3.13-1.03-5.85-.62-8.28.82,1.48.54,2.72,1.56,3.42,3.09"/>
  <path class="cls-8" d="m791.13,28.66c.86-.41,1.94,0,2.35.86.45.91.04,1.94-.82,2.39-.91.41-1.94.04-2.39-.86-.41-.86-.04-1.94.86-2.39Zm6.09,12.97c.91-.41,1.98-.04,2.39.82.41.91.04,1.98-.86,2.39-.86.45-1.94.04-2.35-.82-.41-.91-.04-1.98.82-2.39Zm-9.92-9.18c1.03,2.22,2.59,1.89,4.32,5.56,1.81,3.87.82,5.35,1.81,7.41,1.19,2.55,4.2,3.62,6.75,2.43,2.51-1.19,3.58-4.24,2.39-6.79-.95-2.06-2.76-2.26-4.61-6.18-1.73-3.62-.45-4.53-1.48-6.75-1.19-2.55-4.24-3.62-6.79-2.43-2.51,1.19-3.58,4.24-2.39,6.75"/>
  <path class="cls-8" d="m799.82,51.79c1.48-.33,2.92-.08,4.12.58-.37-.78-.74-1.73-1.03-3.05-.21-.86-.29-1.56-.29-2.18-.82,1.03-1.98,1.81-3.38,2.14-1.36.29-2.76.08-3.95-.49.29.58.54,1.28.74,2.18.29,1.28.37,2.26.37,3.09.78-1.11,1.98-1.94,3.42-2.26"/>
  <path class="cls-8" d="m797.39,71.64c.12-.95,1.03-1.65,2.02-1.48.95.16,1.65,1.07,1.48,2.02-.16.99-1.07,1.65-2.02,1.48-.99-.12-1.65-1.03-1.48-2.02Zm2.14-14.16c.16-.95,1.07-1.65,2.06-1.48s1.61,1.07,1.48,2.02c-.16.99-1.07,1.65-2.02,1.48-.99-.12-1.65-1.03-1.52-2.02Zm-1.19,19.47c2.76.41,5.39-1.48,5.81-4.28.33-2.22-1.03-3.42-.37-7.7.62-3.95,2.18-3.99,2.55-6.42.45-2.8-1.48-5.39-4.24-5.81-2.8-.45-5.35,1.44-5.81,4.24-.37,2.43,1.11,3.01.49,7-.66,4.28-2.35,4.9-2.68,7.16-.41,2.76,1.48,5.35,4.24,5.81"/>
  <path class="cls-8" d="m793.02,77.07c-.49,1.24-.99,2.06-1.44,2.76,1.28-.45,2.76-.45,4.12.08,1.4.58,2.43,1.61,3.05,2.84.12-.86.37-1.85.86-3.13.33-.78.7-1.44,1.03-1.94-1.28.37-2.64.37-3.95-.16-1.36-.54-2.35-1.48-2.96-2.68-.12.62-.33,1.36-.7,2.22"/>
  <path class="cls-8" d="m803.23,90.33c.29.21.58.41.82.62-.82-3.17-2.64-5.23-5.15-6.51.33,1.48.12,3.13-.74,4.53-.12.21-.25.37-.41.58,1.81-.49,3.79-.25,5.48.78"/>
  <path class="cls-8" d="m794.67,86.79c-.54.82-1.65,1.07-2.47.54-.86-.54-1.11-1.61-.58-2.43.54-.86,1.61-1.11,2.43-.58.86.54,1.11,1.61.62,2.47Zm-7.62,12.15c-.54.82-1.61,1.07-2.43.54-.86-.49-1.11-1.61-.58-2.43.54-.86,1.61-1.11,2.43-.58.86.49,1.11,1.65.58,2.47Zm8.77-17.46c-2.39-1.48-5.52-.74-7,1.65-1.28,2.06-.16,3.21-2.31,6.63-2.26,3.62-4.03,3.58-5.27,5.52-1.48,2.39-.78,5.52,1.61,7s5.52.78,7-1.61c1.19-1.94.41-3.54,2.72-7.25,2.1-3.38,3.58-2.8,4.86-4.9,1.48-2.39.78-5.52-1.61-7.04"/>
  <path class="cls-8" d="m795.58,106.14l1.32-3.46c-.37-.16-.7-.33-1.03-.54-2.55-1.61-3.71-4.61-3.09-7.41-.41.74-.74,1.52-.95,2.39-.25.82-.33,1.65-.58,2.47-.16.54-.37,1.03-.66,1.52-.95,1.48-2.39,2.39-3.95,2.68,2.51,2.39,5.48,3.54,8.93,2.35"/>
  <path class="cls-8" d="m780.55,105.36c1.24.78,2.1,1.94,2.51,3.29.25-.82.66-1.77,1.4-2.92.45-.74.91-1.32,1.32-1.73-1.32.16-2.68-.12-3.87-.86-1.19-.78-2.06-1.89-2.47-3.13-.21.58-.54,1.24-1.03,2.06-.7,1.07-1.32,1.85-1.94,2.43,1.36-.21,2.8.04,4.08.86"/>
  <path class="cls-8" d="m778.53,111.54c-.58.74-1.73.91-2.51.29s-.91-1.73-.29-2.51,1.73-.91,2.51-.29c.74.62.91,1.73.29,2.51Zm-8.81,11.28c-.58.74-1.73.91-2.47.29-.78-.62-.91-1.73-.33-2.51.62-.78,1.73-.91,2.51-.29s.91,1.73.29,2.51Zm11.4-9.26c1.73-2.22,1.36-5.39-.86-7.16-2.22-1.69-5.39-1.32-7.16.86-1.48,1.94-.49,3.21-2.96,6.38-2.64,3.38-4.41,3.13-5.81,4.94-1.73,2.22-1.32,5.39.86,7.16,2.22,1.73,5.43,1.32,7.12-.91,1.4-1.77.78-3.5,3.46-6.92,2.47-3.13,3.83-2.43,5.35-4.36"/>
  <path class="cls-8" d="m786.72,115.98c.25.21.49.45.74.66-.45-3.21-2.06-5.48-4.45-7,.16,1.52-.21,3.13-1.24,4.45-.12.16-.29.37-.45.49,1.85-.29,3.79.16,5.39,1.4"/>
  <path class="cls-8" d="m774.62,121.5c-.29.82-.49,1.65-.78,2.39-.21.54-.49,1.03-.82,1.48-1.07,1.36-2.64,2.14-4.2,2.26,2.22,2.64,5.06,4.08,8.65,3.25l1.65-3.29c-.33-.21-.66-.41-.95-.66-2.39-1.85-3.25-4.98-2.31-7.7-.49.7-.91,1.48-1.24,2.26"/>
  <path class="cls-8" d="m747.53,154.68c.37-.74.86-1.65,1.69-2.72.54-.7,1.07-1.24,1.52-1.61-1.32.04-2.64-.37-3.79-1.28-1.11-.86-1.85-2.06-2.14-3.33-.25.54-.62,1.19-1.24,1.94-.78,1.03-1.48,1.69-2.14,2.22,1.36-.08,2.76.33,3.95,1.24,1.15.95,1.89,2.22,2.14,3.54"/>
  <path class="cls-8" d="m752.06,145.5c-.62.78-1.77.91-2.51.33-.78-.62-.91-1.73-.33-2.51.62-.78,1.73-.91,2.51-.29.78.58.91,1.69.33,2.47Zm5.97-13.46c.62-.78,1.73-.91,2.51-.33.74.62.91,1.73.29,2.51-.58.78-1.73.91-2.51.33-.74-.62-.91-1.77-.29-2.51Zm-3.38,15.52c1.4-1.81.78-3.54,3.42-6.96,2.47-3.13,3.87-2.39,5.35-4.36,1.77-2.22,1.36-5.39-.86-7.12-2.22-1.77-5.39-1.36-7.12.86-1.52,1.94-.54,3.17-3.01,6.34-2.64,3.42-4.41,3.13-5.81,4.94-1.73,2.22-1.32,5.43.86,7.16,2.22,1.73,5.43,1.32,7.16-.86"/>
  <path class="cls-8" d="m766.92,129.24c.58-.7,1.07-1.19,1.52-1.61-1.32.04-2.68-.37-3.79-1.24-1.11-.91-1.81-2.1-2.1-3.38-.29.54-.7,1.19-1.28,1.94-.78,1.03-1.48,1.73-2.14,2.22,1.36-.08,2.76.33,3.95,1.28,1.15.91,1.89,2.18,2.14,3.54.37-.78.86-1.69,1.69-2.76"/>
  <path class="cls-8" d="m716.36,191.78c-.62.78-1.73.91-2.51.33-.78-.62-.91-1.77-.29-2.51.58-.78,1.73-.95,2.47-.33.82.62.95,1.73.33,2.51Zm5.97-13.5c.62-.78,1.77-.91,2.51-.29.78.62.91,1.73.33,2.47-.62.78-1.73.95-2.51.33s-.91-1.73-.33-2.51Zm-3.38,15.52c1.4-1.77.78-3.5,3.42-6.92,2.47-3.13,3.87-2.43,5.39-4.36,1.73-2.22,1.32-5.43-.91-7.12-2.18-1.77-5.39-1.36-7.12.86-1.48,1.94-.49,3.17-2.96,6.34-2.68,3.38-4.41,3.13-5.81,4.94-1.73,2.22-1.36,5.43.86,7.12,2.22,1.77,5.39,1.36,7.12-.86"/>
  <path class="cls-8" d="m742.87,157.77c-.62.78-1.73.95-2.51.33s-.91-1.73-.33-2.51c.62-.78,1.73-.91,2.51-.29.78.58.91,1.69.33,2.47Zm-8.81,11.28c-.62.78-1.73.95-2.51.33s-.91-1.73-.29-2.51c.58-.78,1.69-.91,2.47-.29.78.58.95,1.69.33,2.47Zm11.4-9.22c1.73-2.22,1.32-5.43-.91-7.16-2.18-1.73-5.39-1.36-7.12.86-1.48,1.94-.49,3.17-2.96,6.38-2.68,3.38-4.41,3.13-5.81,4.9-1.77,2.22-1.36,5.43.86,7.16,2.18,1.73,5.39,1.36,7.12-.86,1.4-1.81.78-3.54,3.42-6.96,2.47-3.13,3.87-2.39,5.39-4.32"/>
  <path class="cls-8" d="m709.69,197.42c1.19.91,1.94,2.18,2.18,3.54.33-.78.86-1.65,1.69-2.72.54-.74,1.03-1.24,1.48-1.61-1.32,0-2.64-.41-3.75-1.28-1.15-.86-1.85-2.06-2.14-3.38-.25.58-.66,1.24-1.24,1.98-.82.99-1.52,1.69-2.14,2.22,1.36-.08,2.76.33,3.91,1.24"/>
  <path class="cls-8" d="m751.03,162.26c.29.21.54.41.78.66-.49-3.25-2.1-5.48-4.49-7.04.21,1.56-.16,3.17-1.19,4.49-.12.16-.29.33-.45.49,1.85-.29,3.79.12,5.35,1.4"/>
  <path class="cls-8" d="m738.96,167.78c-.29.78-.49,1.61-.82,2.39-.21.54-.45,1.03-.82,1.48-1.07,1.36-2.59,2.14-4.2,2.22,2.26,2.64,5.06,4.08,8.69,3.29l1.65-3.33c-.33-.16-.66-.37-.99-.62-2.39-1.85-3.21-4.98-2.26-7.7-.54.7-.91,1.44-1.24,2.26"/>
  <path class="cls-8" d="m731.26,175.52c.54-.7,1.03-1.24,1.48-1.61-1.32,0-2.64-.37-3.75-1.28-1.11-.86-1.81-2.06-2.14-3.38-.29.58-.66,1.24-1.24,1.98-.78,1.03-1.48,1.69-2.14,2.22,1.36-.08,2.76.33,3.91,1.24,1.19.95,1.89,2.22,2.18,3.58.33-.82.86-1.69,1.69-2.76"/>
  <path class="cls-8" d="m715.49,208.29c.29.21.54.49.74.74-.37-3.29-1.89-5.6-4.24-7.16.16,1.52-.29,3.13-1.32,4.41l-.49.49c1.85-.25,3.79.25,5.31,1.52"/>
  <path class="cls-8" d="m695.4,221.01c.58-.66,1.07-1.15,1.52-1.52-1.32-.04-2.59-.45-3.71-1.36s-1.81-2.14-2.06-3.42c-.29.54-.7,1.19-1.28,1.89-.82.99-1.56,1.69-2.22,2.18,1.36-.04,2.76.41,3.91,1.32,1.15.95,1.85,2.26,2.06,3.62.37-.78.91-1.65,1.77-2.72"/>
  <path class="cls-8" d="m675.35,245.96c.37-.74.91-1.65,1.73-2.68.58-.7,1.11-1.19,1.56-1.56-1.32,0-2.64-.45-3.75-1.36-1.07-.91-1.77-2.1-2.02-3.42-.29.54-.7,1.19-1.32,1.89-.82,1.03-1.52,1.69-2.18,2.18,1.36-.04,2.76.41,3.87,1.36,1.15.95,1.85,2.22,2.1,3.58"/>
  <path class="cls-8" d="m680.05,236.91c-.62.78-1.73.86-2.47.25-.78-.66-.86-1.77-.25-2.51.62-.78,1.73-.86,2.51-.25.74.62.86,1.73.21,2.51Zm6.38-13.34c.62-.74,1.73-.86,2.51-.25.74.66.86,1.77.25,2.51-.62.78-1.77.86-2.51.25-.78-.62-.86-1.73-.25-2.51Zm-3.83,15.44c1.48-1.77.86-3.5,3.62-6.83,2.55-3.09,3.91-2.31,5.48-4.24,1.81-2.14,1.48-5.35-.66-7.16-2.18-1.77-5.39-1.44-7.16.7-1.56,1.89-.58,3.17-3.17,6.3-2.72,3.29-4.49,3.01-5.93,4.78-1.77,2.14-1.48,5.35.7,7.16,2.14,1.77,5.35,1.48,7.12-.7"/>
  <path class="cls-8" d="m707.47,203.64c-.66.74-1.77.86-2.51.21-.78-.62-.86-1.73-.25-2.51.62-.74,1.77-.86,2.51-.21.74.62.86,1.73.25,2.51Zm-9.1,11.03c-.66.74-1.77.86-2.51.25s-.86-1.77-.25-2.51c.62-.78,1.77-.86,2.51-.25.78.62.86,1.77.25,2.51Zm11.65-8.93c1.77-2.18,1.44-5.39-.7-7.16-2.18-1.81-5.35-1.48-7.16.66-1.52,1.89-.58,3.17-3.17,6.3-2.72,3.29-4.45,2.96-5.93,4.78-1.77,2.18-1.44,5.39.7,7.16,2.14,1.81,5.35,1.48,7.16-.7,1.44-1.73.86-3.46,3.62-6.83,2.51-3.05,3.91-2.31,5.48-4.2"/>
  <path class="cls-8" d="m703.31,213.52c-.33.78-.54,1.61-.86,2.39-.25.49-.49.99-.86,1.4-1.11,1.36-2.68,2.1-4.28,2.14,2.18,2.72,4.94,4.24,8.61,3.5l1.73-3.25c-.33-.21-.66-.41-.95-.66-2.35-1.94-3.09-5.06-2.1-7.74-.49.66-.95,1.4-1.28,2.22"/>
  <path class="cls-8" d="m658.92,265.69c.58-.7,1.07-1.19,1.56-1.56-1.32-.04-2.64-.49-3.71-1.4-1.11-.91-1.77-2.14-2.02-3.46-.29.58-.7,1.19-1.32,1.89-.82,1.03-1.56,1.69-2.26,2.14,1.4,0,2.76.45,3.91,1.44,1.11.95,1.81,2.22,2.02,3.62.41-.78.95-1.65,1.81-2.68"/>
  <path class="cls-8" d="m679.18,253.21c.25.21.54.45.74.7-.33-3.25-1.85-5.56-4.16-7.21.12,1.56-.33,3.13-1.4,4.41-.12.16-.29.33-.45.49,1.85-.21,3.75.29,5.27,1.61"/>
  <path class="cls-8" d="m671.19,248.39c-.62.78-1.77.86-2.51.25-.74-.66-.82-1.77-.16-2.51.62-.78,1.73-.86,2.47-.25.78.66.86,1.77.21,2.51Zm-9.22,10.95c-.66.74-1.77.86-2.51.21-.74-.62-.86-1.73-.21-2.51.62-.74,1.73-.82,2.51-.21.74.66.82,1.77.21,2.51Zm11.73-8.77c1.81-2.18,1.56-5.35-.58-7.21-2.14-1.81-5.35-1.56-7.16.62-1.56,1.85-.62,3.13-3.25,6.22-2.76,3.29-4.53,2.92-6.01,4.69-1.81,2.14-1.52,5.39.62,7.16,2.14,1.85,5.35,1.56,7.16-.58,1.48-1.73.91-3.46,3.71-6.79,2.59-3.05,3.95-2.22,5.52-4.12"/>
  <path class="cls-8" d="m649.91,268.07c.62-.74,1.77-.82,2.51-.21.74.66.82,1.77.21,2.51-.66.78-1.77.86-2.51.25-.78-.66-.86-1.81-.21-2.55Zm-6.55,13.26c-.62.74-1.73.82-2.51.21-.74-.66-.82-1.77-.21-2.51.66-.78,1.77-.86,2.51-.21.74.62.86,1.77.21,2.51Zm11.78-8.77c1.81-2.18,1.52-5.39-.62-7.21s-5.31-1.56-7.12.62c-1.61,1.85-.66,3.13-3.25,6.22-2.76,3.25-4.53,2.92-6.01,4.69-1.81,2.14-1.56,5.35.58,7.16s5.35,1.56,7.16-.58c1.48-1.77.95-3.5,3.75-6.79,2.55-3.05,3.91-2.26,5.52-4.12"/>
  <path class="cls-8" d="m666.91,258.27c-.33.78-.54,1.56-.91,2.35-.25.54-.54.99-.86,1.4-1.15,1.36-2.72,2.06-4.32,2.1,2.18,2.72,4.94,4.28,8.56,3.62l1.77-3.25c-.33-.21-.66-.41-.95-.7-2.31-1.94-3.01-5.06-2.02-7.78-.49.7-.91,1.44-1.28,2.26"/>
  <path class="cls-8" d="m636.16,281.25c-.29.58-.7,1.19-1.32,1.94-.82.95-1.56,1.65-2.22,2.1,1.36,0,2.76.45,3.87,1.44,1.15.95,1.81,2.22,2.02,3.62.41-.78.95-1.65,1.81-2.68.58-.7,1.11-1.19,1.56-1.56-1.32,0-2.64-.45-3.71-1.4-1.07-.91-1.77-2.14-2.02-3.46"/>
  <path class="cls-8" d="m636.53,296.28c1.81-.16,3.71.41,5.23,1.73.29.25.49.49.7.74-.25-3.25-1.69-5.6-3.99-7.29.12,1.52-.37,3.13-1.48,4.36l-.45.45"/>
  <path class="cls-8" d="m596.75,326.99c-.82.95-1.61,1.61-2.26,2.1,1.36,0,2.76.49,3.83,1.48,1.15.99,1.77,2.31,1.98,3.66.41-.74.95-1.61,1.85-2.64.58-.66,1.11-1.15,1.61-1.48-1.32-.08-2.64-.58-3.71-1.52s-1.69-2.18-1.89-3.5c-.33.58-.78,1.19-1.4,1.89"/>
  <path class="cls-8" d="m629.36,302.78c-.33.78-.58,1.61-.95,2.35-.25.49-.54.99-.91,1.4-1.15,1.28-2.76,1.98-4.36,2.02,2.1,2.76,4.82,4.36,8.48,3.79l1.85-3.21c-.33-.21-.62-.41-.91-.7-2.31-2.02-2.92-5.19-1.85-7.82-.54.66-.99,1.4-1.36,2.18"/>
  <path class="cls-8" d="m615.86,305.42c-.86.95-1.61,1.61-2.31,2.06,1.4.04,2.76.54,3.87,1.52s1.77,2.31,1.94,3.66c.41-.78.95-1.61,1.85-2.64.58-.66,1.11-1.15,1.61-1.48-1.32-.08-2.64-.58-3.66-1.52-1.11-.91-1.73-2.18-1.94-3.46-.33.54-.74,1.15-1.36,1.85"/>
  <path class="cls-8" d="m631.21,290.68c.66-.74,1.77-.82,2.51-.16s.78,1.81.12,2.55c-.62.74-1.77.78-2.47.12-.74-.62-.82-1.77-.16-2.51Zm-6.79,13.09c-.66.74-1.81.82-2.55.16s-.78-1.81-.16-2.51c.66-.74,1.81-.82,2.55-.16s.78,1.77.16,2.51Zm4.32-15.27c-1.61,1.81-.7,3.13-3.38,6.13-2.84,3.25-4.61,2.84-6.13,4.61-1.81,2.1-1.65,5.31.45,7.16s5.31,1.69,7.16-.45c1.52-1.69.99-3.42,3.87-6.67,2.64-3.01,3.99-2.18,5.64-4.03,1.85-2.1,1.65-5.35-.45-7.21s-5.31-1.65-7.16.45"/>
  <path class="cls-8" d="m612.15,312.25c.66-.74,1.77-.78,2.51-.16.74.66.78,1.81.16,2.55-.66.7-1.81.78-2.55.12-.7-.66-.78-1.77-.12-2.51Zm-6.83,13.09c-.66.74-1.77.78-2.47.16-.78-.66-.82-1.81-.16-2.55.62-.7,1.77-.78,2.51-.12.7.66.78,1.77.12,2.51Zm4.36-15.27c-1.65,1.81-.7,3.13-3.38,6.13-2.84,3.21-4.61,2.84-6.13,4.57-1.85,2.1-1.65,5.31.45,7.21,2.1,1.85,5.31,1.65,7.16-.45,1.52-1.69.99-3.46,3.87-6.71,2.64-2.96,3.99-2.14,5.64-3.99,1.85-2.1,1.65-5.31-.45-7.21-2.1-1.85-5.31-1.65-7.16.45"/>
  <path class="cls-8" d="m598.28,340.08c1.81-.21,3.75.33,5.23,1.65.29.25.54.45.74.74-.29-3.29-1.77-5.6-4.08-7.29.12,1.56-.37,3.13-1.44,4.36-.16.21-.29.37-.45.54"/>
  <path class="cls-8" d="m595.6,336.83c-.66.78-1.77.82-2.51.21-.74-.66-.82-1.81-.16-2.51.66-.78,1.77-.86,2.51-.21s.82,1.77.16,2.51Zm-5.19-4.53c-1.56,1.89-.66,3.17-3.29,6.22-2.14,2.47-3.66,2.84-4.94,3.62.66.58,1.19,1.32,1.61,2.1l.33.66c.62-.33,1.4-.25,1.94.25.74.66.82,1.77.16,2.51-.12.16-.33.29-.49.37.45,1.11.66,2.22.62,3.33.91-.25,1.73-.78,2.39-1.52,1.48-1.73.95-3.46,3.79-6.75,2.59-3.01,3.95-2.22,5.6-4.08,1.81-2.1,1.61-5.35-.49-7.16-2.14-1.85-5.35-1.65-7.21.45"/>
  <path class="cls-8" d="m591.2,346.63c-.37.78-.58,1.56-.95,2.35-.25.49-.54.95-.91,1.4-.82.99-1.94,1.61-3.13,1.89-.04.41-.16.78-.29,1.19.25.29.54.54.78.78,1.28-.08,2.55.12,3.79.7.74.33,1.4.78,1.98,1.32.33-.04.7-.08,1.07-.12l1.81-3.21c-.33-.21-.66-.45-.95-.7-2.26-2.02-2.92-5.15-1.89-7.82-.54.7-.95,1.44-1.32,2.22"/>
  <path class="cls-8" d="m487.15,455.24c-.74-.66-.74-1.81-.08-2.51.66-.74,1.77-.78,2.51-.08.74.66.78,1.77.08,2.51-.66.7-1.77.74-2.51.08Zm4.94,2.18c1.56-1.69,1.07-3.46,4.03-6.59.45-.54.91-.91,1.28-1.24-2.22.82-4.73,1.07-7.37.74-1.24-.16-2.35-.62-3.33-1.28-.74.37-1.4.7-2.06,1.4-1.89,2.06-1.81,5.27.25,7.21s5.27,1.81,7.21-.25"/>
  <path class="cls-8" d="m478.71,458.62c1.4.04,2.76.58,3.83,1.56,1.07,1.03,1.69,2.35,1.85,3.75.41-.78.99-1.61,1.94-2.59.58-.66,1.11-1.11,1.61-1.44-1.28-.12-2.59-.62-3.62-1.61s-1.65-2.22-1.85-3.54c-.33.54-.74,1.11-1.4,1.81-.86.95-1.65,1.56-2.35,2.06"/>
  <path class="cls-8" d="m479.78,466.07c-.66.7-1.81.74-2.51.04-.7-.66-.74-1.77-.08-2.51.7-.7,1.81-.74,2.51-.04.74.66.74,1.77.08,2.51Zm-9.88,10.38c-.66.7-1.77.74-2.51.04-.7-.66-.74-1.81-.04-2.51.66-.74,1.77-.74,2.51-.08.7.7.74,1.81.04,2.55Zm12.1-15.27c-2.02-1.98-5.27-1.89-7.21.12-1.69,1.77-.82,3.13-3.58,6.05-2.96,3.13-4.69,2.68-6.26,4.32-1.98,2.06-1.89,5.27.16,7.21,2.02,1.98,5.23,1.85,7.16-.16,1.61-1.65,1.11-3.42,4.12-6.55,2.72-2.88,4.08-2.02,5.76-3.79,1.94-2.06,1.85-5.31-.16-7.21"/>
  <path class="cls-8" d="m474.92,475.67c-.37.74-.66,1.52-1.03,2.26-.25.54-.58.95-.99,1.36-1.19,1.28-2.8,1.89-4.41,1.85,1.98,2.84,4.65,4.57,8.32,4.12l1.98-3.17c-.33-.21-.62-.45-.91-.7-2.18-2.1-2.72-5.27-1.52-7.91-.58.66-1.03,1.36-1.44,2.18"/>
  <path class="cls-8" d="m487.48,471.3c.25.25.45.49.7.78-.16-3.29-1.52-5.68-3.75-7.45.04,1.56-.49,3.09-1.65,4.32-.16.16-.33.33-.49.45,1.85-.12,3.75.54,5.19,1.89"/>
  <path class="cls-8" d="m466.48,482.58c.62-.66,1.15-1.11,1.69-1.44-1.32-.12-2.59-.66-3.66-1.65-.99-.99-1.61-2.26-1.77-3.54-.33.54-.78,1.11-1.44,1.81-.86.95-1.65,1.52-2.35,1.98,1.36.08,2.72.62,3.79,1.65s1.69,2.39,1.81,3.75c.45-.74,1.03-1.61,1.94-2.55"/>
  <path class="cls-8" d="m444.7,500.37c-1.07-.99-1.65-2.26-1.81-3.58-.33.58-.78,1.15-1.44,1.81-.91.95-1.65,1.56-2.35,2.02,1.36.08,2.72.62,3.79,1.65s1.69,2.35,1.81,3.75c.41-.78,1.03-1.61,1.94-2.59.62-.62,1.15-1.07,1.65-1.4-1.32-.12-2.59-.66-3.58-1.65"/>
  <path class="cls-8" d="m447.54,497.36c-.7-.7-.7-1.81-.04-2.51.66-.74,1.81-.78,2.51-.08s.74,1.81.04,2.51c-.66.7-1.77.74-2.51.08Zm9.84-12.89c.66-.74,1.77-.74,2.51-.08.7.7.7,1.81.04,2.51s-1.81.74-2.51.08c-.7-.7-.74-1.81-.04-2.51Zm-4.94,15.07c1.61-1.61,1.11-3.38,4.12-6.55,2.76-2.88,4.08-2.02,5.76-3.79,1.94-2.06,1.89-5.27-.16-7.21-2.02-1.94-5.23-1.89-7.21.16-1.69,1.77-.78,3.09-3.58,6.05-2.96,3.09-4.69,2.64-6.26,4.32-1.94,2.02-1.89,5.27.16,7.21,2.02,1.94,5.27,1.85,7.16-.21"/>
  <path class="cls-8" d="m439.89,507.9c-.7.74-1.81.74-2.51.04s-.74-1.81-.04-2.51,1.81-.74,2.51-.04.7,1.81.04,2.51Zm-10,10.25c-.66.7-1.81.74-2.51.04s-.7-1.81,0-2.51c.66-.7,1.77-.74,2.47-.04s.74,1.81.04,2.51Zm12.27-15.15c-2.02-1.94-5.23-1.89-7.16.12-1.73,1.73-.86,3.09-3.71,5.97-2.96,3.09-4.69,2.64-6.3,4.28-1.98,1.98-1.94,5.23.08,7.21,2.02,1.94,5.23,1.94,7.21-.08,1.56-1.65,1.15-3.42,4.16-6.51,2.8-2.88,4.08-2.02,5.81-3.75,1.98-2.02,1.94-5.27-.08-7.25"/>
  <path class="cls-8" d="m426.42,524.29c.62-.66,1.15-1.11,1.65-1.48-1.28-.08-2.59-.62-3.58-1.61s-1.61-2.31-1.77-3.62c-.33.54-.78,1.15-1.44,1.81-.62.62-1.15,1.11-1.69,1.48l.41.66c.99.25,1.89.74,2.68,1.52,1.07,1.03,1.65,2.39,1.73,3.75.45-.74,1.07-1.56,2.02-2.51"/>
  <path class="cls-8" d="m434.9,517.41c-.37.74-.66,1.56-1.07,2.31-.25.49-.58.95-.95,1.36-1.24,1.24-2.84,1.81-4.45,1.77,1.94,2.88,4.57,4.61,8.28,4.2l1.98-3.09c-.33-.21-.62-.49-.86-.78-2.18-2.1-2.68-5.27-1.48-7.91-.54.66-1.03,1.36-1.44,2.14"/>
  <path class="cls-8" d="m448.2,514c-.12-3.25-1.48-5.68-3.66-7.49.04,1.56-.54,3.13-1.69,4.32-.16.16-.33.33-.54.45,1.89-.08,3.75.58,5.19,1.98.25.25.49.49.7.74"/>
  <path class="cls-8" d="m421.94,524c-.29-.29-.62-.58-.99-.74.95,1.73,1.77,3.5,2.51,5.27.25-1.61-.25-3.29-1.52-4.53"/>
  <path class="cls-8" d="m140.11,573.9c-1.69,1.69-1.69,4.41,0,6.09,1.69,1.65,4.41,1.65,6.09,0,1.65-1.69,1.65-4.41,0-6.09-1.69-1.69-4.41-1.69-6.09,0"/>
  <g class="cls-7">
    <path class="cls-8" d="m1002.43,847.99c-15.93-58.09-36.19-114.91-54.8-172.18.49-6.13-.82-11.49-5.02-15.56-17.83,18.16-35.66,36.31-53.52,54.43,4.24,4.78,9.39,7.78,18.65,6.05,12.8,8.89,48.13,100.46,55.75,119.77,6.09,15.48-1.56,29.23-16.51,42.57-11.08,9.88-15.07,6.18-25.61-5.89l-88.15-101c-6.83,11.61-13.63,23.18-20.46,34.75l107.05,108.82c12.02,12.27,30.34,10.87,39.73,1.19l29.15-29.97c10.91-11.24,18.53-25.61,13.75-42.98"/>
  </g>
  <path class="cls-8" d="m856.92,569.62c4.03-4.03,10.54-4.03,14.58,0,4.03,4.03,4.03,10.58,0,14.62s-10.54,4.03-14.58,0-4.03-10.58,0-14.62Zm-32.4,171.07l34.34-130.19c37.8,11.28,59.74-50.48,17.95-67.98,9.1-55.87,22.44-109.68,13.5-158.06-5.97-32.28-33.1-26.39-54.22-14.16-15.97,9.22-33.02,22.56-43.81,31.17l23.43,20.38c35.49-31.79,46.07-34.42,41.87,17.09-6.63,81.36-46.24,177.74-69.09,253.21l-22.27,25.77-22.69,26.27,65.26,65.42,30.06-56.2-14.33-12.72"/>
  <path class="cls-8" d="m798.42,617.09l8.28,9.51c6.92-20.55,13.83-41.09,20.22-61.84,6.55-21.2,12.64-42.61,17.62-64.27,3.29-14.29,6.09-28.82,8.07-43.44l-72.83-63.24c-7.16,28.53-5.76,61.35-3.83,88.69.66.58,1.28,1.24,1.85,1.89,7.66,8.69,6.83,22.07-1.85,29.73-1.15,1.03-2.35,1.85-3.62,2.59l22.36,40.1c10.83,18.9,11.36,38.83,3.95,59.54l-.21.74"/>
  <path class="cls-8" d="m880.1,540.72c13.79,6.63,22.32,19.06,22.36,34.75,0,13.63-6.79,27.87-18.69,35-7.04,4.2-14.9,5.31-22.77,3.66l-15.19,57.6,31.33,36.15c2.59,5.76,5.72,8.48,9.3,8.85-.99-1.32-.91-3.17.29-4.36,17.83-18.16,35.66-36.31,53.52-54.43,1.03-1.11,2.64-1.32,3.91-.66,11.53-16.76,21.66-34.91,31.09-54.18,12.6-25.69.29-39.28-30.06-65.63l-56.04-48.67c-2.88,17.33-6.18,34.63-9.06,51.92"/>
  <path class="cls-8" d="m743.16,724.02l15.81-14.58c5.93-5.48,9.39-12.64,11.36-20.17l18.53-69.99c7.41-20.71,7.16-40.39-3.66-59.29l-22.69-40.64c-6.01.16-12.02-2.22-16.26-7.08-7.66-8.69-6.83-22.11,1.85-29.73,0-.04.04-.04.04-.08-1.48-38.74-2.55-77.53-2.26-116.31.04-3.83.21-7.58.49-11.2l-1.94-1.89c-45.95,49.7-89.8,101.45-137.85,149.09-20.13,19.97-32.07,39.4-13.38,62.5l124.18,153.2c12.15,15.03,17.58,13.75,25.77,6.18"/>
  <path class="cls-8" d="m766.14,503c-2.59,2.26-6.51,2.02-8.81-.58-2.26-2.55-2.02-6.51.58-8.77,2.55-2.26,6.51-2.06,8.77.54s2.06,6.55-.54,8.81Zm-15.65-136.82c-.29,40.14.82,78.56,2.35,118.45-.58.41-1.15.82-1.69,1.36-6.83,6.01-7.49,16.39-1.48,23.22,6.05,6.83,16.43,7.49,23.22,1.44,6.79-6.01,7.45-16.43,1.44-23.22-.86-.99-1.85-1.85-2.84-2.59-5.06-70.61-2.59-136.98,66.12-162.26,7.86-2.88,11.98-7.58,10.54-16.3-1.44-8.89-3.29-17.7-5.76-26.35-3.01-10.46-12.76-12.43-25.98-7.45-37.26,13.96-65.55,40.55-65.92,93.71"/>
  <path class="cls-8" d="m551.09,403.45l33.51,39.57-16.72,14.41-33.64-39.24,33.18,35.45,13.5-11.53-29.85-38.66ZM271.53,85.8c-2.96,2.96-7.78,2.96-10.75,0s-2.96-7.78,0-10.75c2.96-3.01,7.78-3.01,10.75,0,2.96,2.96,2.96,7.78,0,10.75Zm-47.84.16c101,144.23,229.29,286.93,365.94,431.98,4.08-6.09,9.39-11.94,15.11-17.62,12.35-12.23,24.37-24.7,36.23-37.38-110.59-148.84-231.39-287.75-357.58-420.91-39.57-41.79-92.56-3.01-59.7,43.93"/>
  <path class="cls-8" d="m275.16,25.98c-.95,1.15-2.18,1.89-3.54,2.14.78.37,1.61.86,2.64,1.65.74.62,1.24,1.11,1.65,1.61,0-1.32.41-2.68,1.32-3.75.86-1.15,2.06-1.85,3.33-2.14-.54-.29-1.15-.62-1.85-1.19-1.03-.82-1.77-1.61-2.26-2.26.04,1.36-.37,2.8-1.28,3.95"/>
  <path class="cls-8" d="m280.51,30.1c.66-.74,1.77-.82,2.51-.16s.82,1.81.16,2.51c-.66.74-1.77.82-2.51.16s-.82-1.77-.16-2.51Zm10.7,9.51c.66-.74,1.77-.82,2.51-.16s.82,1.77.16,2.51-1.77.82-2.51.16-.82-1.77-.16-2.51Zm-13.18-11.69c-1.85,2.1-1.69,5.31.41,7.16,1.77,1.52,3.42.95,6.63,3.83,3.05,2.64,2.26,4.08,4.08,5.68,2.1,1.89,5.35,1.69,7.21-.41s1.65-5.35-.45-7.21c-1.81-1.65-3.09-.66-6.05-3.29-3.25-2.88-2.92-4.69-4.65-6.22-2.1-1.85-5.27-1.65-7.16.45"/>
  <path class="cls-8" d="m649.45,443.8l-1.61-3.33c-3.62-.82-6.42.58-8.73,3.17,1.61.16,3.13.95,4.16,2.35.37.45.62.91.82,1.44.33.78.49,1.61.82,2.39.29.82.7,1.61,1.15,2.31-.86-2.72,0-5.85,2.39-7.7.33-.21.62-.45.99-.62"/>
  <path class="cls-8" d="m637.51,448.16c.78-.62,1.89-.45,2.51.33.58.78.45,1.89-.37,2.51-.74.58-1.85.45-2.47-.33s-.45-1.94.33-2.51Zm2.8,9.51c1.4,1.77,1.69,2.92,1.94,3.95,1.94-2.06,3.83-4.12,5.76-6.18-.62-.41-1.28-1.03-2.02-2.02-2.64-3.46-1.98-5.15-3.33-6.96-1.73-2.22-4.9-2.64-7.16-.95-2.22,1.73-2.64,4.9-.95,7.16,1.44,1.81,3.17,1.56,5.76,4.98"/>
  <path class="cls-8" d="m631.59,446.23c.58.78.99,1.4,1.24,1.98.33-1.28,1.03-2.47,2.18-3.33,1.11-.86,2.47-1.28,3.75-1.24-.45-.37-.95-.91-1.48-1.61-.82-1.07-1.32-1.98-1.65-2.76-.29,1.36-1.03,2.64-2.22,3.5-1.15.91-2.55,1.32-3.91,1.24.62.54,1.32,1.19,2.1,2.22"/>
  <path class="cls-8" d="m620.02,425.31c.78-.62,1.94-.49,2.51.33.62.74.45,1.89-.33,2.47-.78.62-1.89.45-2.51-.33-.58-.78-.45-1.89.33-2.47Zm8.69,11.36c.82-.62,1.94-.45,2.51.33.62.78.45,1.89-.33,2.51-.78.58-1.89.41-2.51-.33-.58-.82-.41-1.94.33-2.51Zm-5.85-1.89c2.43,3.21,1.44,4.45,2.92,6.38,1.69,2.22,4.9,2.68,7.12.95,2.22-1.69,2.64-4.9.95-7.12-1.52-1.98-2.92-1.24-5.35-4.41-2.59-3.46-1.98-5.19-3.33-6.96-1.73-2.26-4.94-2.68-7.12-.95-2.26,1.69-2.68,4.9-.95,7.12,1.36,1.85,3.13,1.56,5.76,4.98"/>
  <path class="cls-8" d="m614.09,423.38c.58.74.95,1.36,1.24,1.98.29-1.32,1.03-2.51,2.18-3.38,1.11-.86,2.43-1.28,3.75-1.24-.45-.37-.95-.91-1.48-1.61-.82-1.07-1.32-1.94-1.65-2.76-.29,1.36-1.03,2.64-2.22,3.54-1.15.91-2.55,1.28-3.95,1.19.66.54,1.36,1.24,2.14,2.26"/>
  <path class="cls-8" d="m596.34,399.66c.58.74.99,1.4,1.24,1.94.33-1.28,1.03-2.47,2.18-3.33,1.11-.86,2.47-1.24,3.75-1.19-.45-.41-.95-.95-1.48-1.65-.82-1.07-1.32-1.98-1.65-2.76-.29,1.36-1.03,2.64-2.22,3.54-1.15.91-2.59,1.28-3.95,1.19.66.54,1.36,1.24,2.14,2.26"/>
  <path class="cls-8" d="m578.84,376.77c.58.74.95,1.4,1.24,1.98.29-1.28,1.03-2.47,2.18-3.38,1.11-.86,2.43-1.24,3.75-1.24-.45-.37-.95-.86-1.48-1.56-.82-1.07-1.32-1.98-1.65-2.8-.29,1.4-1.03,2.64-2.22,3.54-1.15.91-2.55,1.32-3.95,1.24.66.54,1.36,1.19,2.14,2.22"/>
  <path class="cls-8" d="m584.77,378.7c.78-.62,1.89-.45,2.51.33.58.78.45,1.89-.33,2.51-.78.58-1.89.45-2.51-.33-.58-.82-.45-1.94.33-2.51Zm8.69,11.36c.82-.58,1.89-.45,2.51.33s.45,1.89-.33,2.51c-.78.58-1.89.45-2.51-.33-.58-.78-.41-1.89.33-2.51Zm-5.85-1.85c2.43,3.21,1.44,4.45,2.92,6.34,1.69,2.26,4.9,2.68,7.12.95,2.22-1.69,2.64-4.9.91-7.12-1.48-1.98-2.88-1.24-5.31-4.41-2.59-3.46-1.98-5.15-3.38-6.96-1.69-2.26-4.9-2.64-7.12-.95-2.22,1.73-2.64,4.9-.91,7.16,1.36,1.81,3.13,1.56,5.76,4.98"/>
  <path class="cls-8" d="m613.22,397.85c.29-.25.62-.45.99-.66l-1.65-3.29c-3.58-.86-6.42.58-8.69,3.17,1.61.12,3.13.95,4.16,2.31.37.45.62.91.82,1.48.33.74.49,1.56.78,2.39.33.82.74,1.56,1.19,2.26-.86-2.72,0-5.85,2.39-7.66"/>
  <path class="cls-8" d="m622.44,408.18c-.25.25-.49.49-.78.7-1.56,1.24-3.54,1.65-5.35,1.36.16.12.29.33.45.49.99,1.32,1.36,2.92,1.15,4.45,2.39-1.48,4.03-3.75,4.53-7"/>
  <path class="cls-8" d="m602.27,401.55c.78-.58,1.89-.45,2.47.33.62.78.49,1.89-.33,2.51-.74.58-1.89.45-2.47-.33-.62-.78-.45-1.89.33-2.51Zm8.69,11.36c.78-.58,1.89-.45,2.51.33s.45,1.94-.33,2.51c-.78.62-1.89.45-2.51-.33-.58-.78-.45-1.89.33-2.51Zm-5.89-1.85c2.47,3.21,1.44,4.45,2.92,6.38,1.73,2.22,4.9,2.64,7.16.95,2.22-1.73,2.64-4.9.95-7.16-1.52-1.94-2.92-1.24-5.35-4.41-2.64-3.42-1.98-5.15-3.38-6.92-1.69-2.26-4.9-2.68-7.12-.95-2.22,1.69-2.64,4.9-.95,7.12,1.4,1.81,3.17,1.56,5.76,4.98"/>
  <path class="cls-8" d="m561.02,353.96c.62.7.99,1.36,1.28,1.94.29-1.32.99-2.51,2.1-3.42,1.07-.91,2.39-1.32,3.75-1.32-.49-.41-.99-.91-1.56-1.61-.82-1.03-1.36-1.94-1.73-2.72-.25,1.4-.95,2.68-2.1,3.62-1.15.91-2.55,1.36-3.91,1.32.66.49,1.4,1.15,2.18,2.18"/>
  <path class="cls-8" d="m577.86,351.69c.29-.25.62-.49.95-.66l-1.73-3.29c-3.62-.74-6.38.74-8.61,3.42,1.61.08,3.17.82,4.24,2.18.37.45.66.91.86,1.44.33.78.54,1.61.86,2.39.33.82.74,1.56,1.24,2.26-.95-2.72-.21-5.85,2.18-7.74"/>
  <path class="cls-8" d="m581.27,363.96c.12.16.29.33.45.54,1.03,1.28,1.44,2.88,1.28,4.41,2.35-1.56,3.91-3.87,4.32-7.12-.25.25-.49.49-.74.7-1.56,1.28-3.5,1.77-5.31,1.48"/>
  <path class="cls-8" d="m548.91,333.29c.74-.62,1.89-.49,2.51.29.62.74.49,1.89-.29,2.51-.74.62-1.85.49-2.51-.29-.62-.74-.49-1.89.29-2.51Zm8.98,11.16c.78-.62,1.89-.49,2.51.25.62.78.49,1.89-.25,2.51-.78.62-1.89.49-2.51-.25-.62-.78-.49-1.89.25-2.51Zm-5.93-1.73c2.55,3.13,1.56,4.41,3.13,6.3,1.73,2.18,4.94,2.51,7.12.78,2.18-1.77,2.51-4.98.78-7.16-1.56-1.94-2.96-1.19-5.48-4.28-2.72-3.38-2.1-5.11-3.54-6.88-1.77-2.18-4.94-2.51-7.16-.74-2.18,1.77-2.51,4.98-.74,7.16,1.44,1.77,3.21,1.48,5.89,4.82"/>
  <path class="cls-8" d="m566.99,355.69c.78-.62,1.89-.49,2.51.25.62.78.49,1.89-.29,2.51-.74.62-1.85.54-2.51-.25-.62-.74-.49-1.89.29-2.51Zm9.02,11.16c.74-.62,1.85-.54,2.47.25.66.74.49,1.89-.25,2.51-.78.62-1.89.49-2.51-.25-.62-.78-.49-1.89.29-2.51Zm-5.97-1.73c2.55,3.13,1.56,4.41,3.13,6.3,1.73,2.18,4.94,2.51,7.16.78,2.14-1.81,2.47-4.98.74-7.21-1.56-1.89-2.96-1.15-5.48-4.24-2.72-3.38-2.1-5.11-3.54-6.88-1.73-2.18-4.94-2.51-7.16-.78-2.18,1.81-2.47,4.98-.74,7.21,1.44,1.77,3.21,1.48,5.89,4.82"/>
  <path class="cls-8" d="m542.94,331.52c.58.74.99,1.4,1.28,1.94.25-1.28.95-2.51,2.06-3.38,1.11-.91,2.43-1.36,3.75-1.36-.45-.37-.99-.86-1.52-1.56-.86-1.07-1.36-1.94-1.73-2.72-.25,1.36-.95,2.64-2.14,3.58-1.11.95-2.51,1.4-3.91,1.32.7.49,1.4,1.19,2.22,2.18"/>
  <path class="cls-8" d="m531,310.73c.74-.66,1.89-.54,2.51.21.62.78.54,1.89-.25,2.51-.74.66-1.85.54-2.47-.21-.66-.74-.58-1.89.21-2.51Zm9.14,10.99c.74-.62,1.89-.49,2.51.25s.54,1.85-.25,2.51c-.74.62-1.89.54-2.51-.25-.62-.74-.54-1.85.25-2.51Zm-5.97-1.61c2.59,3.09,1.65,4.36,3.21,6.26,1.77,2.18,4.98,2.47,7.12.66,2.18-1.81,2.47-5.02.66-7.21-1.56-1.89-2.92-1.11-5.48-4.16-2.76-3.33-2.18-5.06-3.66-6.83-1.77-2.18-4.98-2.47-7.12-.66-2.18,1.81-2.47,5.02-.66,7.16,1.44,1.77,3.21,1.48,5.93,4.78"/>
  <path class="cls-8" d="m532.07,306.16c-.49-.37-.99-.86-1.56-1.56-.86-1.03-1.4-1.89-1.77-2.68-.21,1.36-.91,2.68-2.06,3.62-1.11.95-2.51,1.36-3.87,1.36.66.49,1.36,1.15,2.22,2.14.58.74.99,1.36,1.28,1.89.25-1.28.95-2.51,2.06-3.42,1.07-.91,2.39-1.36,3.71-1.36"/>
  <path class="cls-8" d="m551.42,316.53c-.25.25-.49.49-.74.7-1.56,1.28-3.46,1.81-5.31,1.56.16.16.33.33.45.49,1.07,1.32,1.52,2.88,1.36,4.41,2.35-1.61,3.87-3.91,4.24-7.16"/>
  <path class="cls-8" d="m521.74,299.61c.78-.66,1.89-.54,2.51.21.66.74.54,1.89-.21,2.51-.78.62-1.89.54-2.51-.21-.62-.78-.54-1.89.21-2.51Zm-6.83-8.28c-.78.62-1.89.49-2.51-.25-.66-.74-.54-1.89.21-2.51.78-.62,1.89-.54,2.51.25.62.74.54,1.85-.21,2.51Zm-4.41-5.31c-2.18,1.81-2.47,5.02-.66,7.16,1.48,1.77,3.21,1.44,5.97,4.78,2.55,3.09,1.61,4.36,3.17,6.26,1.81,2.14,5.02,2.47,7.16.66,2.18-1.81,2.47-5.02.66-7.16-1.56-1.89-2.96-1.15-5.48-4.2-2.8-3.33-2.22-5.06-3.66-6.83-1.81-2.14-5.02-2.47-7.16-.66"/>
  <path class="cls-8" d="m541.79,306.57c.29-.25.62-.49.95-.66l-1.73-3.25c-3.62-.74-6.42.78-8.61,3.5,1.61.08,3.17.78,4.28,2.14.37.45.66.91.86,1.4.37.78.58,1.61.91,2.39.33.82.78,1.56,1.28,2.26-.99-2.72-.25-5.85,2.06-7.78"/>
  <path class="cls-8" d="m512.1,282.44c-.82-1.03-1.36-1.94-1.77-2.68-.21,1.36-.91,2.64-2.06,3.58-1.11.95-2.51,1.4-3.91,1.4.7.49,1.44,1.15,2.26,2.14.58.74.99,1.36,1.28,1.89.29-1.28.95-2.51,2.06-3.42,1.07-.91,2.39-1.36,3.71-1.36-.49-.41-.99-.86-1.56-1.56"/>
  <path class="cls-8" d="m470.27,244.61c.25-1.32.91-2.55,1.98-3.5,1.07-.91,2.35-1.4,3.66-1.44-.45-.37-.99-.86-1.56-1.52-.91-1.03-1.44-1.89-1.85-2.64-.16,1.36-.82,2.68-1.94,3.62-1.15.99-2.51,1.48-3.91,1.48.7.49,1.44,1.11,2.31,2.1.62.7,1.03,1.32,1.32,1.89"/>
  <path class="cls-8" d="m493.82,265.97c.78-.62,1.89-.54,2.51.21.66.74.58,1.85-.16,2.51s-1.85.58-2.51-.16c-.62-.74-.58-1.89.16-2.55Zm9.39,10.83c.74-.62,1.89-.54,2.51.16.66.74.58,1.89-.16,2.51-.74.66-1.85.62-2.51-.16-.66-.74-.58-1.85.16-2.51Zm-12.02-6.09c1.48,1.73,3.21,1.36,6.05,4.61,2.64,3.05,1.73,4.32,3.29,6.18,1.85,2.14,5.06,2.35,7.16.54,2.14-1.89,2.39-5.11.54-7.21-1.61-1.89-2.96-1.07-5.6-4.08-2.84-3.29-2.31-5.02-3.79-6.75-1.85-2.1-5.06-2.35-7.16-.49-2.14,1.85-2.35,5.06-.49,7.21"/>
  <path class="cls-8" d="m489.42,260.91c-1.11.99-2.51,1.44-3.87,1.44.66.49,1.44,1.11,2.26,2.1.62.74,1.03,1.36,1.36,1.89.21-1.32.86-2.55,1.94-3.5,1.07-.91,2.39-1.4,3.71-1.44-.49-.37-1.03-.82-1.61-1.52-.86-.99-1.4-1.85-1.81-2.64-.16,1.36-.86,2.68-1.98,3.66"/>
  <path class="cls-8" d="m477.48,244.44c.66.74.58,1.85-.16,2.51s-1.85.58-2.51-.16-.58-1.85.16-2.51,1.89-.58,2.51.16Zm6.88,10.62c.74-.66,1.85-.54,2.51.21.66.7.58,1.85-.16,2.51s-1.85.58-2.51-.21c-.66-.7-.58-1.85.16-2.51Zm-11.53-13.3c-2.14,1.85-2.35,5.06-.54,7.21,1.52,1.73,3.25,1.36,6.09,4.61,2.64,3.05,1.69,4.32,3.29,6.18,1.85,2.14,5.06,2.35,7.16.54,2.14-1.85,2.39-5.11.54-7.21-1.65-1.89-2.96-1.07-5.6-4.08-2.84-3.29-2.31-5.02-3.79-6.75-1.85-2.1-5.06-2.35-7.16-.49"/>
  <path class="cls-8" d="m508.85,274.25c1.11,1.28,1.56,2.84,1.44,4.36,2.31-1.65,3.79-3.95,4.08-7.25-.21.29-.45.54-.7.74-1.52,1.32-3.46,1.85-5.27,1.69.16.12.29.29.45.45"/>
  <path class="cls-8" d="m499.46,263.46c.37.41.66.91.91,1.4.37.78.62,1.56.95,2.35.37.78.82,1.52,1.32,2.22-1.03-2.68-.37-5.85,1.94-7.82.29-.25.58-.49.91-.66l-1.81-3.25c-3.66-.62-6.38.99-8.52,3.71,1.61.04,3.21.74,4.32,2.06"/>
  <path class="cls-8" d="m439.89,200.06c.66.74.58,1.85-.16,2.51-.74.62-1.89.54-2.51-.21-.66-.74-.58-1.85.21-2.51.74-.66,1.85-.54,2.47.21Zm6.79,10.66c.74-.62,1.89-.54,2.51.25.66.7.54,1.85-.16,2.51-.78.62-1.89.54-2.55-.25-.62-.7-.54-1.85.21-2.51Zm-11.4-13.38c-2.14,1.81-2.39,5.02-.58,7.16,1.48,1.77,3.21,1.44,6.01,4.69,2.64,3.05,1.69,4.36,3.25,6.22,1.85,2.14,5.06,2.39,7.16.58,2.14-1.85,2.43-5.06.58-7.21-1.61-1.89-2.96-1.07-5.56-4.12-2.8-3.29-2.26-5.02-3.75-6.75-1.81-2.14-5.02-2.39-7.12-.58"/>
  <path class="cls-8" d="m451.7,216.61c-1.15.95-2.51,1.44-3.91,1.44.7.45,1.44,1.11,2.26,2.1.62.74,1.03,1.36,1.36,1.89.21-1.28.91-2.51,1.98-3.46,1.07-.91,2.39-1.36,3.71-1.4-.49-.37-1.03-.86-1.61-1.52-.86-1.03-1.4-1.89-1.77-2.68-.21,1.36-.91,2.68-2.02,3.62"/>
  <path class="cls-8" d="m432.72,200.14c.21-1.32.91-2.55,1.98-3.46s2.39-1.4,3.66-1.44c-.45-.33-.95-.86-1.52-1.52-.91-1.03-1.44-1.89-1.81-2.68-.21,1.4-.91,2.68-2.02,3.66-1.11.95-2.51,1.44-3.87,1.4.66.49,1.4,1.15,2.22,2.14.62.7,1.03,1.36,1.36,1.89"/>
  <path class="cls-8" d="m472.41,234.56c2.31-1.65,3.83-3.99,4.16-7.25-.21.25-.49.49-.74.7-1.52,1.32-3.42,1.85-5.27,1.65.16.16.33.33.45.49,1.11,1.24,1.52,2.84,1.4,4.41"/>
  <path class="cls-8" d="m456.07,221.75c.74-.66,1.89-.54,2.51.21.66.74.54,1.89-.21,2.51-.74.66-1.85.54-2.51-.21-.62-.74-.54-1.89.21-2.51Zm9.3,10.91c.74-.66,1.85-.58,2.47.16.66.78.58,1.89-.16,2.55-.74.62-1.89.54-2.51-.21-.66-.78-.58-1.89.21-2.51Zm-12.02-6.26c1.48,1.77,3.25,1.44,6.01,4.69,2.64,3.09,1.69,4.36,3.29,6.22,1.81,2.14,5.02,2.39,7.16.58,2.14-1.85,2.39-5.06.54-7.21-1.56-1.85-2.92-1.07-5.52-4.12-2.8-3.29-2.26-5.02-3.75-6.79-1.81-2.1-5.02-2.35-7.16-.54s-2.39,5.02-.58,7.16"/>
  <path class="cls-8" d="m461.75,219.24c.33.45.62.91.86,1.44.37.74.58,1.56.95,2.35.33.82.78,1.52,1.28,2.22-1.03-2.68-.33-5.81,1.98-7.78.29-.25.62-.49.95-.7l-1.77-3.25c-3.66-.66-6.42.91-8.56,3.66,1.61.04,3.17.74,4.32,2.06"/>
  <path class="cls-8" d="m418.35,177.78c.78-.66,1.89-.58,2.55.16.62.74.58,1.85-.16,2.51s-1.85.58-2.51-.16-.58-1.89.12-2.51Zm9.47,10.75c.74-.66,1.85-.58,2.51.16s.58,1.85-.16,2.51-1.85.58-2.51-.16-.58-1.85.16-2.51Zm-12.1-6.05c1.52,1.73,3.25,1.36,6.09,4.61,2.68,3.01,1.73,4.32,3.38,6.13,1.85,2.14,5.06,2.35,7.16.45,2.1-1.85,2.31-5.06.45-7.16-1.61-1.85-2.96-1.03-5.6-4.03-2.84-3.25-2.35-5.02-3.83-6.71-1.85-2.14-5.06-2.35-7.21-.49-2.1,1.85-2.31,5.11-.45,7.21"/>
  <path class="cls-8" d="m401.88,156.29c.66.74.62,1.85-.12,2.51-.78.66-1.89.62-2.55-.16-.62-.74-.54-1.85.21-2.51.7-.66,1.85-.58,2.47.16Zm6.96,10.62c.74-.66,1.85-.58,2.51.12.62.78.58,1.89-.16,2.55-.74.62-1.85.54-2.51-.16-.66-.74-.58-1.85.16-2.51Zm-11.61-13.26c-2.14,1.85-2.35,5.06-.49,7.16,1.52,1.73,3.25,1.4,6.09,4.61,2.68,3.05,1.77,4.32,3.33,6.18,1.85,2.1,5.11,2.31,7.21.45s2.31-5.06.45-7.21c-1.61-1.85-2.96-1.03-5.6-4.03-2.88-3.25-2.35-4.98-3.83-6.71-1.85-2.1-5.06-2.31-7.16-.45"/>
  <path class="cls-8" d="m394.72,156.5c.21-1.32.86-2.55,1.94-3.5,1.03-.95,2.35-1.44,3.66-1.48-.49-.33-.99-.82-1.61-1.52-.86-.99-1.44-1.85-1.81-2.59-.21,1.36-.86,2.68-1.98,3.66-1.11.95-2.47,1.44-3.87,1.44.7.49,1.44,1.15,2.31,2.1.62.74,1.03,1.36,1.36,1.89"/>
  <path class="cls-8" d="m433.46,185.93c1.07,1.28,1.56,2.84,1.44,4.36,2.26-1.65,3.75-3.99,4.03-7.29-.21.29-.45.54-.7.74-1.52,1.36-3.42,1.89-5.27,1.73.16.12.33.29.49.45"/>
  <path class="cls-8" d="m423.99,175.19c.41.41.7.86.91,1.4.37.74.62,1.56.99,2.35.33.82.78,1.52,1.32,2.18-1.07-2.64-.41-5.81,1.85-7.82.29-.25.62-.45.91-.66l-1.81-3.21c-3.66-.62-6.38.99-8.48,3.75,1.61.04,3.21.7,4.32,2.02"/>
  <path class="cls-8" d="m413.91,172.68c-1.07.99-2.47,1.48-3.83,1.52.66.45,1.4,1.11,2.26,2.06.62.7,1.07,1.32,1.36,1.89.21-1.32.86-2.55,1.94-3.5s2.35-1.4,3.66-1.48c-.45-.37-.99-.86-1.61-1.48-.86-1.03-1.4-1.89-1.81-2.68-.16,1.4-.86,2.68-1.98,3.66"/>
  <path class="cls-8" d="m392.13,145.34c.66.74.62,1.85-.12,2.51-.7.66-1.85.62-2.51-.08-.66-.74-.62-1.89.12-2.51.74-.7,1.85-.62,2.51.08Zm-9.76-8.03c-.74.66-1.85.62-2.51-.12-.7-.74-.62-1.85.08-2.51.74-.66,1.85-.62,2.51.12s.62,1.85-.08,2.51Zm6.51,1.89c-2.92-3.21-2.43-4.98-3.99-6.67-1.85-2.06-5.11-2.18-7.16-.29s-2.22,5.11-.33,7.21c1.56,1.69,3.29,1.28,6.22,4.45,2.72,2.96,1.81,4.28,3.46,6.09,1.89,2.1,5.11,2.22,7.21.29,2.06-1.85,2.18-5.11.29-7.16-1.65-1.85-3.01-.99-5.68-3.91"/>
  <path class="cls-8" d="m395.17,142.54c1.15,1.19,1.65,2.8,1.56,4.32,2.26-1.73,3.66-4.08,3.91-7.37-.25.29-.45.49-.74.74-1.44,1.36-3.38,1.98-5.23,1.81.21.16.33.33.49.49"/>
  <path class="cls-8" d="m386.44,133.36c.37.74.66,1.56,1.03,2.35s.82,1.48,1.36,2.14c-1.11-2.64-.54-5.81,1.69-7.86.29-.25.62-.49.91-.7l-1.89-3.17c-3.66-.54-6.34,1.15-8.4,3.95,1.61,0,3.21.66,4.36,1.94.41.37.7.86.95,1.36"/>
  <path class="cls-8" d="m355.85,113.88c.16-1.28.78-2.55,1.85-3.5,1.03-.95,2.31-1.48,3.62-1.56-.49-.33-1.03-.82-1.61-1.48-.91-.99-1.48-1.81-1.94-2.59-.12,1.4-.74,2.72-1.85,3.75-1.11.95-2.43,1.48-3.83,1.52.7.45,1.44,1.11,2.35,2.06.62.7,1.07,1.28,1.4,1.81"/>
  <path class="cls-8" d="m360.51,113.47c.74-.7,1.85-.62,2.51.08.66.74.62,1.85-.08,2.51-.74.66-1.85.62-2.51-.08-.7-.74-.62-1.85.08-2.51Zm9.68,10.54c.7-.66,1.85-.62,2.51.12.66.7.62,1.85-.12,2.51-.7.66-1.85.62-2.51-.12s-.62-1.85.12-2.51Zm-12.23-5.81c1.56,1.69,3.29,1.28,6.22,4.45,2.72,3.01,1.81,4.32,3.46,6.09,1.89,2.1,5.11,2.22,7.21.33,2.06-1.89,2.18-5.15.29-7.21-1.65-1.81-3.01-.99-5.68-3.91-2.92-3.21-2.43-4.94-3.99-6.63-1.89-2.1-5.11-2.22-7.16-.33s-2.22,5.15-.33,7.21"/>
  <path class="cls-8" d="m371.54,131.26c.7.45,1.48,1.11,2.35,2.06.66.66,1.07,1.28,1.4,1.85.16-1.32.78-2.59,1.85-3.54,1.03-.99,2.35-1.48,3.66-1.56-.49-.37-1.03-.82-1.65-1.48-.91-.99-1.48-1.85-1.89-2.59-.16,1.36-.78,2.72-1.85,3.71-1.11,1.03-2.47,1.52-3.87,1.56"/>
  <path class="cls-8" d="m356.27,99.72c1.15,1.24,1.65,2.8,1.56,4.32,2.26-1.77,3.66-4.12,3.83-7.41-.21.25-.45.54-.7.74-1.44,1.36-3.33,1.98-5.19,1.89.16.12.33.29.49.45"/>
  <path class="cls-8" d="m353.26,102.56c.66.7.62,1.85-.12,2.51-.7.66-1.81.66-2.51-.08-.66-.7-.62-1.85.08-2.51.74-.66,1.85-.62,2.55.08Zm-9.88-7.95c-.74.66-1.85.66-2.51-.08-.7-.7-.66-1.85.08-2.51s1.85-.66,2.51.08c.66.7.66,1.85-.08,2.51Zm6.55,1.81c-2.96-3.17-2.47-4.9-4.03-6.59-1.94-2.06-5.15-2.14-7.21-.25-2.06,1.94-2.14,5.15-.25,7.21,1.61,1.69,3.29,1.28,6.26,4.41,2.76,2.92,1.85,4.28,3.54,6.05,1.89,2.06,5.11,2.18,7.16.25s2.14-5.15.25-7.21c-1.69-1.81-3.01-.95-5.72-3.87"/>
  <path class="cls-8" d="m321.31,70.98c.7-.66,1.85-.62,2.51.08s.62,1.85-.08,2.51c-.7.7-1.85.66-2.51-.08-.7-.7-.66-1.81.08-2.51Zm9.76,10.46c.74-.66,1.85-.62,2.51.08.7.74.66,1.85-.08,2.51-.7.7-1.85.66-2.51-.08-.66-.7-.62-1.85.08-2.51Zm-12.27-5.68c1.61,1.69,3.29,1.28,6.22,4.41,2.76,2.96,1.89,4.28,3.58,6.05,1.89,2.06,5.11,2.18,7.16.25,2.06-1.89,2.18-5.15.25-7.21-1.69-1.81-3.01-.95-5.72-3.87-2.96-3.17-2.51-4.94-4.08-6.59-1.89-2.06-5.11-2.14-7.16-.25-2.06,1.94-2.14,5.15-.25,7.21"/>
  <path class="cls-8" d="m320.45,64.89c-.91-.99-1.52-1.81-1.89-2.59-.16,1.4-.78,2.72-1.85,3.75-1.11.99-2.43,1.56-3.83,1.56.7.49,1.48,1.11,2.35,2.06.66.7,1.11,1.28,1.4,1.81.16-1.32.78-2.59,1.85-3.54,1.03-.95,2.31-1.48,3.62-1.56-.49-.37-1.03-.82-1.65-1.48"/>
  <path class="cls-8" d="m332.55,88.69c.66.45,1.44,1.07,2.35,2.02.62.7,1.07,1.28,1.4,1.81.16-1.32.78-2.55,1.81-3.54,1.03-.95,2.35-1.48,3.62-1.56-.45-.37-.99-.82-1.61-1.48-.95-.99-1.52-1.81-1.94-2.59-.12,1.4-.74,2.72-1.85,3.75-1.07.99-2.43,1.56-3.79,1.61"/>
  <path class="cls-8" d="m347.45,90.62c.37.74.62,1.56,1.03,2.35.37.74.82,1.48,1.4,2.14-1.15-2.64-.58-5.81,1.61-7.86.29-.29.58-.54.91-.74l-1.94-3.17c-3.66-.45-6.34,1.24-8.36,4.03,1.61,0,3.21.62,4.41,1.89.37.41.66.86.95,1.36"/>
  <path class="cls-8" d="m307.81,48.46c.37.78.66,1.56,1.03,2.35.41.78.91,1.44,1.44,2.1-1.19-2.59-.66-5.76,1.52-7.86.29-.29.58-.54.91-.74l-1.98-3.13c-3.71-.45-6.34,1.28-8.32,4.12,1.61-.04,3.21.58,4.41,1.85.41.37.7.82.99,1.32"/>
  <path class="cls-8" d="m292.86,46.69c.7.45,1.48,1.07,2.35,2.02.66.66,1.11,1.28,1.48,1.81.12-1.32.74-2.59,1.77-3.58.99-.99,2.26-1.52,3.58-1.65-.49-.29-1.03-.78-1.65-1.4-.95-.99-1.52-1.81-1.94-2.59-.12,1.4-.74,2.76-1.81,3.75-1.07,1.03-2.43,1.61-3.79,1.65"/>
  <path class="cls-8" d="m318.35,61.76c2.22-1.77,3.58-4.16,3.75-7.45-.21.29-.45.54-.7.78-1.44,1.4-3.33,2.02-5.19,1.89.21.16.33.33.54.49,1.11,1.19,1.65,2.76,1.61,4.28"/>
  <path class="cls-8" d="m311.22,60.28c.7-.66,1.81-.66,2.51.08.66.7.62,1.81-.08,2.51-.7.66-1.81.66-2.51-.04-.66-.74-.66-1.85.08-2.55Zm-7.45-7.74c-.7.66-1.85.62-2.51-.08s-.66-1.81.04-2.51c.74-.66,1.85-.66,2.51.08.7.7.66,1.81-.04,2.51Zm2.43-4.82c-1.94-2.06-5.15-2.1-7.16-.16s-2.1,5.19-.16,7.21c1.61,1.65,3.29,1.24,6.3,4.32,2.8,2.92,1.89,4.24,3.58,6.01,1.94,2.06,5.19,2.1,7.21.16s2.1-5.19.16-7.21c-1.73-1.77-3.05-.91-5.81-3.79-2.96-3.13-2.51-4.9-4.12-6.55"/>
  <g class="cls-4">
    <path class="cls-8" d="m258.07,12.23c.54.16,1.03.37,1.52.7.7.45,1.32.99,2.06,1.48.7.45,1.48.82,2.26,1.15-2.31-1.69-3.42-4.73-2.55-7.62.08-.37.25-.74.41-1.07l-3.29-1.77c-3.38,1.44-4.86,4.28-5.15,7.74,1.36-.86,3.05-1.11,4.73-.62"/>
  </g>
  <path class="cls-8" d="m254.69,17.42c.25-.95,1.28-1.48,2.18-1.19.95.25,1.52,1.28,1.24,2.18-.33.95-1.28,1.48-2.22,1.24-.95-.29-1.48-1.28-1.19-2.22Zm13.71,4.03c.25-.95,1.24-1.44,2.18-1.19.95.29,1.48,1.28,1.19,2.22s-1.24,1.48-2.18,1.19c-.95-.25-1.48-1.28-1.19-2.22Zm-13.46,1.36c2.22.66,3.46-.58,7.58.62,3.87,1.15,3.79,2.76,6.13,3.42,2.68.82,5.52-.74,6.3-3.42.82-2.68-.74-5.52-3.42-6.34-2.35-.7-3.09.7-6.92-.41-4.12-1.24-4.61-3.01-6.79-3.66-2.68-.78-5.52.78-6.3,3.46-.82,2.72.74,5.56,3.42,6.34"/>
  <path class="cls-8" d="m275.32,19.19c1.07-2.64,1.07-5.39-.45-8.32-.04.33-.08.7-.21,1.03-.58,1.94-1.89,3.42-3.54,4.24.21.04.41.08.66.16,1.56.45,2.84,1.52,3.54,2.88"/>
  <path class="cls-8" d="m247.12,16.76c-.16,1.48-.82,2.76-1.81,3.71.82-.12,1.81-.16,3.09,0,.91.04,1.65.25,2.26.41-.74-1.07-1.11-2.43-.95-3.87.12-1.4.78-2.64,1.69-3.58-.62.08-1.32.08-2.18-.04-1.36-.12-2.35-.37-3.17-.66.78,1.15,1.24,2.55,1.07,4.03"/>
  <path class="cls-8" d="m226.49,19.31c.91-.33,1.94.12,2.26,1.07.37.91-.12,1.94-1.07,2.26-.91.37-1.94-.12-2.26-1.03-.33-.95.12-1.98,1.07-2.31Zm13.38-4.98c.91-.33,1.94.16,2.31,1.07.33.95-.12,1.94-1.07,2.26-.91.37-1.94-.08-2.26-1.03-.37-.91.12-1.94,1.03-2.31Zm-10.99,11.45c2.14-.82,2.43-2.55,6.42-4.03,3.79-1.44,4.69-.08,6.96-.95,2.64-.95,3.99-3.91,3.01-6.55s-3.87-3.99-6.55-3.01c-2.31.86-2.02,2.43-5.76,3.79-4.03,1.52-5.52.41-7.62,1.19-2.64.95-3.99,3.91-3.01,6.55.95,2.64,3.87,3.99,6.55,3.01"/>
  <path class="cls-8" d="m219.98,26.39c.95,1.11,1.36,2.51,1.36,3.87.49-.66,1.15-1.36,2.14-2.22.74-.58,1.36-.99,1.94-1.28-1.32-.29-2.55-.95-3.46-2.06s-1.32-2.39-1.32-3.71c-.41.45-.86.95-1.56,1.52-1.07.86-1.94,1.4-2.68,1.77,1.32.25,2.64.91,3.58,2.1"/>
  <path class="cls-8" d="m209.86,28.37l.25-.62c.7-1.52,1.98-2.55,3.42-3.09-2.43-1.44-5.15-1.85-8.28-.82.33.08.66.21.95.37,1.81.86,3.09,2.39,3.66,4.16"/>
  <path class="cls-8" d="m213.85,29.52c.45-.86,1.48-1.28,2.39-.86.86.45,1.24,1.52.82,2.39-.41.91-1.48,1.28-2.35.86-.91-.45-1.28-1.48-.86-2.39Zm-2.88,14.49c-.45.86-1.52,1.28-2.39.82-.91-.41-1.28-1.48-.86-2.39.45-.86,1.48-1.24,2.39-.82.86.41,1.28,1.48.86,2.39Zm-.08-15.89c-1.07,2.22.21,3.13-1.48,6.75-1.85,3.91-3.66,4.12-4.65,6.18-1.19,2.55-.12,5.6,2.43,6.79,2.51,1.19,5.56.12,6.75-2.43.99-2.06-.04-3.54,1.81-7.41,1.73-3.66,3.25-3.33,4.32-5.56,1.19-2.51.12-5.56-2.43-6.75-2.51-1.19-5.56-.12-6.75,2.43"/>
  <path class="cls-8" d="m203.84,45.5c-.62-1.48-.62-3.25.12-4.82.25-.49.58-.95.95-1.36.54-.66,1.19-1.19,1.77-1.81.58-.66,1.07-1.36,1.48-2.1-2.02,2.02-5.15,2.68-7.91,1.4-.33-.21-.7-.37-.99-.62l-2.22,2.96c.86,3.62,3.46,5.48,6.79,6.34"/>
  <path class="cls-8" d="m212.04,48.79c-1.19.58-2.59.78-3.95.49-1.36-.33-2.55-1.11-3.33-2.14-.04.62-.12,1.32-.29,2.18-.33,1.32-.7,2.26-1.07,3.05,1.19-.66,2.68-.91,4.12-.58s2.64,1.15,3.46,2.26c0-.82.04-1.81.33-3.09.25-.91.49-1.61.74-2.18"/>
  <path class="cls-8" d="m205.78,55.99c.95-.16,1.85.54,2.02,1.48.12.99-.49,1.89-1.48,2.02-.99.16-1.89-.49-2.02-1.48-.16-.95.49-1.85,1.48-2.02Zm4.2,15.65c.16.99-.54,1.89-1.48,2.02-.99.16-1.89-.49-2.06-1.48-.12-.95.54-1.85,1.48-2.02.99-.16,1.89.54,2.06,1.48Zm-6.79,1.03c.45,2.8,3.05,4.69,5.81,4.28,2.8-.45,4.69-3.05,4.24-5.81-.33-2.26-1.98-2.88-2.64-7.16-.62-3.99.82-4.57.45-7-.41-2.8-3.01-4.69-5.81-4.24-2.76.41-4.65,3.01-4.24,5.81.37,2.43,1.98,2.47,2.55,6.42.7,4.28-.7,5.48-.37,7.7"/>
  <path class="cls-8" d="m210.68,77.53c-1.32.54-2.72.58-3.95.16.33.49.66,1.15.99,1.94.54,1.28.74,2.26.86,3.13.62-1.24,1.69-2.26,3.05-2.84,1.4-.54,2.84-.54,4.16-.08-.49-.7-.99-1.52-1.48-2.76-.33-.86-.54-1.61-.66-2.22-.62,1.19-1.65,2.14-2.96,2.68"/>
  <path class="cls-8" d="m209.57,89.55c-.12-.21-.25-.37-.41-.58-.86-1.4-1.07-3.05-.7-4.53-2.55,1.28-4.36,3.33-5.19,6.51.29-.21.54-.41.82-.62,1.73-1.03,3.71-1.28,5.48-.78"/>
  <path class="cls-8" d="m220.73,103.8c-1.56-.29-3.05-1.19-3.95-2.68-.33-.49-.54-.99-.66-1.52-.25-.82-.37-1.65-.58-2.47-.25-.86-.58-1.65-.95-2.39.62,2.8-.58,5.81-3.13,7.41-.33.21-.66.37-1.03.54l1.32,3.46c3.5,1.19,6.46.04,8.98-2.35"/>
  <path class="cls-8" d="m213.27,84.32c.82-.54,1.94-.29,2.43.58.54.82.29,1.89-.54,2.43-.86.54-1.94.29-2.47-.54-.49-.86-.25-1.94.58-2.47Zm7.58,12.15c.82-.54,1.94-.29,2.43.58.54.82.29,1.94-.54,2.43-.82.54-1.94.29-2.47-.54-.49-.82-.25-1.98.58-2.47Zm-6.05-3.05c2.26,3.71,1.48,5.31,2.68,7.25,1.48,2.39,4.61,3.09,7,1.61s3.13-4.61,1.65-7c-1.24-1.94-3.01-1.89-5.27-5.52-2.14-3.42-1.03-4.57-2.31-6.63-1.52-2.39-4.65-3.13-7.04-1.65-2.35,1.52-3.09,4.65-1.61,7.04,1.32,2.1,2.76,1.52,4.9,4.9"/>
  <path class="cls-8" d="m225.42,103.14c-1.19.74-2.55,1.03-3.83.86.37.41.82.99,1.32,1.73.7,1.15,1.11,2.1,1.4,2.92.37-1.36,1.24-2.51,2.51-3.29,1.24-.82,2.68-1.07,4.03-.86-.58-.58-1.24-1.36-1.94-2.43-.49-.82-.82-1.48-1.03-2.06-.41,1.24-1.24,2.35-2.47,3.13"/>
  <path class="cls-8" d="m265.93,149.91c-.66-.54-1.4-1.19-2.18-2.22-.58-.74-.99-1.4-1.24-1.94-.29,1.28-1.03,2.47-2.14,3.33-1.11.91-2.43,1.32-3.75,1.28.45.37.95.91,1.48,1.61.82,1.07,1.36,1.98,1.69,2.72.25-1.32,1.03-2.59,2.18-3.54,1.15-.91,2.55-1.32,3.95-1.24"/>
  <path class="cls-8" d="m237.61,122.82c-.58-.78-.45-1.89.33-2.51.74-.62,1.89-.49,2.51.29.58.78.45,1.89-.33,2.51s-1.89.45-2.51-.29Zm-6.3-10.99c-.78.62-1.89.45-2.51-.29-.58-.78-.45-1.89.33-2.51s1.89-.49,2.51.29c.58.78.45,1.89-.33,2.51Zm10.83,13.92c2.22-1.77,2.59-4.94.86-7.16-1.4-1.81-3.13-1.56-5.81-4.94-2.47-3.17-1.48-4.45-2.96-6.38-1.73-2.18-4.94-2.55-7.16-.86-2.18,1.77-2.59,4.94-.86,7.16,1.52,1.94,2.92,1.24,5.39,4.36,2.64,3.42,2.02,5.15,3.42,6.92,1.73,2.22,4.9,2.64,7.12.91"/>
  <path class="cls-8" d="m229.21,126.93c-.33.25-.66.45-.99.66l1.65,3.29c3.62.82,6.42-.62,8.69-3.25-1.61-.12-3.13-.91-4.2-2.26-.37-.45-.62-.95-.82-1.48-.33-.74-.54-1.56-.82-2.39-.33-.78-.74-1.56-1.19-2.26.91,2.72.08,5.85-2.31,7.7"/>
  <path class="cls-8" d="m246.83,131.71c.78-.58,1.89-.45,2.47.33.62.74.49,1.89-.29,2.51-.78.58-1.89.45-2.51-.33-.58-.78-.45-1.89.33-2.51Zm8.81,11.32c.74-.62,1.85-.49,2.47.29s.49,1.89-.33,2.51c-.74.58-1.85.45-2.47-.33-.58-.78-.45-1.89.33-2.47Zm-6.38-2.43c2.68,3.42,2.06,5.15,3.46,6.96,1.73,2.18,4.9,2.59,7.12.86s2.59-4.94.86-7.16c-1.4-1.81-3.17-1.52-5.81-4.94-2.47-3.17-1.48-4.41-2.96-6.34-1.73-2.22-4.94-2.64-7.16-.86-2.18,1.73-2.59,4.9-.86,7.12,1.52,1.98,2.92,1.24,5.35,4.36"/>
  <path class="cls-8" d="m226,114.58c-.16-.12-.29-.33-.45-.49-1.03-1.32-1.4-2.92-1.19-4.45-2.39,1.52-3.99,3.79-4.49,7,.25-.21.54-.45.78-.66,1.56-1.24,3.5-1.69,5.35-1.4"/>
  <path class="cls-8" d="m240.41,129.24c.82,1.07,1.32,1.98,1.69,2.76.25-1.36.99-2.64,2.18-3.54,1.15-.95,2.55-1.36,3.91-1.28-.66-.49-1.36-1.19-2.14-2.22-.58-.74-.99-1.4-1.24-1.94-.33,1.28-1.03,2.47-2.14,3.38-1.11.86-2.47,1.28-3.75,1.24.45.41.95.91,1.48,1.61"/>
  <path class="cls-8" d="m292.28,196.64c.45.37.95.86,1.52,1.61.82,1.07,1.32,1.94,1.69,2.72.25-1.36.99-2.64,2.14-3.54,1.19-.91,2.59-1.32,3.95-1.24-.66-.54-1.36-1.24-2.14-2.22-.62-.74-.99-1.4-1.28-1.98-.29,1.32-.99,2.51-2.1,3.38-1.15.86-2.47,1.28-3.79,1.28"/>
  <path class="cls-8" d="m264.86,173.21c-.33.25-.62.45-.99.62l1.69,3.33c3.58.78,6.42-.66,8.65-3.29-1.56-.08-3.13-.86-4.2-2.22-.33-.45-.62-.95-.82-1.48-.29-.78-.49-1.61-.78-2.39-.33-.82-.74-1.56-1.24-2.26.91,2.72.08,5.85-2.31,7.7"/>
  <path class="cls-8" d="m273.3,169.05c-.62-.78-.49-1.89.29-2.47.78-.62,1.89-.49,2.51.29.58.78.45,1.89-.33,2.51-.74.62-1.85.45-2.47-.33Zm-6.34-10.95c-.74.62-1.89.45-2.47-.33-.62-.78-.49-1.89.29-2.47.78-.62,1.89-.49,2.51.29s.49,1.89-.33,2.51Zm10.87,13.88c2.18-1.73,2.59-4.94.86-7.16-1.44-1.77-3.17-1.52-5.81-4.9-2.47-3.21-1.48-4.45-3.01-6.38-1.73-2.22-4.9-2.59-7.12-.86s-2.59,4.94-.86,7.16c1.48,1.94,2.88,1.19,5.35,4.32,2.68,3.42,2.02,5.15,3.42,6.96,1.73,2.22,4.94,2.59,7.16.86"/>
  <path class="cls-8" d="m276.06,175.52c.86,1.07,1.36,1.94,1.73,2.76.25-1.36.99-2.64,2.14-3.58,1.19-.91,2.55-1.32,3.95-1.24-.66-.54-1.36-1.19-2.14-2.22-.58-.74-.99-1.4-1.28-1.94-.29,1.28-1.03,2.47-2.14,3.33-1.11.91-2.43,1.28-3.75,1.28.45.37.95.91,1.48,1.61"/>
  <path class="cls-8" d="m282.48,177.99c.78-.62,1.89-.49,2.51.29s.45,1.89-.33,2.51c-.74.62-1.89.45-2.47-.33-.62-.74-.49-1.85.29-2.47Zm8.81,11.28c.78-.62,1.89-.45,2.51.33.58.74.45,1.89-.33,2.51-.74.58-1.89.45-2.51-.33-.58-.78-.45-1.89.33-2.51Zm-6.34-2.39c2.64,3.42,2.02,5.15,3.42,6.92,1.73,2.22,4.94,2.64,7.12.86,2.22-1.69,2.64-4.9.91-7.12-1.44-1.81-3.17-1.56-5.81-4.94-2.51-3.17-1.48-4.41-3.01-6.34-1.73-2.22-4.9-2.64-7.12-.86-2.22,1.69-2.59,4.9-.86,7.12,1.48,1.94,2.88,1.24,5.35,4.36"/>
  <path class="cls-8" d="m261.65,160.86c-.16-.16-.29-.33-.45-.49-.99-1.32-1.4-2.92-1.19-4.49-2.39,1.56-3.99,3.79-4.45,7.04.25-.25.49-.45.74-.66,1.61-1.28,3.54-1.69,5.35-1.4"/>
  <path class="cls-8" d="m291.83,208.29c1.52-1.28,3.46-1.77,5.31-1.52-.16-.16-.29-.33-.45-.49-1.07-1.28-1.48-2.88-1.32-4.41-2.35,1.56-3.87,3.87-4.28,7.16.25-.25.45-.54.74-.74"/>
  <path class="cls-8" d="m311.92,221.01c.91,1.07,1.4,1.94,1.77,2.72.25-1.36.95-2.68,2.1-3.62,1.11-.91,2.51-1.36,3.91-1.32-.7-.49-1.4-1.19-2.22-2.18-.62-.7-1.03-1.36-1.32-1.89-.25,1.28-.95,2.51-2.06,3.42-1.07.91-2.39,1.32-3.71,1.36.45.37.99.86,1.52,1.52"/>
  <path class="cls-8" d="m309.21,212.16c.78-.62,1.89-.54,2.51.25.66.74.54,1.89-.21,2.51-.78.62-1.89.49-2.51-.25-.66-.74-.54-1.89.21-2.51Zm-6.79-8.32c-.78.66-1.89.54-2.51-.21-.66-.78-.54-1.89.21-2.51.78-.66,1.89-.54,2.51.21.66.78.54,1.89-.21,2.51Zm11.2,13.63c2.14-1.77,2.47-4.98.66-7.16-1.44-1.81-3.21-1.48-5.93-4.78-2.55-3.13-1.61-4.41-3.13-6.3-1.81-2.14-5.02-2.47-7.21-.66-2.14,1.77-2.47,4.98-.66,7.16,1.56,1.89,2.96,1.15,5.48,4.2,2.76,3.38,2.14,5.11,3.62,6.83,1.77,2.18,4.98,2.51,7.16.7"/>
  <path class="cls-8" d="m318.43,223.32c.74-.62,1.89-.49,2.51.25.62.78.49,1.89-.25,2.51-.78.62-1.89.54-2.51-.25-.62-.74-.49-1.85.25-2.51Zm9.1,11.08c.74-.62,1.85-.54,2.51.25.62.74.49,1.85-.25,2.51-.78.62-1.89.54-2.51-.25s-.54-1.89.25-2.51Zm-6.42-2.22c2.76,3.33,2.18,5.06,3.62,6.83,1.77,2.18,4.98,2.47,7.16.7,2.14-1.81,2.47-5.02.7-7.16-1.48-1.77-3.21-1.48-5.97-4.78-2.55-3.13-1.61-4.41-3.17-6.3-1.77-2.14-4.98-2.47-7.12-.7-2.18,1.81-2.47,5.02-.7,7.16,1.56,1.94,2.96,1.15,5.48,4.24"/>
  <path class="cls-8" d="m328.72,241.72c.45.37.95.86,1.52,1.56.86,1.03,1.4,1.94,1.77,2.68.21-1.36.91-2.64,2.06-3.58s2.55-1.4,3.91-1.36c-.66-.49-1.4-1.15-2.22-2.18-.58-.7-.99-1.36-1.28-1.89-.29,1.32-.95,2.51-2.06,3.42-1.07.91-2.39,1.36-3.71,1.36"/>
  <path class="cls-8" d="m300.64,219.04c-.29.25-.58.45-.91.66l1.73,3.25c3.62.74,6.38-.78,8.61-3.5-1.61-.04-3.17-.78-4.28-2.14-.37-.41-.66-.91-.86-1.4-.33-.78-.58-1.61-.91-2.39-.33-.82-.74-1.56-1.24-2.22.99,2.68.25,5.81-2.14,7.74"/>
  <path class="cls-8" d="m354.95,267.87c.74-.62,1.85-.54,2.51.21.62.74.54,1.89-.25,2.55-.74.62-1.85.54-2.47-.25-.66-.74-.58-1.85.21-2.51Zm9.22,10.95c.74-.66,1.89-.58,2.51.21.62.74.54,1.85-.21,2.51-.74.62-1.85.54-2.51-.21-.62-.74-.54-1.89.21-2.51Zm-6.42-2.14c2.8,3.29,2.22,5.02,3.71,6.79,1.81,2.14,5.02,2.39,7.16.58s2.39-5.02.58-7.16c-1.48-1.77-3.21-1.44-5.97-4.69-2.64-3.09-1.69-4.36-3.25-6.22-1.81-2.18-5.02-2.43-7.16-.62s-2.43,5.02-.62,7.21c1.61,1.85,2.96,1.07,5.56,4.12"/>
  <path class="cls-8" d="m328.14,253.21c1.52-1.32,3.46-1.81,5.31-1.61l-.49-.49c-1.07-1.28-1.52-2.84-1.36-4.41-2.35,1.65-3.83,3.95-4.2,7.21.25-.25.49-.49.74-.7"/>
  <path class="cls-8" d="m348.44,265.69c.86,1.03,1.4,1.89,1.77,2.68.21-1.4.91-2.68,2.06-3.62,1.11-.99,2.51-1.44,3.87-1.44-.66-.45-1.4-1.11-2.26-2.14-.62-.7-.99-1.32-1.32-1.89-.21,1.32-.91,2.55-1.98,3.46s-2.39,1.36-3.71,1.4c.45.37.99.86,1.56,1.56"/>
  <path class="cls-8" d="m345.4,259.35c-.66-.74-.58-1.85.21-2.51.74-.62,1.85-.54,2.47.21.66.78.58,1.89-.16,2.51-.74.66-1.89.54-2.51-.21Zm-6.75-10.7c-.74.62-1.85.54-2.51-.25-.62-.7-.54-1.85.21-2.51.78-.62,1.89-.54,2.51.25.66.74.54,1.85-.21,2.51Zm11.36,13.42c2.18-1.77,2.43-5.02.62-7.16-1.48-1.77-3.21-1.4-6.01-4.69-2.59-3.09-1.69-4.36-3.21-6.22-1.85-2.18-5.06-2.43-7.21-.62-2.14,1.85-2.39,5.02-.58,7.21,1.61,1.89,2.96,1.07,5.56,4.12,2.8,3.33,2.22,5.06,3.71,6.79,1.81,2.14,4.98,2.43,7.12.58"/>
  <path class="cls-8" d="m372.49,283.18c-.62-.74-1.03-1.36-1.32-1.94-.25,1.32-.91,2.55-2.02,3.46-1.03.95-2.39,1.4-3.71,1.4.49.37,1.03.86,1.56,1.56.91,1.03,1.44,1.89,1.81,2.68.21-1.4.91-2.68,2.06-3.62,1.11-.99,2.47-1.44,3.87-1.44-.7-.45-1.44-1.11-2.26-2.1"/>
  <path class="cls-8" d="m337.12,263.79c-.29.29-.58.49-.91.7l1.77,3.25c3.62.66,6.38-.91,8.52-3.62-1.61-.04-3.17-.74-4.28-2.1-.37-.41-.66-.86-.86-1.4-.37-.78-.58-1.56-.95-2.35-.33-.82-.78-1.56-1.28-2.26,1.03,2.72.29,5.85-2.02,7.78"/>
  <path class="cls-8" d="m364.87,298.75c.25-.25.45-.49.7-.74,1.52-1.32,3.42-1.89,5.27-1.73-.16-.12-.33-.29-.49-.45-1.07-1.24-1.56-2.84-1.44-4.36-2.31,1.69-3.79,4.03-4.03,7.29"/>
  <path class="cls-8" d="m374.79,308.42c-.29.29-.58.49-.91.7l1.85,3.21c3.62.58,6.34-1.03,8.44-3.79-1.61-.04-3.21-.74-4.32-2.02-.41-.41-.7-.91-.95-1.4-.37-.74-.58-1.56-.95-2.35s-.82-1.52-1.32-2.18c1.07,2.64.41,5.81-1.85,7.82"/>
  <path class="cls-8" d="m385.46,303.93c-.74.66-1.85.58-2.51-.16s-.58-1.85.16-2.51,1.85-.58,2.51.16c.66.7.58,1.85-.16,2.51Zm-9.47-10.75c-.74.66-1.85.62-2.51-.12s-.58-1.89.12-2.55c.74-.66,1.85-.58,2.51.16s.62,1.89-.12,2.51Zm6.01,1.44c-2.68-3.01-1.77-4.32-3.38-6.13-1.89-2.1-5.11-2.31-7.21-.45s-2.31,5.11-.41,7.21c1.61,1.85,2.96,1.03,5.64,4.03,2.84,3.25,2.31,4.98,3.83,6.67,1.85,2.14,5.06,2.31,7.16.45s2.31-5.06.45-7.16c-1.52-1.77-3.25-1.36-6.09-4.61"/>
  <path class="cls-8" d="m391.51,305.42c-.62-.7-1.07-1.32-1.4-1.85-.21,1.28-.82,2.55-1.89,3.46-1.07.95-2.39,1.44-3.66,1.52.45.33.99.82,1.56,1.48.91,1.03,1.48,1.85,1.85,2.64.21-1.36.86-2.68,1.98-3.66s2.47-1.48,3.83-1.52c-.66-.45-1.44-1.11-2.26-2.06"/>
  <path class="cls-8" d="m410.57,326.99c-.62-.7-1.07-1.32-1.36-1.89-.21,1.32-.86,2.55-1.94,3.5s-2.35,1.44-3.66,1.52c.45.33,1.03.82,1.61,1.48.91,1.03,1.44,1.89,1.85,2.64.16-1.36.82-2.68,1.94-3.66s2.47-1.48,3.83-1.48c-.66-.49-1.4-1.15-2.26-2.1"/>
  <path class="cls-8" d="m404.52,325.51c-.74.62-1.85.58-2.51-.16s-.58-1.85.16-2.51c.7-.66,1.85-.58,2.51.12.62.74.58,1.89-.16,2.55Zm-9.47-10.75c-.74.66-1.85.58-2.51-.12-.66-.74-.58-1.89.16-2.55.7-.62,1.85-.58,2.51.16.62.74.58,1.85-.16,2.51Zm5.97,1.44c-2.64-3.01-1.73-4.32-3.38-6.13-1.85-2.1-5.06-2.31-7.16-.45-2.1,1.89-2.26,5.11-.41,7.21,1.61,1.85,2.96,1.03,5.6,3.99,2.88,3.25,2.35,5.02,3.87,6.71,1.85,2.1,5.06,2.31,7.16.45,2.14-1.89,2.31-5.11.45-7.21-1.52-1.73-3.25-1.36-6.13-4.57"/>
  <path class="cls-8" d="m448.53,371.09c-.62-.7-1.03-1.32-1.36-1.85-.21,1.32-.86,2.55-1.94,3.46-1.07.95-2.35,1.44-3.66,1.44.45.37.99.86,1.56,1.56.86.99,1.44,1.89,1.85,2.64.16-1.4.82-2.68,1.94-3.66,1.15-.95,2.51-1.44,3.91-1.48-.7-.45-1.44-1.11-2.31-2.1"/>
  <path class="cls-8" d="m442.52,369.56c-.78.66-1.89.58-2.51-.16-.66-.74-.58-1.89.16-2.51.74-.66,1.85-.62,2.51.16.62.74.54,1.85-.16,2.51Zm-9.39-10.83c-.74.66-1.89.58-2.51-.16-.66-.74-.58-1.85.16-2.51s1.85-.58,2.51.16.58,1.85-.16,2.51Zm5.97,1.52c-2.64-3.05-1.73-4.36-3.33-6.22-1.81-2.1-5.02-2.31-7.16-.49-2.1,1.85-2.35,5.11-.49,7.21,1.61,1.85,2.96,1.07,5.6,4.08,2.84,3.25,2.31,5.02,3.79,6.75,1.85,2.1,5.06,2.31,7.16.49,2.14-1.85,2.35-5.11.49-7.21-1.48-1.73-3.21-1.4-6.05-4.61"/>
  <path class="cls-8" d="m403.12,342.47c.21-.29.41-.49.7-.74,1.48-1.32,3.42-1.85,5.27-1.65-.16-.16-.33-.33-.49-.54-1.07-1.24-1.52-2.8-1.44-4.36-2.26,1.69-3.75,3.99-4.03,7.29"/>
  <path class="cls-8" d="m423.62,347.82c-.74.66-1.85.58-2.51-.16s-.58-1.85.21-2.51c.7-.66,1.85-.58,2.47.16.66.74.62,1.85-.16,2.51Zm-9.39-10.79c-.74.62-1.85.58-2.51-.21-.62-.74-.58-1.85.21-2.51.74-.66,1.85-.58,2.47.21.66.7.58,1.85-.16,2.51Zm6.01,1.48c-2.68-3.05-1.73-4.32-3.33-6.22-1.85-2.1-5.06-2.31-7.16-.45-2.1,1.81-2.35,5.06-.49,7.16,1.61,1.85,2.96,1.07,5.6,4.08,2.84,3.29,2.26,5.02,3.75,6.75,1.85,2.1,5.11,2.31,7.21.49,2.1-1.85,2.35-5.06.49-7.21-1.52-1.73-3.25-1.36-6.05-4.61"/>
  <path class="cls-8" d="m429.63,349.35c-.62-.7-1.03-1.32-1.32-1.85-.25,1.28-.91,2.51-1.98,3.46-1.03.95-2.35,1.44-3.66,1.48.49.33.99.82,1.56,1.52.91.99,1.44,1.85,1.85,2.64.16-1.36.82-2.68,1.98-3.66,1.11-.99,2.47-1.44,3.87-1.44-.7-.49-1.44-1.15-2.31-2.14"/>
  <path class="cls-8" d="m412.92,352.23c-.29.25-.62.49-.91.7l1.81,3.21c3.62.62,6.38-.99,8.48-3.71-1.56-.04-3.17-.74-4.32-2.06-.37-.45-.66-.91-.91-1.4-.33-.78-.58-1.56-.91-2.35-.37-.78-.82-1.52-1.36-2.22,1.07,2.68.41,5.81-1.89,7.82"/>
  <path class="cls-8" d="m480.03,417.53c.49.37.99.86,1.61,1.52.91.99,1.44,1.85,1.85,2.59.16-1.36.82-2.68,1.94-3.66s2.47-1.48,3.83-1.52c-.66-.49-1.4-1.11-2.26-2.1-.66-.66-1.07-1.28-1.4-1.85-.21,1.32-.82,2.55-1.89,3.5s-2.35,1.48-3.66,1.52"/>
  <path class="cls-8" d="m461.75,391.47c-.74.66-1.85.58-2.51-.12-.66-.74-.62-1.89.12-2.55s1.85-.58,2.51.16c.66.7.58,1.85-.12,2.51Zm-9.55-10.7c-.74.7-1.85.62-2.51-.12s-.62-1.85.12-2.51,1.85-.58,2.55.12c.62.74.58,1.85-.16,2.51Zm6.01,1.44c-2.72-3.01-1.77-4.32-3.42-6.13-1.85-2.1-5.11-2.26-7.16-.41-2.1,1.89-2.26,5.11-.41,7.21,1.65,1.85,3.01.99,5.64,3.99,2.88,3.21,2.39,4.98,3.91,6.67,1.85,2.1,5.06,2.31,7.16.41s2.26-5.11.41-7.21c-1.56-1.73-3.25-1.32-6.13-4.53"/>
  <path class="cls-8" d="m451.09,396.04c-.29.25-.58.45-.91.7l1.85,3.17c3.66.58,6.38-1.07,8.44-3.83-1.61-.04-3.21-.7-4.32-1.98-.41-.45-.7-.86-.95-1.4-.37-.74-.62-1.56-.99-2.35-.33-.78-.82-1.48-1.32-2.18,1.07,2.64.45,5.81-1.81,7.86"/>
  <path class="cls-8" d="m467.8,392.91c-.66-.7-1.11-1.32-1.4-1.85-.21,1.32-.86,2.55-1.89,3.5-1.07.95-2.39,1.44-3.66,1.52.49.37.99.82,1.61,1.48.86,1.03,1.44,1.85,1.85,2.64.16-1.4.82-2.72,1.94-3.71s2.47-1.48,3.83-1.52c-.7-.45-1.44-1.07-2.26-2.06"/>
  <path class="cls-8" d="m480.94,412.92c-.74.66-1.89.58-2.55-.12-.66-.74-.58-1.89.16-2.51.74-.66,1.85-.62,2.51.12s.58,1.85-.12,2.51Zm-9.55-10.66c-.74.66-1.85.58-2.51-.16-.66-.7-.62-1.85.12-2.51.74-.62,1.85-.58,2.51.16s.62,1.85-.12,2.51Zm6.01,1.4c-2.72-3.01-1.81-4.32-3.42-6.13-1.85-2.1-5.11-2.26-7.16-.41-2.1,1.89-2.31,5.11-.41,7.21,1.65,1.85,2.96,1.03,5.64,3.99,2.88,3.21,2.39,4.98,3.91,6.67,1.85,2.1,5.06,2.26,7.16.41,2.1-1.89,2.26-5.11.41-7.21-1.56-1.69-3.29-1.32-6.13-4.53"/>
  <path class="cls-8" d="m441.12,386.4c.21-.29.45-.54.7-.74,1.48-1.36,3.42-1.94,5.27-1.77-.21-.12-.33-.29-.49-.45-1.11-1.24-1.61-2.84-1.52-4.36-2.26,1.69-3.71,4.03-3.95,7.33"/>
  <path class="cls-8" d="m524.87,454.75c-.16,1.32-.78,2.55-1.85,3.54-1.03.99-2.31,1.48-3.62,1.61.49.33,1.03.78,1.65,1.44.91.99,1.52,1.81,1.94,2.59.12-1.4.74-2.72,1.81-3.75,1.11-.99,2.47-1.52,3.83-1.56-.7-.49-1.48-1.11-2.35-2.06-.66-.7-1.07-1.28-1.4-1.81"/>
  <path class="cls-8" d="m485.75,426.96c-.21-.16-.33-.33-.49-.49-1.15-1.19-1.65-2.76-1.61-4.28-2.22,1.73-3.62,4.12-3.83,7.37.21-.25.45-.49.7-.74,1.48-1.36,3.38-1.98,5.23-1.85"/>
  <path class="cls-8" d="m489.13,439.68l1.89,3.17c3.66.49,6.34-1.19,8.4-3.99-1.61,0-3.25-.62-4.41-1.89-.41-.41-.7-.91-.95-1.4-.37-.74-.66-1.56-1.03-2.31-.41-.78-.86-1.48-1.4-2.18,1.15,2.64.58,5.85-1.61,7.91-.29.25-.62.49-.91.7"/>
  <path class="cls-8" d="m500.57,434.2c-.74.66-1.85.62-2.55-.08-.66-.74-.62-1.85.12-2.51.7-.7,1.81-.66,2.51.04.66.74.62,1.89-.08,2.55Zm-9.8-10.46c-.7.66-1.85.62-2.51-.08-.66-.74-.62-1.85.08-2.55.74-.66,1.85-.62,2.55.08.66.74.62,1.85-.12,2.55Zm12.27,5.68c-1.56-1.69-3.29-1.28-6.22-4.41-2.76-2.96-1.89-4.28-3.54-6.09-1.94-2.06-5.11-2.14-7.21-.21-2.02,1.89-2.14,5.11-.25,7.21,1.73,1.77,3.05.95,5.76,3.83,2.96,3.17,2.47,4.94,4.03,6.59,1.89,2.1,5.11,2.18,7.21.29,2.02-1.94,2.14-5.19.21-7.21"/>
  <path class="cls-8" d="m501.4,440.3c.91.95,1.48,1.81,1.94,2.55.12-1.36.74-2.72,1.81-3.71,1.07-1.03,2.47-1.56,3.83-1.61-.7-.45-1.48-1.07-2.35-2.02-.66-.7-1.07-1.32-1.4-1.85-.21,1.32-.82,2.59-1.85,3.58-1.03.95-2.31,1.48-3.62,1.56.49.37,1.03.82,1.65,1.48"/>
  <path class="cls-8" d="m510.41,444.79c-.7.66-1.81.62-2.51-.08-.66-.74-.62-1.85.08-2.55.74-.66,1.85-.62,2.51.12.7.7.66,1.85-.08,2.51Zm7.33,7.86c.74-.7,1.85-.66,2.51.08.7.7.66,1.85-.08,2.51-.7.66-1.85.62-2.51-.08-.66-.74-.62-1.85.08-2.51Zm4.69,5.02c2.06-1.94,2.18-5.15.25-7.21-1.56-1.69-3.29-1.28-6.22-4.41-2.76-2.96-1.89-4.28-3.54-6.05-1.89-2.06-5.15-2.18-7.21-.25-2.02,1.94-2.14,5.11-.21,7.21,1.65,1.77,3.01.95,5.72,3.87,2.92,3.13,2.47,4.9,4.03,6.59,1.89,2.06,5.11,2.18,7.16.25"/>
  <path class="cls-8" d="m547.47,484.39c.7-.66,1.85-.66,2.51.08.66.7.66,1.81-.04,2.51-.74.66-1.85.62-2.55-.08-.66-.7-.66-1.81.08-2.51Zm9.84,10.38c.74-.7,1.85-.66,2.55.08.66.7.62,1.81-.08,2.51-.7.66-1.85.62-2.51-.08s-.66-1.81.04-2.51Zm-6.55-1.77c3.01,3.17,2.51,4.94,4.12,6.55,1.94,2.06,5.15,2.14,7.21.21,2.02-1.94,2.1-5.19.16-7.21-1.61-1.69-3.33-1.24-6.26-4.32-2.8-2.96-1.94-4.28-3.62-6.05-1.94-2.06-5.15-2.1-7.21-.16-2.02,1.94-2.1,5.15-.16,7.21,1.69,1.77,3.05.91,5.76,3.79"/>
  <path class="cls-8" d="m560.69,503.42c.95.99,1.52,1.81,1.98,2.59.08-1.4.7-2.72,1.81-3.75,1.03-1.03,2.39-1.56,3.75-1.65-.66-.45-1.44-1.07-2.35-2.02-.66-.66-1.07-1.24-1.44-1.81-.16,1.32-.74,2.59-1.77,3.58s-2.31,1.52-3.62,1.65c.49.33,1.03.78,1.65,1.4"/>
  <path class="cls-8" d="m539.94,476.49c-.7.7-1.85.66-2.51-.04-.66-.74-.66-1.85.04-2.55.74-.66,1.85-.66,2.55.08.66.7.62,1.85-.08,2.51Zm-9.84-10.38c-.74.7-1.85.66-2.55-.04-.66-.74-.62-1.85.08-2.51.7-.7,1.85-.66,2.51.04.66.74.66,1.85-.04,2.51Zm12.31,5.56c-1.61-1.65-3.33-1.19-6.26-4.32-2.8-2.92-1.94-4.28-3.62-6.05-1.94-2.02-5.15-2.1-7.21-.12-2.02,1.89-2.1,5.15-.16,7.21,1.69,1.77,3.05.91,5.76,3.79,3.01,3.13,2.55,4.9,4.12,6.55,1.94,2.02,5.15,2.14,7.21.16,2.02-1.94,2.1-5.15.16-7.21"/>
  <path class="cls-8" d="m540.84,482.58c.91.95,1.52,1.81,1.94,2.55.16-1.36.74-2.72,1.81-3.75s2.43-1.56,3.83-1.65c-.7-.45-1.52-1.03-2.39-1.98-.66-.7-1.11-1.28-1.44-1.81-.16,1.28-.74,2.55-1.77,3.54s-2.31,1.52-3.62,1.65c.49.33,1.03.78,1.65,1.44"/>
  <path class="cls-8" d="m528.57,482.09l1.94,3.17c3.66.45,6.34-1.28,8.32-4.12-1.61.04-3.21-.58-4.41-1.85-.37-.41-.7-.82-.95-1.36-.41-.74-.66-1.52-1.07-2.26-.37-.82-.86-1.52-1.4-2.18,1.15,2.64.66,5.81-1.56,7.91-.25.25-.58.49-.86.7"/>
  <path class="cls-8" d="m525.03,469.41c-.12-.12-.33-.29-.45-.45-1.15-1.24-1.69-2.76-1.65-4.32-2.22,1.77-3.62,4.16-3.75,7.45.21-.29.41-.54.66-.78,1.48-1.36,3.33-2.02,5.19-1.89"/>
  <path class="cls-8" d="m565.01,511.28c-.16-.12-.37-.29-.49-.45-1.19-1.19-1.73-2.76-1.69-4.32-2.22,1.81-3.54,4.24-3.66,7.49.21-.25.41-.49.66-.74,1.44-1.4,3.33-2.06,5.19-1.98"/>
  <path class="cls-8" d="m582.92,526.8c.12-1.36.7-2.72,1.77-3.75.78-.78,1.69-1.28,2.68-1.52l.37-.66c-.49-.37-1.07-.86-1.65-1.48-.66-.66-1.15-1.28-1.48-1.81-.12,1.32-.74,2.59-1.73,3.62-1.03.99-2.31,1.52-3.62,1.61.49.37,1.07.82,1.69,1.48.91.95,1.52,1.77,1.98,2.51"/>
  <path class="cls-8" d="m568.63,523.96l2.02,3.09c3.66.41,6.3-1.32,8.28-4.2-1.61.04-3.21-.54-4.45-1.77-.41-.41-.7-.86-.99-1.36-.41-.74-.66-1.56-1.07-2.31-.41-.78-.91-1.48-1.44-2.14,1.19,2.64.7,5.81-1.44,7.91-.29.29-.58.58-.91.78"/>
  <path class="cls-8" d="m579.95,518.2c-.7.7-1.81.66-2.51-.04s-.66-1.81.04-2.51,1.81-.66,2.51.04.66,1.81-.04,2.51Zm-9.96-10.25c-.7.7-1.85.7-2.51-.04-.7-.7-.7-1.81,0-2.51s1.85-.66,2.51.04c.7.7.7,1.81,0,2.51Zm12.39,5.43c-1.65-1.65-3.33-1.19-6.34-4.28-2.8-2.88-1.98-4.24-3.66-5.97-1.98-2.02-5.19-2.06-7.21-.12-1.98,1.98-2.02,5.23-.08,7.25,1.73,1.73,3.05.86,5.81,3.75,3.05,3.09,2.59,4.86,4.2,6.51,1.94,2.02,5.19,2.02,7.16.08,2.02-1.98,2.06-5.23.12-7.21"/>
  <path class="cls-8" d="m586.38,523.26c-.33.16-.66.45-.99.74-1.28,1.24-1.77,2.92-1.48,4.53.7-1.77,1.52-3.54,2.47-5.27"/>
  <path class="cls-8" d="m867.22,580c1.69-1.69,1.69-4.41,0-6.09s-4.36-1.69-6.05,0-1.69,4.41,0,6.09c1.69,1.65,4.36,1.65,6.05,0"/>
  <path class="cls-1" d="m1150.86,474.52c-1.77,0-2.64-.86-2.64-2.64l1.15-365.45c0-1.4.7-2.14,2.14-2.14l99.47-.49c19.43-.41,37.22,4.2,53.36,13.83,16.14,9.55,28.99,22.4,38.54,38.54,9.63,16.14,14.49,33.93,14.49,53.36v152.67c0,20.67-5.02,39.44-14.99,56.32-9.88,16.8-23.18,30.22-39.85,40.18-16.72,9.88-35.49,14.99-56.32,15.32l-95.36.49Zm62.25-65.38h33.1c13.05,0,24.09-4.61,33.1-13.83,9.1-9.22,13.67-20.26,13.67-33.1v-153.16c0-11.28-4.2-21.12-12.52-29.48-8.36-8.32-18.2-12.35-29.48-12.02l-37.38.66-.49,240.94Z"/>
  <path class="cls-1" d="m1411.56,474.52c-1.44,0-2.14-.86-2.14-2.64l1.15-365.45c0-1.4.7-2.14,2.14-2.14h107.38c19.1,0,36.73,4.73,52.87,14.16,16.14,9.35,28.99,21.9,38.54,37.71,9.63,15.81,14.49,33.6,14.49,53.36,0,13.18-1.98,25.03-5.93,35.57-3.87,10.46-8.48,19.27-13.83,26.52-5.27,7.25-10.05,12.64-14.33,16.14,19.19,21.33,28.82,46.36,28.82,75.1l.49,109.02c0,1.77-.91,2.64-2.64,2.64h-60.11c-1.44,0-2.14-.54-2.14-1.65v-110.01c0-12.85-4.57-23.92-13.67-33.27-9.02-9.43-20.09-14.16-33.27-14.16h-35.08l-.49,156.46c0,1.77-.74,2.64-2.14,2.64h-60.11Zm62.75-222.83h45.78c10.95,0,20.67-4.03,29.15-12.19,8.56-8.23,12.85-18.2,12.85-29.97s-4.2-21-12.52-29.15c-8.36-8.11-18.2-12.19-29.48-12.19h-45.78v83.5Z"/>
  <path class="cls-1" d="m1678.07,474.52c-1.44,0-2.14-.86-2.14-2.64l.49-365.45c0-1.4.7-2.14,2.14-2.14h170.78c1.4,0,2.14.91,2.14,2.64v59.62c0,1.44-.74,2.14-2.14,2.14h-109.02v83h109.02c1.4,0,2.14.74,2.14,2.14l.49,60.11c0,1.32-.74,1.98-2.14,1.98h-109.52v93.21h109.52c1.4,0,2.14.91,2.14,2.64v60.61c0,1.44-.74,2.14-2.14,2.14h-171.77Z"/>
  <path class="cls-1" d="m1891.35,471.88l66.04-365.45c.33-1.4,1.19-2.14,2.64-2.14h77.07c1.4,0,2.35.74,2.8,2.14l63.24,365.45c.33,1.77-.41,2.64-2.14,2.64h-59.12c-1.32,0-2.22-.86-2.64-2.64l-5.76-38.87h-72.3l-5.93,38.87c-.33,1.77-1.24,2.64-2.64,2.64h-59.12c-1.44,0-2.14-.86-2.14-2.64Zm80.37-95.85h51.05l-21.74-149.37-3.29-19.76-2.14,19.76-23.88,149.37Z"/>
  <path class="cls-1" d="m2148.86,474.52c-1.44,0-2.14-.86-2.14-2.64l1.15-365.45c0-1.4.7-2.14,2.14-2.14h64.89c1.4,0,2.64.74,3.62,2.14l48.42,70.16,48.42-70.16c1.07-1.4,2.35-2.14,3.79-2.14h65.38c1.4,0,2.14.74,2.14,2.14l.99,365.45c0,1.77-.74,2.64-2.14,2.64h-60.11c-1.32,0-1.98-.86-1.98-2.64l-.66-271.24-55.83,80.86-55.34-80.86-.49,271.24c0,1.77-.74,2.64-2.14,2.64h-60.11Z"/>
  <path class="cls-1" d="m2533.96,474.52c-1.77,0-2.64-.86-2.64-2.64l1.15-365.45c0-1.4.7-2.14,2.14-2.14l99.47-.49c19.43-.41,37.22,4.2,53.36,13.83,16.14,9.55,28.99,22.4,38.54,38.54,9.63,16.14,14.49,33.93,14.49,53.36v152.67c0,20.67-5.02,39.44-14.99,56.32-9.88,16.8-23.18,30.22-39.85,40.18-16.72,9.88-35.49,14.99-56.32,15.32l-95.36.49Zm62.25-65.38h33.1c13.05,0,24.09-4.61,33.1-13.83,9.1-9.22,13.67-20.26,13.67-33.1v-153.16c0-11.28-4.2-21.12-12.52-29.48-8.36-8.32-18.2-12.35-29.48-12.02l-37.38.66-.49,240.94Z"/>
  <path class="cls-1" d="m2794.66,474.52c-1.44,0-2.14-.86-2.14-2.64l.49-365.45c0-1.4.7-2.14,2.14-2.14h170.78c1.4,0,2.14.91,2.14,2.64v59.62c0,1.44-.74,2.14-2.14,2.14h-109.02v83h109.02c1.4,0,2.14.74,2.14,2.14l.49,60.11c0,1.32-.74,1.98-2.14,1.98h-109.52v93.21h109.52c1.4,0,2.14.91,2.14,2.64v60.61c0,1.44-.74,2.14-2.14,2.14h-171.77Z"/>
  <path class="cls-1" d="m3116.47,479.79c-19.1,0-36.56-4.86-52.37-14.49-15.81-9.76-28.45-22.73-37.88-38.87-9.35-16.14-14-33.97-14-53.52v-24.54c0-1.73.86-2.64,2.64-2.64h59.62c1.4,0,2.14.91,2.14,2.64v24.54c0,11.78,3.87,21.82,11.69,30.14,7.78,8.23,17.17,12.35,28.16,12.35s20.34-4.2,28.16-12.68c7.91-8.56,11.86-18.49,11.86-29.81,0-13.05-8.52-24.42-25.53-34.09-5.72-3.17-14.62-8.11-26.68-14.82-12.1-6.67-23.47-13.05-34.09-19.1-19.43-11.4-33.88-25.69-43.31-42.82-9.47-17.21-14.16-36.64-14.16-58.3,0-19.85,4.78-37.63,14.33-53.36,9.63-15.81,22.32-28.33,38.04-37.55,15.81-9.22,32.94-13.83,51.38-13.83s36.07,4.73,51.88,14.16c15.81,9.35,28.37,21.9,37.71,37.71,9.43,15.73,14.16,33.35,14.16,52.87v43.64c0,1.44-.74,2.14-2.14,2.14h-59.62c-1.32,0-1.98-.7-1.98-2.14l-.66-43.64c0-12.39-3.91-22.48-11.69-30.3-7.82-7.78-17.05-11.69-27.67-11.69s-20.38,4.2-28.16,12.52c-7.82,8.36-11.69,18.2-11.69,29.48s2.47,21.53,7.41,29.31c4.94,7.82,14,15.23,27.17,22.23,1.73,1.11,5.19,2.96,10.38,5.6,5.15,2.64,10.75,5.68,16.8,9.06,6.01,3.42,11.4,6.38,16.14,8.89,4.82,2.43,7.78,3.95,8.89,4.61,17.66,10,31.62,22.19,41.83,36.56,10.29,14.41,15.48,32.03,15.48,52.87s-4.73,38.37-14.16,54.51c-9.35,16.14-21.9,28.94-37.71,38.37-15.73,9.3-33.18,14-52.37,14Z"/>
  <path class="cls-1" d="m3270.73,474.52c-1.77,0-2.64-.86-2.64-2.64l.49-365.45c0-1.4.7-2.14,2.14-2.14h59.62c1.4,0,2.14.74,2.14,2.14l.49,365.45c0,1.77-.74,2.64-2.14,2.64h-60.11Z"/>
  <path class="cls-1" d="m3487.25,479.79c-19.1,0-36.48-4.78-52.04-14.33-15.6-9.55-28.12-22.4-37.55-38.54-9.47-16.14-14.16-34.13-14.16-54.02v-168.64c0-19.1,4.69-36.73,14.16-52.87,9.43-16.14,21.99-28.99,37.71-38.54,15.81-9.63,33.1-14.49,51.88-14.49s37.14,4.73,52.87,14.16c15.81,9.47,28.33,22.15,37.55,38.04,9.22,15.93,13.83,33.84,13.83,53.69v24.54c0,1.44-.91,2.14-2.64,2.14h-59.62c-1.32,0-1.98-.7-1.98-2.14v-20.26c0-13.5-3.87-24.62-11.53-33.43-7.58-8.89-17.09-13.34-28.49-13.34-10.21,0-19.35,4.28-27.34,12.85-8.03,8.48-12.02,18.36-12.02,29.64v168.64c0,11.78,3.87,21.82,11.69,30.14,7.78,8.23,17,12.35,27.67,12.35,11.4,0,20.92-4.03,28.49-12.19,7.66-8.11,11.53-18.2,11.53-30.3v-26.02h-37.38c-1.77,0-2.64-.86-2.64-2.64v-59.62c0-1.73.86-2.64,2.64-2.64h99.47c1.4,0,2.14.91,2.14,2.64v88.27c0,19.89-4.73,37.88-14.16,54.02-9.35,16.14-21.82,28.99-37.38,38.54-15.6,9.55-33.18,14.33-52.7,14.33Z"/>
  <path class="cls-1" d="m3644.18,474.52c-2.88,0-4.28-1.24-4.28-3.79l-.49-362.15c0-2.84,1.4-4.28,4.28-4.28h47.92l89.92,209.65-2.8-205.37c0-2.84,1.65-4.28,4.94-4.28h52.54c2.18,0,3.29,1.44,3.29,4.28l.49,362.81c0,2.1-.91,3.13-2.64,3.13h-46.77l-92.06-195.82,3.62,191.53c0,2.88-1.61,4.28-4.78,4.28h-53.19Z"/>
  <path class="cls-1" d="m1626.64,782.58v-159.42h10.7v149.54h73.29v9.88h-83.99Z"/>
  <path class="cls-1" d="m1767.53,727.24l-22.89,55.34h-11.36l67.03-160.57h6.26l67.36,160.57h-12.02l-23.06-55.34h-71.31Zm35.24-87.45c-.12.25-.41,1.15-.82,2.8-2.1,6.38-4.12,11.82-6.09,16.3l-24.54,59.29h63.73l-24.37-59.12c-5.27-11.28-7.91-17.7-7.91-19.27Z"/>
  <path class="cls-1" d="m1931.27,648.52l.49,18.94v115.12h-10.7v-160.74h4.94l104.91,121.05c7.12,8.48,12.6,15.23,16.47,20.26-.58-7.12-.82-15.32-.82-24.54v-115.45h10.7v160.74h-4.94l-107.05-123.35c-7.37-8.44-12.1-14.08-14.16-16.96l.16,4.94Z"/>
  <path class="cls-1" d="m2181.33,774.84c20.96,0,37.76-5.68,50.4-17.13,12.72-11.4,19.1-28.53,19.1-51.38s-7.21-41.17-21.57-54.68c-14.29-13.5-31.95-20.26-53.03-20.26-13.63,0-25.36.41-35.24,1.15v140.48c9.63,1.24,23.1,1.81,40.35,1.81Zm-5.11-153.33c24.46,0,44.96,7.66,61.43,22.89,16.55,15.27,24.87,35.98,24.87,62.09,0,13.3-2.14,25.03-6.42,35.24-4.28,10.13-10.13,18.24-17.46,24.37-15.4,12.31-34.5,18.45-57.31,18.45-15.07,0-32.07-.82-51.05-2.47v-158.93c15.15-1.07,30.47-1.65,45.95-1.65Z"/>
  <path class="cls-1" d="m2394.95,637.16c-10.87-4.61-21.66-6.92-32.28-6.92-21.74,0-32.61,8.03-32.61,24.04,0,7.04,2.39,13.59,7.25,19.6,4.94,6.05,10.91,11.45,17.95,16.14,7,4.61,14,9.39,20.92,14.33,7,4.86,12.93,10.7,17.79,17.62,4.94,6.83,7.41,14.25,7.41,22.23,0,13.5-4.57,23.72-13.67,30.63-9.02,6.92-21.53,10.38-37.55,10.38s-29.56-4.03-40.84-12.19l5.43-8.07c10.62,7.04,22.32,10.54,35.08,10.54s22.64-2.55,29.48-7.74c6.92-5.15,10.38-12.56,10.38-22.23,0-6.67-2.47-13.01-7.41-18.94-4.94-6.01-10.95-11.45-17.95-16.3-6.92-4.82-13.92-9.76-20.92-14.82-6.92-5.02-12.85-11.08-17.79-18.12-4.94-7-7.41-14.53-7.41-22.56,0-10.54,3.87-18.86,11.69-25.03,7.91-6.13,18.49-9.22,31.79-9.22s25.61,2.64,37.06,7.91l-3.79,8.73Z"/>
  <path class="cls-1" d="m2537.43,785.22c-23.18,0-43.11-7.91-59.78-23.72-16.59-15.81-24.87-35.33-24.87-58.63s7.25-42.82,21.74-58.63c14.58-15.81,33.27-23.72,55.99-23.72,17.87,0,35.94,2.96,54.18,8.89l-2.8,8.89c-17.91-5.35-35.04-8.07-51.38-8.07-19.43,0-35.37,7.04-47.76,21.08-12.31,13.96-18.45,31.04-18.45,51.22s7.16,37.47,21.57,51.71c14.37,14.16,31.54,21.24,51.55,21.24,17.54,0,32.77-2.68,45.62-8.07l3.29,7.58c-5.72,3.29-13.13,5.85-22.23,7.58-9.14,1.73-18.03,2.64-26.68,2.64Z"/>
  <path class="cls-1" d="m2650.79,727.24l-22.89,55.34h-11.36l67.03-160.57h6.26l67.36,160.57h-12.02l-23.06-55.34h-71.31Zm35.24-87.45c-.12.25-.41,1.15-.82,2.8-2.1,6.38-4.12,11.82-6.09,16.3l-24.54,59.29h63.73l-24.37-59.12c-5.27-11.28-7.91-17.7-7.91-19.27Z"/>
  <path class="cls-1" d="m2804.32,782.58v-158.6c12.27-1.19,24.25-1.81,35.9-1.81,15.56,0,28.08,3.71,37.55,11.03,9.43,7.25,14.16,18.24,14.16,32.94s-6.42,26.64-19.27,36.07c-12.85,9.47-28.24,14.16-46.11,14.16h-2.47v-7.41h1.65c14.7,0,27.42-3.83,38.21-11.53,10.87-7.78,16.3-17.87,16.3-30.3s-3.79-21.33-11.36-26.84c-7.58-5.6-17.75-8.4-30.47-8.4-6.71,0-14.49.29-23.39.82v149.87h-10.7Z"/>
  <path class="cls-1" d="m2947.96,782.58v-159.42h10.7v159.42h-10.7Z"/>
  <path class="cls-1" d="m3041.81,648.52l.49,18.94v115.12h-10.7v-160.74h4.94l104.91,121.05c7.12,8.48,12.6,15.23,16.47,20.26-.58-7.12-.82-15.32-.82-24.54v-115.45h10.7v160.74h-4.94l-107.05-123.35c-7.37-8.44-12.1-14.08-14.16-16.96l.16,4.94Z"/>
  <path class="cls-1" d="m3309.17,630.24c-19.43,0-35.37,7.04-47.76,21.08-12.31,13.96-18.45,31.09-18.45,51.38s6.96,37.38,20.92,51.55c14.04,14.16,31.13,21.24,51.22,21.24,17.21,0,31.54-2.39,42.98-7.25v-65.55h10.7v70.49c-12.97,8.03-31.09,12.02-54.35,12.02s-42.94-7.95-58.96-23.88c-16.06-16.02-24.04-35.57-24.04-58.63s7.25-42.65,21.74-58.46c14.58-15.81,33.27-23.72,55.99-23.72,17.87,0,35.94,2.96,54.18,8.89l-2.8,8.89c-17.91-5.35-35.04-8.07-51.38-8.07Z"/>
</svg>