<?xml version="1.0" encoding="UTF-8"?>
<svg id="Layer_1" data-name="Layer 1" xmlns="http://www.w3.org/2000/svg" xmlns:xlink="http://www.w3.org/1999/xlink" viewBox="0 0 3839.92 781.93">
  <defs>
    <style>
      .cls-1 {
        fill: #568f41;
      }

      .cls-2 {
        clip-path: url(#clippath-2);
      }

      .cls-3 {
        clip-path: url(#clippath-1);
      }

      .cls-4 {
        clip-path: url(#clippath-4);
      }

      .cls-5 {
        clip-path: url(#clippath);
      }

      .cls-6 {
        fill: none;
      }

      .cls-7 {
        clip-path: url(#clippath-3);
      }

      .cls-8 {
        fill-rule: evenodd;
      }
    </style>
    <clipPath id="clippath">
      <rect class="cls-6" x="161.9" y="370.18" width="463.36" height="411.75"/>
    </clipPath>
    <clipPath id="clippath-1">
      <rect class="cls-6" y="510.84" width="153.62" height="223.41"/>
    </clipPath>
    <clipPath id="clippath-2">
      <rect class="cls-6" x="575.62" width="16.55" height="14.38"/>
    </clipPath>
    <clipPath id="clippath-3">
      <rect class="cls-6" x="634.31" y="516.56" width="153.79" height="213.55"/>
    </clipPath>
    <clipPath id="clippath-4">
      <rect class="cls-6" x="195" width="16.55" height="14.38"/>
    </clipPath>
  </defs>
  <path class="cls-8" d="m476.23,464.72l-2.75-3.33c-1.62,1.1-3.14,1.97-4.49,2.36,2.88.65,5.24.94,7.24.97"/>
  <path class="cls-8" d="m540.68,544.3l-3.98-4.88c-2.65,13.51-7.4,27.25-14.74,43.8,8.08-12.83,14.32-25.73,18.71-38.92"/>
  <g class="cls-5">
    <path class="cls-8" d="m557.74,696.76c-16,3.23-17.29,26.41-34.71,24.4-12.15-1.39-14.22,19.23-43.34,19.01-25.7-.23-42.47,21.59-57.76,14.9-7.24-3.17-12.93-4.17-17.68-4.07-.06-.26-.16-.48-.23-.74-3.52-11.51-.78-34.33-.23-50.58,32.52,1.23,66.29-5.59,93.12-18.52,14.74-7.11,27.57-16.71,38.5-28.09,5.75,3.75,11.28,6.85,16.55,8.73,20.17,7.14,19.07,9.7,28.41,16.03-1.78,13.03,3.07,13.74-22.63,18.94Zm-161.9-5.49c-38.27-2.23-83.2-26.34-117.55-57.63,6.53-5.3,13.58-13.35,19.72-20.91l.06.06-.06-.1c8.08-9.96,14.64-19.07,16.68-20.1,2.26-1.13,4.59-3.17,6.82-5.62,7.69,8.21,16.55,15.42,26.15,21.33,17.55,10.8,35.39,15.29,52.3,14.74,4.1,27.02-5.46,40.63-4.1,68.23Zm-6.95,63.42c-6.66,2.26-12.73,3.23-23.27-5.98-1.58-1.39-34.33,1.55-40.79,4.2-16.74,6.88-16.42-4.49-35.36-10.5-37.69-11.99-17.58,11.77-46.06-22.59-3.59-4.36-4.95-16.35-16.19-28.96,4.98-4.43,10.99-10.54,11.34-11.18.81-1.45,3.59-7.08,7.43-13.7,13.22,12.9,28.25,24.11,44.8,33.26-16.29-11.41-30.71-23.17-43.25-35.91,6.21-10.38,14.48-22.11,21.43-24.18,1.07-.32,2.13-.78,3.26-1.39,21.53,20.3,46.7,36.98,70.95,48.32,15.97,7.43,34.16,11.7,53.01,13.15.19,23.14-7.92,31.8-7.3,55.46Zm-87.85-242.7c2.39-17.36,8.73-34.2,18.23-48.9,5.46,4.56,13.06,8.73,17.84,9.44,5.59.84,5.17,3.3,12.44,2.04-8.53,13.45-8.92,31.97-3.26,51.46-.55-23.05-4.53-44.73,19.07-58.63,9.47-5.59,23.95-7.08,38.3-5.3-3.26,10.73-2.33,28.83-2.94,41.95-6.98,1.62-2.75-4.85-8.95-1.1-1.81,1.1-2.04,4.56-2.23,6.72-.03.23.23.91.13,1.07-.42.55-.1,1.78.71,3.23-3.04,3.04-7.85,7.72-12.41,12.02-2.68-3.17-3.94-7.47-2.88-13.32,2.33-13.03,12.35-20.33,23.59-25.11-9.11-.97-14.03,1.16-20.94,7.76-14.96,14.25-12.96,27.18-4.65,35.26-3.62,3.33-6.43,5.82-7.01,6.08-5.3,2.49-26.89,22.59-44.15,38.66-15.06-18.78-23.89-41.57-20.88-63.32Zm167.65,76.15c3.81,5.43,16.74,17.65,18.39,21.24,5.4,11.67,19.13,22.79,32.94,32.84,2.72,1.97,5.46,3.98,8.11,5.88-32.55,30.8-77.73,43.76-124.12,43.41,1.23-20.36,12.99-53.46-.06-68.65,25.18-1.97,48.09-15.03,64.74-34.71Zm137.75,26.5c-.78,1.81-1.49,3.94-2.1,6.53-2.81,11.64-2.68,27.21-9.31,33.29-1.84,1.71-4.36,9.83-9.37,14.45-2.81-2.49-6.4-5.01-7.82-5.04-12.99-.36-28.06-11.51-36.1-17.81,16.03-19.01,27.41-42.15,34.16-66.84-.81-.68-1.81-1.16-2.91-1.42-.87-.16-1.71-.45-2.52-.81-4.01,12.93-9.44,25.63-16.45,38.01-5.56,9.76-11.99,18.52-19.17,26.31-8.57-3.56-22.82-16.84-29.54-19.97-11.64-5.46-13.67-16.19-17.26-19.07-7.66-6.08-9.83-14.71-11.99-16.68-1.42-1.26-2.46-2.13-3.23-2.68,9.76-13.09,16.94-28.64,20.46-45.57-15.64,37.91-42.34,75.41-86.69,79.77-28.15,2.78-58.89-12.99-80.03-36.36,4.4-5.91,8.05-11.89,9.73-13.09,16.61-11.73,32.48-24.31,41.66-33.32,10.08,6.17,24.5,6.92,32.9-1.26-8.66,1.16-20.72,1-28.48-3.46,5.72-6.72,6.4-9.76,8.66-14.51,2.23,3.43,6.3,7.37,8.4,6.34,4.62-2.2,9.34-.42,8.63-6.34-.48-4.23.94-10.02-1.84-11.51,7.53-11.02,6.27-33.07,7.95-39.59,20.46,4.95,38.07,16.52,37.07,32.35-.87,13.61-1.1,42.7-6.69,53.46-5.82,11.15-19.75,10.83-31.84,14.64,13.38-.94,27.99.1,35.55-12.61,6.88-11.54,8.18-40.27,9.63-54.91,2.2-21.98-19.26-34.78-41.15-40.08,3.88-12.73,1.84-22.46,2.55-36.26.58-10.89-5.72-24.44-2.84-34.26-.23,0-.45-.03-.68-.06-1.75-.19-2.94-1-3.88-2.46l-1.55-2.49c-.26-.39-.45-.84-.58-1.29-.65-2.1-2.07-3.62-4.1-4.4-1.36-.48-2.39-1.45-2.97-2.65-.65,5.17-.84,10.38-.84,11.6,0,4.82,6.3,25.28,7.76,28.09,5.37,10.5,1.65,30.58-2.97,42.24-8.02-1.1-15.55-1.23-21.49-.45-16.65,2.2-27.93,8.99-34.65,18.68-5.91-2.81-18.58-9.73-27.05-16.13,15.68-21.27,38.37-37.11,65.35-41.82l9.86-1.39c-24.82-.71-46.35,8.27-63.42,23.08-1.49,3.49-3.59,6.76-6.04,9.76l-22.66,27.96c-4.2,8.53-7.56,17.58-9.99,26.86-7.6,29.28,1.65,57.31,19.52,79.32-8.15,7.6-14.54,13.48-16.48,14.8-2.78,1.94-5.75,4.65-8.79,7.82-15.87-21.49-27.83-44.47-31.22-70.78l-3.75,4.62c4.91,24.76,17.71,48.26,34.13,67-6.72,7.08-13.74,15.97-19.59,21.95-16.58-16.42-30.09-34.42-38.24-52.04-.78-1.65-1.52-3.33-2.23-5.01-1.36,1.55-2.88,3.14-4.49,4.53,8.89,20.72,22.95,40.11,39.76,57.21-12.86,10.08-25.11,9.5-27.89,21.33-14.38-16.71-25.7-35.2-33.91-56.66l-3.59,3.56c9.08,20.91,21.56,40.27,36.91,57.27v.58c-.13,4.27-8.57,7.63-15.16,9.5-2.23-5.11-6.14-10.73-13.09-16.74-3.65-3.1-1.26-6.43-13.06-13.15-10.47-5.98-9.7-14.22-9.47-23.53l-14.03,14.06c-1.62,4.85-5.95,8.57-5.95,12.54,0,4.98,1.52,7.72,6.53,10.31,5.04,2.59,14.16.78,21.27,3.98,7.11,3.2-5.2,17.87.42,21.78,5.59,3.88,12.28,1.55,13.32,8.66,1,7.08,12.54,10.76,11.54,18.78-1,7.98-1.55,15.22,2.55,21.07,4.1,5.82,14.9,5.33,19.17,9.83,4.27,4.49,2.17,11.34,4.46,15,2.26,3.65,3.43,5.11,8.4,5.62,5.01.55,15.19-3.65,19.88-2.59,4.65,1.1-.48,5.24,3.49,7.98,4.01,2.75,12.25,5.37,18.94,7.5,6.69,2.1,14.38,5.17,21.04,5.14,6.66-.03,11.57-3.59,17.55-5.4,5.95-1.78,13.22-4.62,18.23-5.37,4.98-.78,7.47-1.65,11.22.94,3.78,2.55,4.62,10.38,9.34,13.12,4.75,2.72,11.89,3.52,16.61,1.87,4.72-1.68,3.36-8.5,8.18-10.57,4.82-2.04,13.87-3.65,18-.68,4.14,2.94-6.5,9.63-1.62,12.41,4.85,2.78,14.74,1.68,21.04-1.39,6.27-3.1,7.11-12.31,13.77-15.71,6.69-3.43,17.29-4.56,23.85-3.52,6.56,1.07,6.24,9.28,12.64,9.37,6.37.1,15.39-4.43,20.82-8.89,5.37-4.49,3.81-13.64,10.05-16.65,6.21-3.01,16.74,2.04,21.98,1.16,5.17-.87,5.4-2.72,7.47-6.08s1.39-9.24,4.43-13.38c3.07-4.1,7.24-9.24,13.09-10.28,5.85-1.07,12.09,7.27,18.49,4.69,6.4-2.65,10.92-10.73,13.58-17.81,2.59-7.11-2.62-15.39,1.39-22.98,3.98-7.6,16.52-12.93,20.78-19.43,4.3-6.5,2.88-11.67,3.75-17.81.48-3.2.13-6.92.1-10.41l-15.26-15.29"/>
  </g>
  <path class="cls-8" d="m400.69,362.84l-.1-.1c-.94-1-1.33-1.75-1.87-3.01-.48-1.03-1.13-1.87-1.97-2.52-.97.03-1.91.06-2.88.13-.78.61-1.36,1.42-1.81,2.39-.55,1.26-.94,2-1.87,3.01,0,.03-.03.06-.1.1-1.23,1.33-1.84,2.91-1.81,4.65,4.62-.74,9.31-1.23,14.09-1.45-.26-1.16-.81-2.26-1.68-3.2"/>
  <g class="cls-3">
    <path class="cls-8" d="m67.49,688.61c-8.27,9.47-11.41,12.38-20.07,4.62-11.77-10.47-17.78-21.27-12.99-33.42,5.98-15.16,33.71-87.04,43.8-94.02,7.24,1.36,11.28-1,14.61-4.75-14-14.22-28.02-28.48-42.02-42.73-3.3,3.2-4.3,7.4-3.91,12.22-14.64,44.96-30.51,89.56-43.05,135.17-3.75,13.64,2.23,24.92,10.83,33.74l22.85,23.53c7.37,7.6,21.75,8.69,31.19-.91l84.04-85.46c-5.33-9.08-10.7-18.16-16.03-27.28l-69.23,79.29"/>
  </g>
  <path class="cls-8" d="m118.1,458.64c-3.17,3.17-8.31,3.17-11.44,0-3.17-3.17-3.17-8.31,0-11.47,3.14-3.17,8.27-3.17,11.44,0,3.14,3.17,3.14,8.31,0,11.47Zm71.17,104.95l-17.45-20.23c-17.94-59.25-49.06-134.91-54.27-198.78-3.3-40.43,5.04-38.37,32.87-13.41l18.42-16c-8.47-6.76-21.85-17.23-34.42-24.47-16.55-9.6-37.85-14.22-42.54,11.12-7.05,37.98,3.43,80.22,10.6,124.08-32.81,13.74-15.58,62.22,14.09,53.36l26.92,102.2-11.22,9.99,23.56,44.12,51.26-51.36-17.84-20.62"/>
  <path class="cls-8" d="m186.04,541.1c1.55,5.91,4.3,11.54,8.92,15.84l12.41,11.44c6.46,5.95,10.73,6.95,20.27-4.85l97.45-120.27c14.67-18.13,5.3-33.39-10.47-49.06-37.72-37.4-72.14-78.02-108.21-117.04l-1.55,1.49c.26,2.84.39,5.79.39,8.79.23,30.45-.61,60.89-1.78,91.31l.06.06c6.79,5.98,7.43,16.52,1.45,23.34-3.33,3.81-8.08,5.69-12.8,5.56l-17.78,31.9c-8.5,14.84-8.73,30.29-2.88,46.54l14.51,54.95"/>
  <path class="cls-8" d="m49.61,515.98c.97-.52,2.23-.36,3.07.52,14,14.22,27.99,28.48,42.02,42.73.94.94,1,2.39.19,3.43,2.84-.29,5.3-2.42,7.34-6.95l24.56-28.38-11.89-45.22c-6.17,1.29-12.35.42-17.91-2.88-9.34-5.59-14.67-16.77-14.67-27.47.03-12.31,6.72-22.08,17.55-27.28-2.26-13.58-4.85-27.15-7.11-40.76l-43.99,38.2c-23.82,20.69-33.49,31.35-23.59,51.52,7.4,15.13,15.39,29.38,24.44,42.54"/>
  <path class="cls-8" d="m184.52,405.64c-1-.58-1.97-1.23-2.88-2.04-6.79-6.01-7.43-16.52-1.45-23.34.45-.52.97-1.03,1.49-1.49,1.49-21.46,2.62-47.22-3.01-69.62l-57.21,49.65c1.55,11.47,3.78,22.88,6.34,34.1,3.91,17,8.69,33.81,13.83,50.45,5.04,16.29,10.44,32.42,15.87,48.55l6.5-7.47-.13-.58c-5.85-16.26-5.43-31.9,3.07-46.74l17.58-31.48"/>
  <path class="cls-8" d="m188.92,387.96c1.78-2.04,4.88-2.2,6.92-.42,2,1.78,2.2,4.88.42,6.88-1.78,2.04-4.88,2.23-6.88.45-2.04-1.78-2.23-4.88-.45-6.92Zm-55.69-134.72c53.98,19.85,55.88,71.95,51.94,127.38-.81.58-1.58,1.26-2.26,2.04-4.72,5.33-4.2,13.51,1.13,18.23,5.37,4.72,13.51,4.23,18.23-1.13s4.2-13.51-1.13-18.23c-.42-.42-.91-.74-1.36-1.07,1.2-31.32,2.1-61.48,1.87-92.99-.32-41.73-22.5-62.61-51.78-73.56-10.38-3.91-18.04-2.36-20.39,5.85-1.94,6.79-3.39,13.7-4.53,20.69-1.1,6.85,2.1,10.54,8.27,12.8"/>
  <path class="cls-8" d="m345.32,356.12l24.31-25.95c-.13-.13-.26-.29-.42-.42-.61-.71-1.13-1.49-1.52-2.33-.58-1.2-.65-1.91-1.52-2.91-.48-.55-.65-.48-1.33-.84-1.2-.58-2.23-1.33-3.1-2.33-.61-.65-1.13-1.39-1.49-2.17-1.42.55-2.97.81-4.59.78l-20.91,27.12,10.57,9.05"/>
  <path class="cls-8" d="m577.62,58.92c2.33-2.36,6.11-2.36,8.47,0s2.33,6.11,0,8.44c-2.36,2.33-6.14,2.33-8.47,0s-2.33-6.11,0-8.44Zm-169.49,160.02c1.03.58,2,1.36,2.81,2.33.58.71,1.07,1.52,1.45,2.36.52,1.2.52,1.94,1.39,2.97.48.58.61.52,1.29.87,1.2.61,2.17,1.39,3.04,2.42.58.71,1.03,1.45,1.39,2.26,1.94-.68,4.07-.84,6.3-.42,1.84.36,3.23,1.42,4.1,3.04l1.36,2.55c.94,1.75.94,3.75.13,5.4,1.26-.32,2.62-.23,3.91.36,2.39,1.07,3.75,3.46,3.46,6.08-.23,1.91-.78,3.65-1.62,5.2.84.58,1.65,1.29,2.33,2.13.58.71,1.07,1.52,1.42,2.39.52,1.2.55,1.94,1.36,2.97.45.58.61.52,1.29.91,1.2.61,2.17,1.42,3.01,2.46.55.71,1,1.49,1.36,2.26,1.94-.65,4.1-.78,6.34-.29.39.06.71.16,1.07.32,58.73-66.68,113.03-133.17,159.86-200.04,25.82-36.85-15.77-67.29-46.87-34.49-54.56,57.56-107.83,116.52-159.18,177.38.45.97.68,2.07.58,3.2-.19,1.94-.71,3.75-1.58,5.37"/>
  <path class="cls-8" d="m378.94,348.27c-1.03-1.68-1.16-3.68-.45-5.4-1.23.42-2.62.39-3.91-.1-2.46-.94-3.94-3.26-3.78-5.88.06-1.78.48-3.46,1.16-5.01-.81-.42-1.55-.97-2.26-1.65l-24.69,28.86-13.15-11.31,23.59-27.83c-.48-.03-1-.1-1.49-.16-1.81-.26-3.26-1.26-4.2-2.88l-1.45-2.49c-1-1.71-1.07-3.72-.32-5.4-1.23.39-2.62.32-3.91-.23-2.42-.97-3.88-3.3-3.68-5.95.16-1.81.61-3.52,1.36-5.07-.91-.48-1.71-1.1-2.42-1.87-17.55,22.24-34.78,44.73-51.71,67.52,9.31,9.96,18.78,19.75,28.44,29.35,4.49,4.46,8.66,9.05,11.86,13.83,17.68-18.75,35.13-37.43,52.39-56.11l-1.36-2.23"/>
  <path class="cls-8" d="m573.19,21.69c.71.84,1,1.91,1,2.94.32-.39.71-.78,1.33-1.26.78-.61,1.45-1,2.04-1.29-1.03-.19-2.04-.78-2.78-1.68-.71-.91-1.03-2.04-1-3.1-.39.52-.94,1.13-1.78,1.78-.55.45-1,.71-1.42.94,1,.23,1.94.78,2.62,1.68"/>
  <path class="cls-8" d="m560.2,30.96c.58-.52,1.49-.45,1.97.13.52.58.48,1.45-.1,1.97s-1.49.45-1.97-.13c-.52-.58-.45-1.45.1-1.97Zm8.4-7.47c.58-.52,1.45-.45,1.97.13s.48,1.45-.13,1.97c-.55.52-1.45.45-1.97-.13-.48-.55-.45-1.45.13-1.97Zm-4.82,11.51c1.42-1.26.84-2.39,3.2-4.46,2.52-2.26,3.85-1.81,5.2-3.01,1.65-1.45,1.78-3.98.32-5.62s-3.98-1.81-5.62-.36c-1.33,1.2-1.1,2.62-3.65,4.88-2.33,2.07-3.3,1.29-4.75,2.59-1.65,1.45-1.81,4.01-.32,5.66,1.45,1.65,3.98,1.81,5.62.32"/>
  <path class="cls-8" d="m308.7,332.36c.61-.81,1.16-1.36,1.68-1.78-1.1.06-2.17-.23-3.1-.94s-1.52-1.71-1.75-2.78c-.26.65-.65,1.33-1.29,2.17-.42.55-.81.97-1.16,1.26,1.03-.03,2.07.29,2.97.97.87.68,1.45,1.62,1.68,2.65.23-.48.52-.97.97-1.55"/>
  <path class="cls-8" d="m297.49,344.78c-.48.58-1.36.71-1.97.26-.61-.48-.71-1.36-.26-1.97.48-.61,1.36-.74,1.97-.26.61.45.71,1.33.26,1.97Zm4.62-10.63c.45-.65,1.33-.74,1.94-.26.61.45.74,1.33.26,1.94-.45.61-1.36.74-1.94.26-.65-.45-.74-1.36-.26-1.94Zm-2.59,12.19c1.16-1.52.39-2.49,2.33-5.01,2.04-2.68,3.43-2.46,4.53-3.91,1.33-1.75,1-4.27-.74-5.59-1.75-1.36-4.23-1.03-5.59.74-1.1,1.39-.58,2.75-2.65,5.46-1.91,2.49-3.01,1.91-4.17,3.46-1.36,1.75-1.03,4.27.74,5.59,1.71,1.36,4.23,1,5.56-.74"/>
  <path class="cls-8" d="m294,351.85c.23-.45.52-.94.97-1.55.61-.81,1.16-1.33,1.68-1.75-1.07.06-2.17-.26-3.1-.97-.94-.68-1.52-1.68-1.71-2.75-.29.61-.68,1.33-1.33,2.17-.42.55-.81.97-1.16,1.26,1.03-.03,2.07.29,2.97.97.87.68,1.45,1.62,1.68,2.62"/>
  <path class="cls-8" d="m283.59,354.92c.39-.55.68-1.16.94-1.81.23-.61.39-1.26.61-1.87.16-.42.36-.78.65-1.13.84-1.1,2.04-1.71,3.3-1.84-1.81-2.04-4.04-3.14-6.85-2.49l-1.26,2.62c.26.13.52.32.74.48,1.87,1.45,2.55,3.91,1.87,6.04"/>
  <path class="cls-8" d="m288.37,352.08c.45-.61,1.36-.74,1.94-.26.61.45.74,1.36.26,1.97-.45.61-1.33.71-1.94.26-.61-.48-.74-1.36-.26-1.97Zm-.26,7.21c2.07-2.68,3.43-2.49,4.53-3.91,1.36-1.78,1-4.27-.74-5.62-1.75-1.33-4.27-1-5.59.74-1.1,1.42-.58,2.75-2.65,5.46-.58.78-1.1,1.26-1.55,1.58,1.49,1.62,3.01,3.23,4.53,4.85.19-.81.42-1.71,1.49-3.1"/>
  <path class="cls-8" d="m322.63,313.75c.61-.81,1.16-1.36,1.68-1.78-1.07.06-2.17-.23-3.1-.94s-1.52-1.71-1.71-2.78c-.29.61-.68,1.33-1.33,2.17-.42.55-.81.97-1.16,1.29,1.03-.03,2.07.26,2.97.94.87.68,1.45,1.62,1.68,2.62.23-.42.52-.94.97-1.52"/>
  <path class="cls-8" d="m309.9,309.22l-1.26,2.59c.26.16.52.32.74.52,1.91,1.42,2.55,3.88,1.87,6.01.39-.55.68-1.13.94-1.78.23-.65.39-1.29.61-1.87.16-.45.36-.81.65-1.16.84-1.07,2.04-1.71,3.3-1.81-1.81-2.04-4.04-3.17-6.85-2.49"/>
  <path class="cls-8" d="m306.96,322.05c-1.42.23-2.94-.1-4.2-1.07-.19-.16-.39-.36-.61-.55.42,2.55,1.68,4.33,3.56,5.49-.16-1.2.13-2.46.94-3.49.1-.13.23-.29.32-.39"/>
  <path class="cls-8" d="m325.16,308.19c-.48.61-1.36.71-1.97.26-.61-.48-.71-1.36-.26-1.97.48-.61,1.36-.71,1.97-.26.61.48.74,1.36.26,1.97Zm4.62-10.63c.45-.61,1.33-.74,1.94-.26.61.45.74,1.33.26,1.97-.45.61-1.33.71-1.94.26-.61-.48-.74-1.36-.26-1.97Zm-2.59,12.19c1.2-1.49.39-2.46,2.33-4.98,2.04-2.68,3.43-2.49,4.53-3.91,1.33-1.78,1-4.27-.74-5.62-1.75-1.33-4.23-1.03-5.59.74-1.1,1.42-.58,2.75-2.65,5.46-1.91,2.49-3.01,1.91-4.17,3.46-1.36,1.75-1.03,4.27.74,5.59,1.75,1.36,4.23,1.03,5.56-.74"/>
  <path class="cls-8" d="m309.48,326.38c-.61-.45-.74-1.36-.26-1.97.45-.61,1.33-.71,1.94-.26.61.48.74,1.36.26,1.97-.45.61-1.33.74-1.94.26Zm6.56-10.89c.45-.61,1.36-.71,1.94-.26.61.48.74,1.36.26,1.97-.45.61-1.33.71-1.94.26-.61-.48-.74-1.36-.26-1.97Zm-2.55,12.22c1.16-1.52.36-2.49,2.29-5.01,2.07-2.68,3.43-2.49,4.53-3.91,1.36-1.75,1-4.27-.74-5.59-1.75-1.36-4.27-1.03-5.59.74-1.1,1.39-.58,2.75-2.65,5.43-1.91,2.49-3.01,1.94-4.17,3.46-1.36,1.78-1,4.27.74,5.62,1.75,1.33,4.27,1,5.59-.74"/>
  <path class="cls-8" d="m336.37,295.78c.58-.74,1.1-1.26,1.55-1.65l-.03-.1c-1.03.03-2.07-.29-2.94-.97-.91-.71-1.52-1.68-1.71-2.78-.29.65-.68,1.36-1.29,2.2-.45.55-.84.94-1.2,1.23,1.03,0,2.1.29,2.97.97.87.71,1.45,1.65,1.68,2.65.23-.45.52-.97.97-1.55"/>
  <path class="cls-8" d="m331.62,287.08c-.61-.68-1.07-1.42-1.45-2.2-.1.03-.16.06-.26.1.48,2.07,1.62,3.52,3.23,4.62-.03-.36-.03-.74,0-1.1-.55-.42-1.03-.87-1.52-1.42"/>
  <path class="cls-8" d="m335.24,292.19c.65.52,1.39.78,2.17.87-.48-1.1-.55-1.81-1.39-2.78-.48-.52-.65-.48-1.33-.81-.32-.19-.61-.36-.94-.52-.03,1.2.48,2.39,1.49,3.23"/>
  <path class="cls-8" d="m405.22,207.28c-.1-.16-.23-.29-.39-.42-.65-.55-1.42-.87-2.2-.97-.1.48-.26.97-.45,1.42.97-.26,2.04-.29,3.04-.03"/>
  <path class="cls-8" d="m406.28,207.67c.39.16.71.39,1.03.61.16-.23.32-.45.52-.68.68-.78,1.26-1.26,1.78-1.65-1.07,0-2.13-.36-3.01-1.13-.91-.78-1.42-1.81-1.58-2.88-.29.61-.74,1.29-1.42,2.07-.29.36-.58.65-.87.91v.32c.91.1,1.78.45,2.52,1.1.45.39.78.84,1.03,1.33"/>
  <path class="cls-8" d="m424.45,188.89c-1.07,0-2.17-.39-3.04-1.16-.91-.74-1.39-1.78-1.55-2.84-.32.58-.74,1.26-1.45,2.07-.45.52-.84.91-1.23,1.2,1.03.03,2.07.42,2.88,1.13.87.74,1.39,1.71,1.55,2.75.23-.45.58-.94,1.03-1.49.68-.78,1.26-1.26,1.81-1.65"/>
  <path class="cls-8" d="m408.58,200.39c.52-.58,1.42-.68,1.97-.16.58.52.65,1.42.16,1.97-.52.61-1.42.68-1.97.16-.61-.52-.65-1.42-.16-1.97Zm7.37-8.5c.52-.58,1.39-.65,1.97-.13s.65,1.39.16,1.97c-.52.58-1.39.65-2,.13-.58-.52-.61-1.39-.13-1.97Zm-8.92,12.44c1.65,1.42,4.17,1.26,5.62-.42,1.26-1.45.52-2.46,2.62-4.85,2.2-2.55,3.56-2.26,4.75-3.62,1.45-1.68,1.26-4.2-.39-5.66-1.68-1.45-4.17-1.26-5.62.39-1.16,1.36-.74,2.72-3.01,5.3-2.04,2.36-3.1,1.71-4.36,3.2-1.45,1.65-1.29,4.2.39,5.66"/>
  <path class="cls-8" d="m425.87,176.83c.39-.55.74-1.1,1.03-1.75.26-.61.45-1.26.71-1.84.19-.42.42-.78.71-1.13.87-1.03,2.1-1.58,3.39-1.62-1.71-2.17-3.85-3.39-6.72-2.88l-1.39,2.55c.23.16.48.36.71.55,1.81,1.55,2.36,4.01,1.55,6.11"/>
  <path class="cls-8" d="m453.93,153.95c-1.1.03-2.17-.36-3.07-1.1-.87-.78-1.42-1.78-1.55-2.88-.32.61-.74,1.29-1.42,2.1-.45.52-.87.94-1.23,1.2,1.03.03,2.04.42,2.91,1.13.84.71,1.36,1.68,1.55,2.72.23-.42.55-.94,1.03-1.49.65-.78,1.26-1.29,1.78-1.68"/>
  <path class="cls-8" d="m423.51,182.78c.48-.58,1.39-.65,1.97-.13.58.48.65,1.36.16,1.97-.52.58-1.39.65-2,.16-.55-.52-.65-1.39-.13-2Zm7.27-8.53c.52-.58,1.39-.68,1.97-.16.61.48.65,1.39.16,1.97s-1.39.68-1.97.16c-.58-.48-.65-1.39-.16-1.97Zm-8.82,12.51c1.68,1.42,4.2,1.23,5.66-.45,1.23-1.45.48-2.46,2.55-4.88,2.2-2.55,3.56-2.29,4.72-3.68,1.42-1.68,1.23-4.2-.45-5.62-1.65-1.42-4.17-1.23-5.59.42-1.2,1.39-.74,2.75-2.94,5.33-2.04,2.39-3.1,1.78-4.36,3.23-1.45,1.68-1.26,4.2.42,5.66"/>
  <path class="cls-8" d="m419.92,184.14c-.1-1.23.26-2.49,1.1-3.46l.39-.39c-1.45.16-2.97-.26-4.17-1.29-.19-.16-.39-.36-.55-.55.23,2.55,1.42,4.4,3.23,5.69"/>
  <path class="cls-8" d="m438.15,165.62c.52-.61,1.39-.68,1.97-.19.61.52.68,1.42.16,1.97-.48.61-1.39.68-1.97.19-.58-.52-.65-1.42-.16-1.97Zm7.3-8.57c.48-.58,1.39-.68,1.97-.16s.65,1.39.16,1.97c-.52.58-1.39.65-2,.16-.55-.52-.65-1.39-.13-1.97Zm-8.82,12.51c1.68,1.42,4.2,1.23,5.62-.45,1.23-1.45.52-2.49,2.59-4.88,2.17-2.55,3.56-2.29,4.72-3.68,1.42-1.68,1.23-4.2-.45-5.62s-4.2-1.23-5.62.45c-1.16,1.36-.74,2.72-2.94,5.3-2.04,2.39-3.1,1.75-4.36,3.23-1.42,1.68-1.23,4.2.45,5.66"/>
  <path class="cls-8" d="m436.44,174.31c.23-.42.55-.91,1.03-1.49.68-.78,1.26-1.29,1.78-1.65-1.1,0-2.17-.39-3.04-1.13-.91-.74-1.42-1.78-1.58-2.84-.29.61-.74,1.29-1.42,2.1-.45.52-.87.91-1.23,1.2,1.03.03,2.07.39,2.91,1.1.84.74,1.36,1.71,1.55,2.72"/>
  <path class="cls-8" d="m452.96,148.13c.52-.58,1.42-.65,2-.13s.61,1.39.13,1.97c-.52.58-1.42.65-1.97.13-.61-.52-.65-1.39-.16-1.97Zm7.43-8.44c.52-.58,1.39-.65,1.97-.13.58.48.61,1.39.13,1.97-.52.58-1.39.65-1.97.13s-.65-1.39-.13-1.97Zm-9.02,12.35c1.68,1.49,4.2,1.33,5.66-.36,1.26-1.42.52-2.46,2.62-4.82,2.23-2.55,3.59-2.26,4.78-3.62,1.45-1.65,1.29-4.2-.36-5.66s-4.2-1.29-5.62.39c-1.2,1.33-.78,2.72-3.01,5.27-2.07,2.36-3.14,1.71-4.4,3.17-1.49,1.65-1.33,4.17.32,5.62"/>
  <path class="cls-8" d="m455.41,142.18c.42-.52.78-1.07,1.07-1.71.29-.61.45-1.26.74-1.84.19-.42.42-.78.71-1.1.91-1.03,2.17-1.55,3.39-1.58-1.65-2.17-3.78-3.43-6.66-2.94l-1.42,2.52c.26.16.48.32.71.52,1.81,1.58,2.33,4.07,1.45,6.14"/>
  <path class="cls-8" d="m466.01,139.86c.26-.45.58-.94,1.07-1.49.68-.74,1.26-1.26,1.81-1.62-1.1-.03-2.17-.42-3.04-1.2s-1.39-1.78-1.55-2.88c-.29.61-.74,1.29-1.42,2.1-.48.48-.87.87-1.26,1.16,1.03.06,2.07.42,2.88,1.16.87.74,1.36,1.71,1.52,2.75"/>
  <path class="cls-8" d="m483.79,119.72c-1.07,0-2.17-.39-3.04-1.13-.87-.78-1.39-1.81-1.52-2.88-.32.58-.74,1.26-1.45,2.04-.45.55-.87.94-1.23,1.2,1,.03,2.04.42,2.88,1.16s1.33,1.71,1.52,2.75c.23-.42.58-.91,1.07-1.49.65-.74,1.26-1.26,1.78-1.65"/>
  <path class="cls-8" d="m467.89,131.13c.48-.55,1.39-.61,1.97-.1.55.52.61,1.39.1,1.97-.48.55-1.39.61-1.97.13-.55-.52-.61-1.39-.1-2Zm7.4-8.44c.52-.58,1.39-.65,1.97-.13s.65,1.39.13,1.97c-.52.61-1.39.65-1.97.13s-.65-1.39-.13-1.97Zm-8.99,12.38c1.65,1.45,4.17,1.29,5.62-.36,1.26-1.45.55-2.46,2.62-4.85,2.23-2.52,3.59-2.26,4.78-3.62,1.45-1.65,1.29-4.17-.36-5.62-1.68-1.45-4.17-1.29-5.62.36-1.2,1.36-.78,2.72-3.01,5.27-2.07,2.36-3.14,1.71-4.43,3.17-1.45,1.68-1.26,4.2.39,5.66"/>
  <path class="cls-8" d="m449.37,149.39c-.06-1.2.29-2.42,1.16-3.43l.36-.36c-1.42.13-2.94-.29-4.1-1.36-.23-.16-.39-.36-.58-.58.23,2.59,1.39,4.43,3.17,5.72"/>
  <path class="cls-8" d="m485.54,108.21c.42-.52.81-1.07,1.1-1.68s.48-1.26.78-1.84c.19-.39.42-.78.74-1.07.91-1,2.17-1.52,3.43-1.52-1.62-2.2-3.72-3.52-6.59-3.1l-1.49,2.49c.26.16.48.36.71.55,1.75,1.62,2.2,4.1,1.33,6.17"/>
  <path class="cls-8" d="m498.21,97.45c.55-.58,1.42-.61,2-.1.55.52.58,1.39.06,1.97s-1.39.61-1.97.1c-.55-.52-.61-1.42-.1-1.97Zm7.6-8.31c.52-.55,1.42-.61,1.97-.06.58.52.61,1.39.1,1.97-.52.55-1.42.58-1.97.06-.58-.52-.61-1.39-.1-1.97Zm-3.62,11.93c1.29-1.39.61-2.42,2.75-4.78,2.26-2.49,3.65-2.17,4.85-3.49,1.49-1.62,1.39-4.17-.26-5.66-1.62-1.49-4.14-1.39-5.62.26-1.2,1.33-.81,2.68-3.1,5.2-2.13,2.29-3.17,1.65-4.49,3.07-1.49,1.62-1.36,4.17.26,5.66s4.14,1.39,5.62-.26"/>
  <path class="cls-8" d="m496.17,106.11c.26-.45.61-.94,1.1-1.45.71-.74,1.29-1.26,1.84-1.62-1.07-.03-2.17-.42-3.01-1.23-.87-.78-1.36-1.84-1.49-2.91-.32.58-.78,1.26-1.49,2.04-.48.52-.87.87-1.26,1.16,1,.06,2.04.45,2.84,1.23.84.74,1.33,1.75,1.45,2.78"/>
  <path class="cls-8" d="m482.95,114.1c.55-.55,1.42-.61,2-.06.55.48.58,1.39.06,1.97-.52.55-1.39.58-1.97.06s-.61-1.39-.1-1.97Zm7.6-8.27c.52-.58,1.42-.61,1.97-.1.58.52.61,1.39.1,1.97s-1.42.61-1.97.1c-.58-.52-.61-1.39-.1-1.97Zm-9.24,12.15c1.62,1.49,4.14,1.42,5.62-.23,1.29-1.42.61-2.46,2.75-4.78,2.26-2.49,3.62-2.17,4.85-3.49,1.49-1.65,1.39-4.17-.26-5.66-1.62-1.49-4.14-1.39-5.62.23-1.2,1.33-.84,2.72-3.14,5.24-2.1,2.29-3.17,1.62-4.46,3.07-1.49,1.62-1.36,4.17.26,5.62"/>
  <path class="cls-8" d="m479.33,115.29c-.06-1.2.36-2.46,1.23-3.39l.39-.39c-1.45.13-2.94-.36-4.1-1.42-.19-.19-.39-.36-.55-.58.16,2.59,1.26,4.43,3.04,5.79"/>
  <path class="cls-8" d="m514.37,86.36c-1.07-.03-2.13-.45-3.01-1.2-.84-.81-1.36-1.84-1.45-2.94-.32.61-.78,1.26-1.52,2.04-.45.52-.87.91-1.26,1.16,1.03.06,2.04.48,2.88,1.23.81.74,1.29,1.75,1.45,2.75.23-.42.58-.87,1.1-1.42.68-.74,1.26-1.26,1.81-1.62"/>
  <path class="cls-8" d="m528.91,64c.52-.55,1.42-.58,1.97-.06.58.52.58,1.42.06,1.97-.52.58-1.39.61-1.97.06-.55-.52-.58-1.39-.06-1.97Zm7.66-8.21c.55-.55,1.42-.58,2-.06.55.55.58,1.42.06,1.97-.55.58-1.42.61-1.97.06-.58-.52-.61-1.42-.1-1.97Zm-3.72,11.89c1.29-1.39.61-2.42,2.78-4.75,2.29-2.46,3.65-2.13,4.88-3.46,1.52-1.62,1.42-4.14-.19-5.66-1.58-1.49-4.1-1.42-5.62.19-1.23,1.29-.84,2.68-3.17,5.17-2.13,2.29-3.17,1.62-4.53,3.04-1.49,1.62-1.42,4.17.19,5.66,1.62,1.52,4.14,1.42,5.66-.19"/>
  <path class="cls-8" d="m509.87,81.68c-.06-1.2.36-2.42,1.26-3.39.1-.13.23-.26.36-.36-1.45.06-2.91-.42-4.07-1.49-.19-.16-.39-.39-.55-.58.13,2.59,1.23,4.43,3.01,5.82"/>
  <path class="cls-8" d="m513.49,80.51c.52-.55,1.42-.58,1.97-.06s.58,1.42.06,1.97c-.52.58-1.42.58-1.97.06s-.58-1.42-.06-1.97Zm7.66-8.21c.55-.58,1.42-.58,1.97-.06.58.52.61,1.42.06,1.97-.52.58-1.39.58-1.97.06-.55-.52-.58-1.42-.06-1.97Zm-9.37,12.09c1.62,1.52,4.14,1.42,5.66-.19,1.29-1.39.61-2.46,2.78-4.75,2.29-2.46,3.65-2.13,4.88-3.46,1.52-1.62,1.42-4.14-.19-5.66-1.58-1.49-4.14-1.42-5.62.19-1.23,1.33-.87,2.68-3.17,5.17-2.13,2.29-3.2,1.62-4.49,3.04-1.52,1.62-1.42,4.14.16,5.66"/>
  <path class="cls-8" d="m516.14,74.66c.42-.52.78-1.1,1.1-1.68.29-.61.48-1.26.81-1.84.19-.39.42-.74.74-1.07.94-1,2.2-1.49,3.43-1.49-1.55-2.2-3.65-3.52-6.53-3.17l-1.55,2.49c.26.16.48.36.71.58,1.75,1.62,2.2,4.1,1.29,6.17"/>
  <path class="cls-8" d="m526.78,72.63c.26-.42.61-.87,1.13-1.42.71-.74,1.29-1.23,1.84-1.58-1.1-.03-2.13-.48-3.01-1.26-.84-.81-1.33-1.84-1.45-2.94-.32.61-.78,1.26-1.49,2.04-.48.52-.91.87-1.29,1.16,1.03.06,2.04.48,2.84,1.23.84.78,1.29,1.75,1.42,2.78"/>
  <path class="cls-8" d="m542.23,56.11c.26-.42.61-.87,1.1-1.42.71-.74,1.29-1.23,1.84-1.62-1.07,0-2.13-.45-2.97-1.23-.87-.81-1.36-1.84-1.45-2.94-.32.61-.78,1.26-1.52,2.04-.48.52-.87.87-1.29,1.16,1.03.06,2.07.48,2.84,1.23.84.74,1.33,1.75,1.45,2.78"/>
  <path class="cls-8" d="m557.9,39.66c.26-.42.61-.91,1.13-1.42.71-.74,1.33-1.23,1.84-1.58-1.07-.03-2.13-.48-2.94-1.29-.87-.78-1.33-1.84-1.42-2.94-.36.61-.81,1.26-1.55,2.04-.48.48-.91.87-1.29,1.1,1.03.1,2.04.52,2.84,1.29s1.26,1.78,1.39,2.81"/>
  <path class="cls-8" d="m547.24,41.53c.42-.52.78-1.03,1.1-1.65s.52-1.23.84-1.84c.19-.39.45-.74.74-1.03.94-1,2.23-1.49,3.49-1.45-1.58-2.23-3.65-3.59-6.53-3.23l-1.55,2.46c.23.16.45.36.71.58,1.68,1.65,2.1,4.14,1.2,6.17"/>
  <path class="cls-8" d="m540.87,48.48c-.03-1.2.39-2.42,1.29-3.36l.39-.39c-1.45.1-2.94-.39-4.07-1.49-.19-.19-.36-.39-.55-.61.13,2.59,1.2,4.46,2.94,5.85"/>
  <path class="cls-8" d="m544.52,47.38c.52-.58,1.42-.58,1.97-.06.55.55.58,1.42.03,2-.52.55-1.42.55-1.97.03-.55-.55-.58-1.42-.03-1.97Zm7.76-8.11c.52-.58,1.42-.58,1.97-.06.55.55.58,1.42.03,1.97-.52.55-1.39.58-1.97.06-.55-.55-.55-1.42-.03-1.97Zm-9.53,11.96c1.62,1.52,4.14,1.49,5.66-.13,1.33-1.39.65-2.42,2.84-4.72,2.33-2.42,3.68-2.1,4.91-3.39,1.55-1.58,1.49-4.14-.1-5.66-1.62-1.52-4.14-1.49-5.66.13-1.23,1.29-.87,2.68-3.23,5.14-2.17,2.26-3.2,1.58-4.53,2.97-1.52,1.58-1.49,4.14.1,5.66"/>
  <g class="cls-2">
    <path class="cls-8" d="m587.03,10.15c.36-.26.78-.42,1.2-.55,1.29-.39,2.62-.19,3.72.48-.26-2.72-1.39-4.95-4.07-6.08l-2.55,1.39c.1.26.23.55.32.84.68,2.26-.23,4.65-2.04,5.98.61-.26,1.23-.55,1.81-.91.55-.39,1.03-.81,1.62-1.16"/>
  </g>
  <path class="cls-8" d="m578.36,15.9c.74-.19,1.52.19,1.75.94s-.19,1.55-.94,1.75c-.74.23-1.52-.19-1.75-.94s.19-1.52.94-1.75Zm10.76-3.17c.74-.23,1.52.19,1.75.94s-.19,1.52-.94,1.75c-.74.19-1.52-.23-1.75-.97s.19-1.52.94-1.71Zm-14.19,5.66c.61,2.1,2.84,3.33,4.98,2.68,1.81-.52,1.75-1.78,4.78-2.68,3.23-.94,4.23.03,5.98-.48,2.1-.61,3.3-2.84,2.68-4.98-.61-2.1-2.84-3.33-4.98-2.72-1.71.52-2.07,1.91-5.33,2.88-3.01.87-3.56-.23-5.43.32-2.1.65-3.3,2.88-2.68,4.98"/>
  <path class="cls-8" d="m577.46,12.8c.16-.06.32-.1.52-.13-1.33-.65-2.36-1.81-2.81-3.33-.06-.26-.13-.55-.16-.81-1.16,2.29-1.16,4.46-.36,6.53.58-1.07,1.55-1.91,2.81-2.26"/>
  <path class="cls-8" d="m594.01,16.39c.48-.13,1.07-.26,1.81-.32,1-.13,1.78-.1,2.42,0-.81-.74-1.33-1.75-1.42-2.91-.13-1.16.19-2.26.81-3.17-.65.23-1.42.42-2.46.52-.68.1-1.26.1-1.71.03.71.74,1.2,1.71,1.33,2.81.1,1.13-.19,2.2-.78,3.04"/>
  <path class="cls-8" d="m600.7,12.09c.26-.71,1.07-1.1,1.78-.84.74.29,1.1,1.1.84,1.81-.26.74-1.07,1.1-1.81.81-.71-.26-1.1-1.03-.81-1.78Zm10.5,3.91c.26-.74,1.07-1.1,1.81-.84.71.26,1.1,1.07.81,1.81-.26.71-1.07,1.1-1.78.81-.74-.26-1.1-1.07-.84-1.78Zm-10.6.32c1.81.68,2.49-.39,5.46.74,3.17,1.16,3.39,2.52,5.07,3.17,2.07.78,4.36-.29,5.11-2.36.78-2.07-.29-4.4-2.33-5.14-1.68-.61-2.81.26-6.01-.94-2.91-1.07-2.72-2.29-4.53-2.97-2.07-.78-4.36.29-5.11,2.36-.78,2.07.26,4.4,2.33,5.14"/>
  <path class="cls-8" d="m613.85,21.01c.45.23.91.55,1.49,1,.81.68,1.33,1.23,1.71,1.75-.03-1.07.32-2.17,1.07-3.04.71-.94,1.75-1.45,2.81-1.65-.61-.29-1.29-.71-2.1-1.39-.55-.45-.94-.84-1.23-1.2,0,1.03-.36,2.04-1.07,2.91s-1.68,1.42-2.68,1.62"/>
  <path class="cls-8" d="m628.56,29.45c.42.48.94.91,1.39,1.42.29.32.52.68.71,1.07.58,1.23.58,2.62.1,3.78,2.65-.68,4.65-2.13,5.33-4.98l-1.75-2.33c-.23.19-.48.32-.78.48-2.13,1-4.62.48-6.21-1.1.32.58.71,1.13,1.2,1.65"/>
  <path class="cls-8" d="m625.84,21.78c.1.16.16.32.19.48.45-1.39,1.45-2.59,2.88-3.26.23-.13.48-.23.74-.29-2.46-.81-4.59-.48-6.5.65,1.16.42,2.13,1.23,2.68,2.42"/>
  <path class="cls-8" d="m621.06,22.5c.68-.32,1.52,0,1.84.68.36.71.03,1.52-.65,1.87-.71.32-1.52.03-1.87-.68-.32-.68-.03-1.52.68-1.87Zm4.78,10.18c.71-.32,1.55-.03,1.87.65.32.71.03,1.55-.68,1.87-.68.36-1.52.03-1.84-.65-.32-.71-.03-1.55.65-1.87Zm-7.79-7.21c.81,1.75,2.04,1.49,3.39,4.36,1.42,3.04.65,4.2,1.42,5.82.94,2,3.3,2.84,5.3,1.91,1.97-.94,2.81-3.33,1.87-5.33-.74-1.62-2.17-1.78-3.62-4.85-1.36-2.84-.36-3.56-1.16-5.3-.94-2-3.33-2.84-5.33-1.91-1.97.94-2.81,3.33-1.87,5.3"/>
  <path class="cls-8" d="m627.88,40.66c1.16-.26,2.29-.06,3.23.45-.29-.61-.58-1.36-.81-2.39-.16-.68-.23-1.23-.23-1.71-.65.81-1.55,1.42-2.65,1.68-1.07.23-2.17.06-3.1-.39.23.45.42,1,.58,1.71.23,1,.29,1.78.29,2.42.61-.87,1.55-1.52,2.68-1.78"/>
  <path class="cls-8" d="m625.97,56.24c.1-.74.81-1.29,1.58-1.16.74.13,1.29.84,1.16,1.58-.13.78-.84,1.29-1.58,1.16-.78-.1-1.29-.81-1.16-1.58Zm1.68-11.12c.13-.74.84-1.29,1.62-1.16s1.26.84,1.16,1.58c-.13.78-.84,1.29-1.58,1.16-.78-.1-1.29-.81-1.2-1.58Zm-.94,15.29c2.17.32,4.23-1.16,4.56-3.36.26-1.75-.81-2.68-.29-6.04.48-3.1,1.71-3.14,2-5.04.36-2.2-1.16-4.23-3.33-4.56-2.2-.36-4.2,1.13-4.56,3.33-.29,1.91.87,2.36.39,5.49-.52,3.36-1.84,3.85-2.1,5.62-.32,2.17,1.16,4.2,3.33,4.56"/>
  <path class="cls-8" d="m622.55,60.51c-.39.97-.78,1.62-1.13,2.17,1-.36,2.17-.36,3.23.06,1.1.45,1.91,1.26,2.39,2.23.1-.68.29-1.45.68-2.46.26-.61.55-1.13.81-1.52-1,.29-2.07.29-3.1-.13-1.07-.42-1.84-1.16-2.33-2.1-.1.48-.26,1.07-.55,1.75"/>
  <path class="cls-8" d="m630.56,70.91c.23.16.45.32.65.48-.65-2.49-2.07-4.1-4.04-5.11.26,1.16.1,2.46-.58,3.56-.1.16-.19.29-.32.45,1.42-.39,2.97-.19,4.3.61"/>
  <path class="cls-8" d="m623.84,68.13c-.42.65-1.29.84-1.94.42-.68-.42-.87-1.26-.45-1.91.42-.68,1.26-.87,1.91-.45.68.42.87,1.26.48,1.94Zm-5.98,9.53c-.42.65-1.26.84-1.91.42-.68-.39-.87-1.26-.45-1.91.42-.68,1.26-.87,1.91-.45.68.39.87,1.29.45,1.94Zm6.88-13.7c-1.87-1.16-4.33-.58-5.49,1.29-1,1.62-.13,2.52-1.81,5.2-1.78,2.84-3.17,2.81-4.14,4.33-1.16,1.87-.61,4.33,1.26,5.49s4.33.61,5.49-1.26c.94-1.52.32-2.78,2.13-5.69,1.65-2.65,2.81-2.2,3.81-3.85,1.16-1.87.61-4.33-1.26-5.53"/>
  <path class="cls-8" d="m624.55,83.33l1.03-2.72c-.29-.13-.55-.26-.81-.42-2-1.26-2.91-3.62-2.42-5.82-.32.58-.58,1.2-.74,1.87-.19.65-.26,1.29-.45,1.94-.13.42-.29.81-.52,1.2-.74,1.16-1.87,1.87-3.1,2.1,1.97,1.87,4.3,2.78,7.01,1.84"/>
  <path class="cls-8" d="m612.75,82.71c.97.61,1.65,1.52,1.97,2.59.19-.65.52-1.39,1.1-2.29.36-.58.71-1.03,1.03-1.36-1.03.13-2.1-.1-3.04-.68-.94-.61-1.62-1.49-1.94-2.46-.16.45-.42.97-.81,1.62-.55.84-1.03,1.45-1.52,1.91,1.07-.16,2.2.03,3.2.68"/>
  <path class="cls-8" d="m611.17,87.56c-.45.58-1.36.71-1.97.23s-.71-1.36-.23-1.97,1.36-.71,1.97-.23c.58.48.71,1.36.23,1.97Zm-6.92,8.86c-.45.58-1.36.71-1.94.23-.61-.48-.71-1.36-.26-1.97.48-.61,1.36-.71,1.97-.23s.71,1.36.23,1.97Zm8.95-7.27c1.36-1.75,1.07-4.23-.68-5.62-1.75-1.33-4.23-1.03-5.62.68-1.16,1.52-.39,2.52-2.33,5.01-2.07,2.65-3.46,2.46-4.56,3.88-1.36,1.75-1.03,4.23.68,5.62,1.75,1.36,4.27,1.03,5.59-.71,1.1-1.39.61-2.75,2.72-5.43,1.94-2.46,3.01-1.91,4.2-3.43"/>
  <path class="cls-8" d="m617.6,91.05c.19.16.39.36.58.52-.36-2.52-1.62-4.3-3.49-5.49.13,1.2-.16,2.46-.97,3.49-.1.13-.23.29-.36.39,1.45-.23,2.97.13,4.23,1.1"/>
  <path class="cls-8" d="m608.1,95.38c-.23.65-.39,1.29-.61,1.87-.16.42-.39.81-.65,1.16-.84,1.07-2.07,1.68-3.3,1.78,1.75,2.07,3.98,3.2,6.79,2.55l1.29-2.59c-.26-.16-.52-.32-.74-.52-1.87-1.45-2.55-3.91-1.81-6.04-.39.55-.71,1.16-.97,1.78"/>
  <path class="cls-8" d="m586.83,121.43c.29-.58.68-1.29,1.33-2.13.42-.55.84-.97,1.2-1.26-1.03.03-2.07-.29-2.97-1-.87-.68-1.45-1.62-1.68-2.62-.19.42-.48.94-.97,1.52-.61.81-1.16,1.33-1.68,1.75,1.07-.06,2.17.26,3.1.97.91.74,1.49,1.75,1.68,2.78"/>
  <path class="cls-8" d="m590.39,114.22c-.48.61-1.39.71-1.97.26-.61-.48-.71-1.36-.26-1.97.48-.61,1.36-.71,1.97-.23.61.45.71,1.33.26,1.94Zm4.69-10.57c.48-.61,1.36-.71,1.97-.26.58.48.71,1.36.23,1.97-.45.61-1.36.71-1.97.26-.58-.48-.71-1.39-.23-1.97Zm-2.65,12.19c1.1-1.42.61-2.78,2.68-5.46,1.94-2.46,3.04-1.87,4.2-3.43,1.39-1.75,1.07-4.23-.68-5.59-1.75-1.39-4.23-1.07-5.59.68-1.2,1.52-.42,2.49-2.36,4.98-2.07,2.68-3.46,2.46-4.56,3.88-1.36,1.75-1.03,4.27.68,5.62,1.75,1.36,4.27,1.03,5.62-.68"/>
  <path class="cls-8" d="m602.06,101.46c.45-.55.84-.94,1.2-1.26-1.03.03-2.1-.29-2.97-.97-.87-.71-1.42-1.65-1.65-2.65-.23.42-.55.94-1,1.52-.61.81-1.16,1.36-1.68,1.75,1.07-.06,2.17.26,3.1,1,.91.71,1.49,1.71,1.68,2.78.29-.61.68-1.33,1.33-2.17"/>
  <path class="cls-8" d="m562.36,150.55c-.48.61-1.36.71-1.97.26-.61-.48-.71-1.39-.23-1.97.45-.61,1.36-.74,1.94-.26.65.48.74,1.36.26,1.97Zm4.69-10.6c.48-.61,1.39-.71,1.97-.23.61.48.71,1.36.26,1.94-.48.61-1.36.74-1.97.26s-.71-1.36-.26-1.97Zm-2.65,12.19c1.1-1.39.61-2.75,2.68-5.43,1.94-2.46,3.04-1.91,4.23-3.43,1.36-1.75,1.03-4.27-.71-5.59-1.71-1.39-4.23-1.07-5.59.68-1.16,1.52-.39,2.49-2.33,4.98-2.1,2.65-3.46,2.46-4.56,3.88-1.36,1.75-1.07,4.27.68,5.59,1.75,1.39,4.23,1.07,5.59-.68"/>
  <path class="cls-8" d="m583.18,123.86c-.48.61-1.36.74-1.97.26s-.71-1.36-.26-1.97c.48-.61,1.36-.71,1.97-.23.61.45.71,1.33.26,1.94Zm-6.92,8.86c-.48.61-1.36.74-1.97.26s-.71-1.36-.23-1.97c.45-.61,1.33-.71,1.94-.23.61.45.74,1.33.26,1.94Zm8.95-7.24c1.36-1.75,1.03-4.27-.71-5.62-1.71-1.36-4.23-1.07-5.59.68-1.16,1.52-.39,2.49-2.33,5.01-2.1,2.65-3.46,2.46-4.56,3.85-1.39,1.75-1.07,4.27.68,5.62,1.71,1.36,4.23,1.07,5.59-.68,1.1-1.42.61-2.78,2.68-5.46,1.94-2.46,3.04-1.87,4.23-3.39"/>
  <path class="cls-8" d="m557.13,154.98c.94.71,1.52,1.71,1.71,2.78.26-.61.68-1.29,1.33-2.13.42-.58.81-.97,1.16-1.26-1.03,0-2.07-.32-2.94-1-.91-.68-1.45-1.62-1.68-2.65-.19.45-.52.97-.97,1.55-.65.78-1.2,1.33-1.68,1.75,1.07-.06,2.17.26,3.07.97"/>
  <path class="cls-8" d="m589.58,127.38c.23.16.42.32.61.52-.39-2.55-1.65-4.3-3.52-5.53.16,1.23-.13,2.49-.94,3.52-.1.13-.23.26-.36.39,1.45-.23,2.97.1,4.2,1.1"/>
  <path class="cls-8" d="m580.11,131.71c-.23.61-.39,1.26-.65,1.87-.16.42-.36.81-.65,1.16-.84,1.07-2.04,1.68-3.3,1.75,1.78,2.07,3.98,3.2,6.82,2.59l1.29-2.62c-.26-.13-.52-.29-.78-.48-1.87-1.45-2.52-3.91-1.78-6.04-.42.55-.71,1.13-.97,1.78"/>
  <path class="cls-8" d="m574.06,137.79c.42-.55.81-.97,1.16-1.26-1.03,0-2.07-.29-2.94-1-.87-.68-1.42-1.62-1.68-2.65-.23.45-.52.97-.97,1.55-.61.81-1.16,1.33-1.68,1.75,1.07-.06,2.17.26,3.07.97.94.74,1.49,1.75,1.71,2.81.26-.65.68-1.33,1.33-2.17"/>
  <path class="cls-8" d="m561.69,163.52c.23.16.42.39.58.58-.29-2.59-1.49-4.4-3.33-5.62.13,1.2-.23,2.46-1.03,3.46l-.39.39c1.45-.19,2.97.19,4.17,1.2"/>
  <path class="cls-8" d="m545.91,173.5c.45-.52.84-.91,1.2-1.2-1.03-.03-2.04-.36-2.91-1.07s-1.42-1.68-1.62-2.68c-.23.42-.55.94-1,1.49-.65.78-1.23,1.33-1.75,1.71,1.07-.03,2.17.32,3.07,1.03.91.74,1.45,1.78,1.62,2.84.29-.61.71-1.29,1.39-2.13"/>
  <path class="cls-8" d="m530.17,193.09c.29-.58.71-1.29,1.36-2.1.45-.55.87-.94,1.23-1.23-1.03,0-2.07-.36-2.94-1.07-.84-.71-1.39-1.65-1.58-2.68-.23.42-.55.94-1.03,1.49-.65.81-1.2,1.33-1.71,1.71,1.07-.03,2.17.32,3.04,1.07.91.74,1.45,1.75,1.65,2.81"/>
  <path class="cls-8" d="m533.86,185.98c-.48.61-1.36.68-1.94.19-.61-.52-.68-1.39-.19-1.97.48-.61,1.36-.68,1.97-.19.58.48.68,1.36.16,1.97Zm5.01-10.47c.48-.58,1.36-.68,1.97-.19.58.52.68,1.39.19,1.97-.48.61-1.39.68-1.97.19-.61-.48-.68-1.36-.19-1.97Zm-3.01,12.12c1.16-1.39.68-2.75,2.84-5.37,2-2.42,3.07-1.81,4.3-3.33,1.42-1.68,1.16-4.2-.52-5.62-1.71-1.39-4.23-1.13-5.62.55-1.23,1.49-.45,2.49-2.49,4.95-2.13,2.59-3.52,2.36-4.65,3.75-1.39,1.68-1.16,4.2.55,5.62,1.68,1.39,4.2,1.16,5.59-.55"/>
  <path class="cls-8" d="m555.38,159.86c-.52.58-1.39.68-1.97.16-.61-.48-.68-1.36-.19-1.97.48-.58,1.39-.68,1.97-.16.58.48.68,1.36.19,1.97Zm-7.14,8.66c-.52.58-1.39.68-1.97.19s-.68-1.39-.19-1.97c.48-.61,1.39-.68,1.97-.19.61.48.68,1.39.19,1.97Zm9.15-7.01c1.39-1.71,1.13-4.23-.55-5.62-1.71-1.42-4.2-1.16-5.62.52-1.2,1.49-.45,2.49-2.49,4.95-2.13,2.59-3.49,2.33-4.65,3.75-1.39,1.71-1.13,4.23.55,5.62,1.68,1.42,4.2,1.16,5.62-.55,1.13-1.36.68-2.72,2.84-5.37,1.97-2.39,3.07-1.81,4.3-3.3"/>
  <path class="cls-8" d="m552.12,167.62c-.26.61-.42,1.26-.68,1.87-.19.39-.39.78-.68,1.1-.87,1.07-2.1,1.65-3.36,1.68,1.71,2.13,3.88,3.33,6.76,2.75l1.36-2.55c-.26-.16-.52-.32-.74-.52-1.84-1.52-2.42-3.98-1.65-6.08-.39.52-.74,1.1-1,1.75"/>
  <path class="cls-8" d="m517.28,208.57c.45-.55.84-.94,1.23-1.23-1.03-.03-2.07-.39-2.91-1.1-.87-.71-1.39-1.68-1.58-2.72-.23.45-.55.94-1.03,1.49-.65.81-1.23,1.33-1.78,1.68,1.1,0,2.17.36,3.07,1.13.87.74,1.42,1.75,1.58,2.84.32-.61.74-1.29,1.42-2.1"/>
  <path class="cls-8" d="m533.18,198.78c.19.16.42.36.58.55-.26-2.55-1.45-4.36-3.26-5.66.1,1.23-.26,2.46-1.1,3.46-.1.13-.23.26-.36.39,1.45-.16,2.94.23,4.14,1.26"/>
  <path class="cls-8" d="m526.91,195c-.48.61-1.39.68-1.97.19-.58-.52-.65-1.39-.13-1.97.48-.61,1.36-.68,1.94-.19.61.52.68,1.39.16,1.97Zm-7.24,8.6c-.52.58-1.39.68-1.97.16-.58-.48-.68-1.36-.16-1.97.48-.58,1.36-.65,1.97-.16.58.52.65,1.39.16,1.97Zm9.21-6.88c1.42-1.71,1.23-4.2-.45-5.66-1.68-1.42-4.2-1.23-5.62.48-1.23,1.45-.48,2.46-2.55,4.88-2.17,2.59-3.56,2.29-4.72,3.68-1.42,1.68-1.2,4.23.48,5.62,1.68,1.45,4.2,1.23,5.62-.45,1.16-1.36.71-2.72,2.91-5.33,2.04-2.39,3.1-1.75,4.33-3.23"/>
  <path class="cls-8" d="m510.2,210.45c.48-.58,1.39-.65,1.97-.16.58.52.65,1.39.16,1.97-.52.61-1.39.68-1.97.19-.61-.52-.68-1.42-.16-2Zm-5.14,10.41c-.48.58-1.36.65-1.97.16-.58-.52-.65-1.39-.16-1.97.52-.61,1.39-.68,1.97-.16.58.48.68,1.39.16,1.97Zm9.24-6.88c1.42-1.71,1.2-4.23-.48-5.66s-4.17-1.23-5.59.48c-1.26,1.45-.52,2.46-2.55,4.88-2.17,2.55-3.56,2.29-4.72,3.68-1.42,1.68-1.23,4.2.45,5.62s4.2,1.23,5.62-.45c1.16-1.39.74-2.75,2.94-5.33,2-2.39,3.07-1.78,4.33-3.23"/>
  <path class="cls-8" d="m523.55,202.75c-.26.61-.42,1.23-.71,1.84-.19.42-.42.78-.68,1.1-.91,1.07-2.13,1.62-3.39,1.65,1.71,2.13,3.88,3.36,6.72,2.84l1.39-2.55c-.26-.16-.52-.32-.74-.55-1.81-1.52-2.36-3.98-1.58-6.11-.39.55-.71,1.13-1,1.78"/>
  <path class="cls-8" d="m499.4,220.79c-.23.45-.55.94-1.03,1.52-.65.74-1.23,1.29-1.75,1.65,1.07,0,2.17.36,3.04,1.13.91.74,1.42,1.75,1.58,2.84.32-.61.74-1.29,1.42-2.1.45-.55.87-.94,1.23-1.23-1.03,0-2.07-.36-2.91-1.1-.84-.71-1.39-1.68-1.58-2.72"/>
  <path class="cls-8" d="m499.69,232.59c1.42-.13,2.91.32,4.1,1.36.23.19.39.39.55.58-.19-2.55-1.33-4.4-3.14-5.72.1,1.2-.29,2.46-1.16,3.43l-.36.36"/>
  <path class="cls-8" d="m468.47,256.7c-.65.74-1.26,1.26-1.78,1.65,1.07,0,2.17.39,3.01,1.16.91.78,1.39,1.81,1.55,2.88.32-.58.74-1.26,1.45-2.07.45-.52.87-.91,1.26-1.16-1.03-.06-2.07-.45-2.91-1.2s-1.33-1.71-1.49-2.75c-.26.45-.61.94-1.1,1.49"/>
  <path class="cls-8" d="m494.07,237.69c-.26.61-.45,1.26-.74,1.84-.19.39-.42.78-.71,1.1-.91,1-2.17,1.55-3.43,1.58,1.65,2.17,3.78,3.43,6.66,2.97l1.45-2.52c-.26-.16-.48-.32-.71-.55-1.81-1.58-2.29-4.07-1.45-6.14-.42.52-.78,1.1-1.07,1.71"/>
  <path class="cls-8" d="m483.47,239.76c-.68.74-1.26,1.26-1.81,1.62,1.1.03,2.17.42,3.04,1.2s1.39,1.81,1.52,2.88c.32-.61.74-1.26,1.45-2.07.45-.52.87-.91,1.26-1.16-1.03-.06-2.07-.45-2.88-1.2-.87-.71-1.36-1.71-1.52-2.72-.26.42-.58.91-1.07,1.45"/>
  <path class="cls-8" d="m495.52,228.19c.52-.58,1.39-.65,1.97-.13s.61,1.42.1,2c-.48.58-1.39.61-1.94.1-.58-.48-.65-1.39-.13-1.97Zm-5.33,10.28c-.52.58-1.42.65-2,.13s-.61-1.42-.13-1.97c.52-.58,1.42-.65,2-.13s.61,1.39.13,1.97Zm3.39-11.99c-1.26,1.42-.55,2.46-2.65,4.82-2.23,2.55-3.62,2.23-4.82,3.62-1.42,1.65-1.29,4.17.36,5.62s4.17,1.33,5.62-.36c1.2-1.33.78-2.68,3.04-5.24,2.07-2.36,3.14-1.71,4.43-3.17,1.45-1.65,1.29-4.2-.36-5.66s-4.17-1.29-5.62.36"/>
  <path class="cls-8" d="m480.56,245.13c.52-.58,1.39-.61,1.97-.13.58.52.61,1.42.13,2-.52.55-1.42.61-2,.1-.55-.52-.61-1.39-.1-1.97Zm-5.37,10.28c-.52.58-1.39.61-1.94.13-.61-.52-.65-1.42-.13-2,.48-.55,1.39-.61,1.97-.1.55.52.61,1.39.1,1.97Zm3.43-11.99c-1.29,1.42-.55,2.46-2.65,4.82-2.23,2.52-3.62,2.23-4.82,3.59-1.45,1.65-1.29,4.17.36,5.66,1.65,1.45,4.17,1.29,5.62-.36,1.2-1.33.78-2.72,3.04-5.27,2.07-2.33,3.14-1.68,4.43-3.14,1.45-1.65,1.29-4.17-.36-5.66-1.65-1.45-4.17-1.29-5.62.36"/>
  <path class="cls-8" d="m469.67,266.98c1.42-.16,2.94.26,4.1,1.29.23.19.42.36.58.58-.23-2.59-1.39-4.4-3.2-5.72.1,1.23-.29,2.46-1.13,3.43-.13.16-.23.29-.36.42"/>
  <path class="cls-8" d="m467.57,264.42c-.52.61-1.39.65-1.97.16-.58-.52-.65-1.42-.13-1.97.52-.61,1.39-.68,1.97-.16s.65,1.39.13,1.97Zm-4.07-3.56c-1.23,1.49-.52,2.49-2.59,4.88-1.68,1.94-2.88,2.23-3.88,2.84.52.45.94,1.03,1.26,1.65l.26.52c.48-.26,1.1-.19,1.52.19.58.52.65,1.39.13,1.97-.1.13-.26.23-.39.29.36.87.52,1.75.48,2.62.71-.19,1.36-.61,1.87-1.2,1.16-1.36.74-2.72,2.97-5.3,2.04-2.36,3.1-1.75,4.4-3.2,1.42-1.65,1.26-4.2-.39-5.62-1.68-1.45-4.2-1.29-5.66.36"/>
  <path class="cls-8" d="m464.11,272.12c-.29.61-.45,1.23-.74,1.84-.19.39-.42.74-.71,1.1-.65.78-1.52,1.26-2.46,1.49-.03.32-.13.61-.23.94.19.23.42.42.61.61,1-.06,2,.1,2.97.55.58.26,1.1.61,1.55,1.03.26-.03.55-.06.84-.1l1.42-2.52c-.26-.16-.52-.36-.74-.55-1.78-1.58-2.29-4.04-1.49-6.14-.42.55-.74,1.13-1.03,1.75"/>
  <path class="cls-8" d="m382.43,357.38c-.58-.52-.58-1.42-.06-1.97.52-.58,1.39-.61,1.97-.06.58.52.61,1.39.06,1.97-.52.55-1.39.58-1.97.06Zm3.88,1.71c1.23-1.33.84-2.72,3.17-5.17.36-.42.71-.71,1-.97-1.75.65-3.72.84-5.79.58-.97-.13-1.84-.48-2.62-1-.58.29-1.1.55-1.62,1.1-1.49,1.62-1.42,4.14.19,5.66s4.14,1.42,5.66-.19"/>
  <path class="cls-8" d="m375.8,360.03c1.1.03,2.17.45,3.01,1.23.84.81,1.33,1.84,1.45,2.94.32-.61.78-1.26,1.52-2.04.45-.52.87-.87,1.26-1.13-1-.1-2.04-.48-2.84-1.26s-1.29-1.75-1.45-2.78c-.26.42-.58.87-1.1,1.42-.68.74-1.29,1.23-1.84,1.62"/>
  <path class="cls-8" d="m376.64,365.88c-.52.55-1.42.58-1.97.03-.55-.52-.58-1.39-.06-1.97.55-.55,1.42-.58,1.97-.03.58.52.58,1.39.06,1.97Zm-7.76,8.15c-.52.55-1.39.58-1.97.03-.55-.52-.58-1.42-.03-1.97.52-.58,1.39-.58,1.97-.06.55.55.58,1.42.03,2Zm9.5-11.99c-1.58-1.55-4.14-1.49-5.66.1-1.33,1.39-.65,2.46-2.81,4.75-2.33,2.46-3.68,2.1-4.91,3.39-1.55,1.62-1.49,4.14.13,5.66,1.58,1.55,4.1,1.45,5.62-.13,1.26-1.29.87-2.68,3.23-5.14,2.13-2.26,3.2-1.58,4.53-2.97,1.52-1.62,1.45-4.17-.13-5.66"/>
  <path class="cls-8" d="m372.83,373.41c-.29.58-.52,1.2-.81,1.78-.19.42-.45.74-.78,1.07-.94,1-2.2,1.49-3.46,1.45,1.55,2.23,3.65,3.59,6.53,3.23l1.55-2.49c-.26-.16-.48-.36-.71-.55-1.71-1.65-2.13-4.14-1.2-6.21-.45.52-.81,1.07-1.13,1.71"/>
  <path class="cls-8" d="m382.69,369.99c.19.19.36.39.55.61-.13-2.59-1.2-4.46-2.94-5.85.03,1.23-.39,2.42-1.29,3.39-.13.13-.26.26-.39.36,1.45-.1,2.94.42,4.07,1.49"/>
  <path class="cls-8" d="m366.2,378.84c.48-.52.91-.87,1.33-1.13-1.03-.1-2.04-.52-2.88-1.29-.78-.78-1.26-1.78-1.39-2.78-.26.42-.61.87-1.13,1.42-.68.74-1.29,1.2-1.84,1.55,1.07.06,2.13.48,2.97,1.29s1.33,1.87,1.42,2.94c.36-.58.81-1.26,1.52-2"/>
  <path class="cls-8" d="m349.11,392.81c-.84-.78-1.29-1.78-1.42-2.81-.26.45-.61.91-1.13,1.42-.71.74-1.29,1.23-1.84,1.58,1.07.06,2.13.48,2.97,1.29s1.33,1.84,1.42,2.94c.32-.61.81-1.26,1.52-2.04.48-.48.91-.84,1.29-1.1-1.03-.1-2.04-.52-2.81-1.29"/>
  <path class="cls-8" d="m351.34,390.45c-.55-.55-.55-1.42-.03-1.97.52-.58,1.42-.61,1.97-.06s.58,1.42.03,1.97c-.52.55-1.39.58-1.97.06Zm7.72-10.12c.52-.58,1.39-.58,1.97-.06.55.55.55,1.42.03,1.97s-1.42.58-1.97.06c-.55-.55-.58-1.42-.03-1.97Zm-3.88,11.83c1.26-1.26.87-2.65,3.23-5.14,2.17-2.26,3.2-1.58,4.53-2.97,1.52-1.62,1.49-4.14-.13-5.66-1.58-1.52-4.1-1.49-5.66.13-1.33,1.39-.61,2.42-2.81,4.75-2.33,2.42-3.68,2.07-4.91,3.39-1.52,1.58-1.49,4.14.13,5.66,1.58,1.52,4.14,1.45,5.62-.16"/>
  <path class="cls-8" d="m345.32,398.72c-.55.58-1.42.58-1.97.03s-.58-1.42-.03-1.97,1.42-.58,1.97-.03.55,1.42.03,1.97Zm-7.85,8.05c-.52.55-1.42.58-1.97.03s-.55-1.42,0-1.97c.52-.55,1.39-.58,1.94-.03s.58,1.42.03,1.97Zm9.63-11.89c-1.58-1.52-4.1-1.49-5.62.1-1.36,1.36-.68,2.42-2.91,4.69-2.33,2.42-3.68,2.07-4.95,3.36-1.55,1.55-1.52,4.1.06,5.66,1.58,1.52,4.1,1.52,5.66-.06,1.23-1.29.91-2.68,3.26-5.11,2.2-2.26,3.2-1.58,4.56-2.94,1.55-1.58,1.52-4.14-.06-5.69"/>
  <path class="cls-8" d="m334.76,411.58c.48-.52.91-.87,1.29-1.16-1-.06-2.04-.48-2.81-1.26s-1.26-1.81-1.39-2.84c-.26.42-.61.91-1.13,1.42-.48.48-.91.87-1.33,1.16l.32.52c.78.19,1.49.58,2.1,1.2.84.81,1.29,1.87,1.36,2.94.36-.58.84-1.23,1.58-1.97"/>
  <path class="cls-8" d="m341.41,406.19c-.29.58-.52,1.23-.84,1.81-.19.39-.45.74-.74,1.07-.97.97-2.23,1.42-3.49,1.39,1.52,2.26,3.59,3.62,6.5,3.3l1.55-2.42c-.26-.16-.48-.39-.68-.61-1.71-1.65-2.1-4.14-1.16-6.21-.42.52-.81,1.07-1.13,1.68"/>
  <path class="cls-8" d="m351.85,403.5c-.1-2.55-1.16-4.46-2.88-5.88.03,1.23-.42,2.46-1.33,3.39-.13.13-.26.26-.42.36,1.49-.06,2.94.45,4.07,1.55.19.19.39.39.55.58"/>
  <path class="cls-8" d="m331.23,411.36c-.23-.23-.48-.45-.78-.58.74,1.36,1.39,2.75,1.97,4.14.19-1.26-.19-2.59-1.2-3.56"/>
  <path class="cls-8" d="m109.99,450.53c-1.33,1.33-1.33,3.46,0,4.78,1.33,1.29,3.46,1.29,4.78,0,1.29-1.33,1.29-3.46,0-4.78-1.33-1.33-3.46-1.33-4.78,0"/>
  <g class="cls-7">
    <path class="cls-8" d="m786.94,665.7c-12.51-45.61-28.41-90.21-43.02-135.17.39-4.82-.65-9.02-3.94-12.22-14,14.25-27.99,28.51-42.02,42.73,3.33,3.75,7.37,6.11,14.64,4.75,10.05,6.98,37.78,78.86,43.76,94.02,4.78,12.15-1.23,22.95-12.96,33.42-8.69,7.76-11.83,4.85-20.1-4.62l-69.2-79.29c-5.37,9.11-10.7,18.2-16.06,27.28l84.04,85.43c9.44,9.63,23.82,8.53,31.19.94l22.88-23.53c8.57-8.82,14.54-20.1,10.8-33.74"/>
  </g>
  <path class="cls-8" d="m672.71,447.17c3.17-3.17,8.27-3.17,11.44,0s3.17,8.31,0,11.47-8.27,3.17-11.44,0-3.17-8.31,0-11.47Zm-25.44,134.3l26.96-102.2c29.67,8.86,46.9-39.63,14.09-53.36,7.14-43.86,17.62-86.1,10.6-124.08-4.69-25.34-25.99-20.72-42.57-11.12-12.54,7.24-25.92,17.71-34.39,24.47l18.39,16c27.86-24.95,36.17-27.02,32.87,13.41-5.2,63.87-36.3,139.53-54.24,198.78l-17.49,20.23-17.81,20.62,51.23,51.36,23.59-44.12-11.25-9.99"/>
  <path class="cls-8" d="m626.78,484.44l6.5,7.47c5.43-16.13,10.86-32.26,15.87-48.55,5.14-16.65,9.92-33.45,13.83-50.45,2.59-11.22,4.78-22.63,6.34-34.1l-57.18-49.65c-5.62,22.4-4.53,48.16-3.01,69.62.52.45,1,.97,1.45,1.49,6.01,6.82,5.37,17.32-1.45,23.34-.91.81-1.84,1.45-2.84,2.04l17.55,31.48c8.5,14.84,8.92,30.48,3.1,46.74l-.16.58"/>
  <path class="cls-8" d="m690.91,424.48c10.83,5.2,17.52,14.96,17.55,27.28,0,10.7-5.33,21.88-14.67,27.47-5.53,3.3-11.7,4.17-17.87,2.88l-11.93,45.22,24.6,28.38c2.04,4.53,4.49,6.66,7.3,6.95-.78-1.03-.71-2.49.23-3.43,14-14.25,27.99-28.51,42.02-42.73.81-.87,2.07-1.03,3.07-.52,9.05-13.15,17-27.41,24.4-42.54,9.89-20.17.23-30.83-23.59-51.52l-43.99-38.2c-2.26,13.61-4.85,27.18-7.11,40.76"/>
  <path class="cls-8" d="m583.41,568.38l12.41-11.44c4.65-4.3,7.37-9.92,8.92-15.84l14.54-54.95c5.82-16.26,5.62-31.71-2.88-46.54l-17.81-31.9c-4.72.13-9.44-1.75-12.77-5.56-6.01-6.82-5.37-17.36,1.45-23.34,0-.03.03-.03.03-.06-1.16-30.41-2-60.86-1.78-91.31.03-3.01.16-5.95.39-8.79l-1.52-1.49c-36.07,39.01-70.49,79.64-108.21,117.04-15.81,15.68-25.18,30.93-10.5,49.06l97.48,120.27c9.53,11.8,13.8,10.8,20.23,4.85"/>
  <path class="cls-8" d="m601.44,394.87c-2.04,1.78-5.11,1.58-6.92-.45-1.78-2-1.58-5.11.45-6.88,2-1.78,5.11-1.62,6.88.42s1.62,5.14-.42,6.92Zm-12.28-107.4c-.23,31.51.65,61.67,1.84,92.99-.45.32-.91.65-1.33,1.07-5.37,4.72-5.88,12.86-1.16,18.23,4.75,5.37,12.9,5.88,18.23,1.13,5.33-4.72,5.85-12.9,1.13-18.23-.68-.78-1.45-1.45-2.23-2.04-3.98-55.43-2.04-107.53,51.91-127.38,6.17-2.26,9.41-5.95,8.27-12.8-1.13-6.98-2.59-13.9-4.53-20.69-2.36-8.21-10.02-9.76-20.39-5.85-29.25,10.96-51.46,31.84-51.75,73.56"/>
  <path class="cls-8" d="m432.63,316.72l26.31,31.06-13.12,11.31-26.41-30.8,26.05,27.83,10.6-9.05-23.43-30.35ZM213.16,67.36c-2.33,2.33-6.11,2.33-8.44,0s-2.33-6.11,0-8.44c2.33-2.36,6.11-2.36,8.44,0,2.33,2.33,2.33,6.11,0,8.44Zm-37.56.13c79.29,113.22,180,225.25,287.27,339.12,3.2-4.78,7.37-9.37,11.86-13.83,9.7-9.6,19.13-19.39,28.44-29.35-86.82-116.84-181.65-225.9-280.71-330.42-31.06-32.81-72.66-2.36-46.87,34.49"/>
  <path class="cls-8" d="m216.01,20.39c-.74.91-1.71,1.49-2.78,1.68.61.29,1.26.68,2.07,1.29.58.48.97.87,1.29,1.26,0-1.03.32-2.1,1.03-2.94.68-.91,1.62-1.45,2.62-1.68-.42-.23-.91-.48-1.45-.94-.81-.65-1.39-1.26-1.78-1.78.03,1.07-.29,2.2-1,3.1"/>
  <path class="cls-8" d="m220.21,23.63c.52-.58,1.39-.65,1.97-.13s.65,1.42.13,1.97c-.52.58-1.39.65-1.97.13s-.65-1.39-.13-1.97Zm8.4,7.47c.52-.58,1.39-.65,1.97-.13s.65,1.39.13,1.97-1.39.65-1.97.13-.65-1.39-.13-1.97Zm-10.34-9.18c-1.45,1.65-1.33,4.17.32,5.62,1.39,1.2,2.68.74,5.2,3.01,2.39,2.07,1.78,3.2,3.2,4.46,1.65,1.49,4.2,1.33,5.66-.32s1.29-4.2-.36-5.66c-1.42-1.29-2.42-.52-4.75-2.59-2.55-2.26-2.29-3.68-3.65-4.88-1.65-1.45-4.14-1.29-5.62.36"/>
  <path class="cls-8" d="m509.84,348.4l-1.26-2.62c-2.84-.65-5.04.45-6.85,2.49,1.26.13,2.46.74,3.26,1.84.29.36.48.71.65,1.13.26.61.39,1.26.65,1.87.23.65.55,1.26.91,1.81-.68-2.13,0-4.59,1.87-6.04.26-.16.48-.36.78-.48"/>
  <path class="cls-8" d="m500.47,351.82c.61-.48,1.49-.36,1.97.26.45.61.36,1.49-.29,1.97-.58.45-1.45.36-1.94-.26s-.36-1.52.26-1.97Zm2.2,7.47c1.1,1.39,1.33,2.29,1.52,3.1,1.52-1.62,3.01-3.23,4.53-4.85-.48-.32-1-.81-1.58-1.58-2.07-2.72-1.55-4.04-2.62-5.46-1.36-1.75-3.85-2.07-5.62-.74-1.75,1.36-2.07,3.85-.74,5.62,1.13,1.42,2.49,1.23,4.53,3.91"/>
  <path class="cls-8" d="m495.81,350.3c.45.61.78,1.1.97,1.55.26-1,.81-1.94,1.71-2.62.87-.68,1.94-1,2.94-.97-.36-.29-.74-.71-1.16-1.26-.65-.84-1.03-1.55-1.29-2.17-.23,1.07-.81,2.07-1.75,2.75-.91.71-2,1.03-3.07.97.48.42,1.03.94,1.65,1.75"/>
  <path class="cls-8" d="m486.73,333.88c.61-.48,1.52-.39,1.97.26.48.58.36,1.49-.26,1.94-.61.48-1.49.36-1.97-.26-.45-.61-.36-1.49.26-1.94Zm6.82,8.92c.65-.48,1.52-.36,1.97.26.48.61.36,1.49-.26,1.97-.61.45-1.49.32-1.97-.26-.45-.65-.32-1.52.26-1.97Zm-4.59-1.49c1.91,2.52,1.13,3.49,2.29,5.01,1.33,1.75,3.85,2.1,5.59.74,1.75-1.33,2.07-3.85.74-5.59-1.2-1.55-2.29-.97-4.2-3.46-2.04-2.72-1.55-4.07-2.62-5.46-1.36-1.78-3.88-2.1-5.59-.74-1.78,1.33-2.1,3.85-.74,5.59,1.07,1.45,2.46,1.23,4.53,3.91"/>
  <path class="cls-8" d="m482.08,332.36c.45.58.74,1.07.97,1.55.23-1.03.81-1.97,1.71-2.65.87-.68,1.91-1,2.94-.97-.36-.29-.74-.71-1.16-1.26-.65-.84-1.03-1.52-1.29-2.17-.23,1.07-.81,2.07-1.75,2.78-.91.71-2,1-3.1.94.52.42,1.07.97,1.68,1.78"/>
  <path class="cls-8" d="m468.15,313.75c.45.58.78,1.1.97,1.52.26-1,.81-1.94,1.71-2.62.87-.68,1.94-.97,2.94-.94-.36-.32-.74-.74-1.16-1.29-.65-.84-1.03-1.55-1.29-2.17-.23,1.07-.81,2.07-1.75,2.78-.91.71-2.04,1-3.1.94.52.42,1.07.97,1.68,1.78"/>
  <path class="cls-8" d="m454.41,295.78c.45.58.74,1.1.97,1.55.23-1,.81-1.94,1.71-2.65.87-.68,1.91-.97,2.94-.97-.36-.29-.74-.68-1.16-1.23-.65-.84-1.03-1.55-1.29-2.2-.23,1.1-.81,2.07-1.75,2.78-.91.71-2,1.03-3.1.97.52.42,1.07.94,1.68,1.75"/>
  <path class="cls-8" d="m459.06,297.29c.61-.48,1.49-.36,1.97.26.45.61.36,1.49-.26,1.97-.61.45-1.49.36-1.97-.26-.45-.65-.36-1.52.26-1.97Zm6.82,8.92c.65-.45,1.49-.36,1.97.26s.36,1.49-.26,1.97c-.61.45-1.49.36-1.97-.26-.45-.61-.32-1.49.26-1.97Zm-4.59-1.45c1.91,2.52,1.13,3.49,2.29,4.98,1.33,1.78,3.85,2.1,5.59.74,1.75-1.33,2.07-3.85.71-5.59-1.16-1.55-2.26-.97-4.17-3.46-2.04-2.72-1.55-4.04-2.65-5.46-1.33-1.78-3.85-2.07-5.59-.74-1.75,1.36-2.07,3.85-.71,5.62,1.07,1.42,2.46,1.23,4.53,3.91"/>
  <path class="cls-8" d="m481.4,312.32c.23-.19.48-.36.78-.52l-1.29-2.59c-2.81-.68-5.04.45-6.82,2.49,1.26.1,2.46.74,3.26,1.81.29.36.48.71.65,1.16.26.58.39,1.23.61,1.87.26.65.58,1.23.94,1.78-.68-2.13,0-4.59,1.87-6.01"/>
  <path class="cls-8" d="m488.64,320.44c-.19.19-.39.39-.61.55-1.23.97-2.78,1.29-4.2,1.07.13.1.23.26.36.39.78,1.03,1.07,2.29.91,3.49,1.87-1.16,3.17-2.94,3.56-5.49"/>
  <path class="cls-8" d="m472.8,315.23c.61-.45,1.49-.36,1.94.26.48.61.39,1.49-.26,1.97-.58.45-1.49.36-1.94-.26-.48-.61-.36-1.49.26-1.97Zm6.82,8.92c.61-.45,1.49-.36,1.97.26s.36,1.52-.26,1.97c-.61.48-1.49.36-1.97-.26-.45-.61-.36-1.49.26-1.97Zm-4.62-1.45c1.94,2.52,1.13,3.49,2.29,5.01,1.36,1.75,3.85,2.07,5.62.74,1.75-1.36,2.07-3.85.74-5.62-1.2-1.52-2.29-.97-4.2-3.46-2.07-2.68-1.55-4.04-2.65-5.43-1.33-1.78-3.85-2.1-5.59-.74-1.75,1.33-2.07,3.85-.74,5.59,1.1,1.42,2.49,1.23,4.53,3.91"/>
  <path class="cls-8" d="m440.41,277.87c.48.55.78,1.07,1,1.52.23-1.03.78-1.97,1.65-2.68.84-.71,1.87-1.03,2.94-1.03-.39-.32-.78-.71-1.23-1.26-.65-.81-1.07-1.52-1.36-2.13-.19,1.1-.74,2.1-1.65,2.84-.91.71-2,1.07-3.07,1.03.52.39,1.1.91,1.71,1.71"/>
  <path class="cls-8" d="m453.63,276.09c.23-.19.48-.39.74-.52l-1.36-2.59c-2.84-.58-5.01.58-6.76,2.68,1.26.06,2.49.65,3.33,1.71.29.36.52.71.68,1.13.26.61.42,1.26.68,1.87.26.65.58,1.23.97,1.78-.74-2.13-.16-4.59,1.71-6.08"/>
  <path class="cls-8" d="m456.32,285.72c.1.13.23.26.36.42.81,1,1.13,2.26,1,3.46,1.84-1.23,3.07-3.04,3.39-5.59-.19.19-.39.39-.58.55-1.23,1-2.75,1.39-4.17,1.16"/>
  <path class="cls-8" d="m430.91,261.64c.58-.48,1.49-.39,1.97.23.48.58.39,1.49-.23,1.97-.58.48-1.45.39-1.97-.23-.48-.58-.39-1.49.23-1.97Zm7.05,8.76c.61-.48,1.49-.39,1.97.19.48.61.39,1.49-.19,1.97-.61.48-1.49.39-1.97-.19-.48-.61-.39-1.49.19-1.97Zm-4.65-1.36c2,2.46,1.23,3.46,2.46,4.95,1.36,1.71,3.88,1.97,5.59.61,1.71-1.39,1.97-3.91.61-5.62-1.23-1.52-2.33-.94-4.3-3.36-2.13-2.65-1.65-4.01-2.78-5.4-1.39-1.71-3.88-1.97-5.62-.58-1.71,1.39-1.97,3.91-.58,5.62,1.13,1.39,2.52,1.16,4.62,3.78"/>
  <path class="cls-8" d="m445.1,279.23c.61-.48,1.49-.39,1.97.19.48.61.39,1.49-.23,1.97-.58.48-1.45.42-1.97-.19-.48-.58-.39-1.49.23-1.97Zm7.08,8.76c.58-.48,1.45-.42,1.94.19.52.58.39,1.49-.19,1.97-.61.48-1.49.39-1.97-.19-.48-.61-.39-1.49.23-1.97Zm-4.69-1.36c2,2.46,1.23,3.46,2.46,4.95,1.36,1.71,3.88,1.97,5.62.61,1.68-1.42,1.94-3.91.58-5.66-1.23-1.49-2.33-.91-4.3-3.33-2.13-2.65-1.65-4.01-2.78-5.4-1.36-1.71-3.88-1.97-5.62-.61-1.71,1.42-1.94,3.91-.58,5.66,1.13,1.39,2.52,1.16,4.62,3.78"/>
  <path class="cls-8" d="m426.23,260.25c.45.58.78,1.1,1,1.52.19-1,.74-1.97,1.62-2.65.87-.71,1.91-1.07,2.94-1.07-.36-.29-.78-.68-1.2-1.23-.68-.84-1.07-1.52-1.36-2.13-.19,1.07-.74,2.07-1.68,2.81-.87.74-1.97,1.1-3.07,1.03.55.39,1.1.94,1.75,1.71"/>
  <path class="cls-8" d="m416.85,243.93c.58-.52,1.49-.42,1.97.16.48.61.42,1.49-.19,1.97-.58.52-1.45.42-1.94-.16-.52-.58-.45-1.49.16-1.97Zm7.18,8.63c.58-.48,1.49-.39,1.97.19s.42,1.45-.19,1.97c-.58.48-1.49.42-1.97-.19-.48-.58-.42-1.45.19-1.97Zm-4.69-1.26c2.04,2.42,1.29,3.43,2.52,4.91,1.39,1.71,3.91,1.94,5.59.52,1.71-1.42,1.94-3.94.52-5.66-1.23-1.49-2.29-.87-4.3-3.26-2.17-2.62-1.71-3.98-2.88-5.37-1.39-1.71-3.91-1.94-5.59-.52-1.71,1.42-1.94,3.94-.52,5.62,1.13,1.39,2.52,1.16,4.65,3.75"/>
  <path class="cls-8" d="m417.69,240.34c-.39-.29-.78-.68-1.23-1.23-.68-.81-1.1-1.49-1.39-2.1-.16,1.07-.71,2.1-1.62,2.84-.87.74-1.97,1.07-3.04,1.07.52.39,1.07.91,1.75,1.68.45.58.78,1.07,1,1.49.19-1,.74-1.97,1.62-2.68.84-.71,1.87-1.07,2.91-1.07"/>
  <path class="cls-8" d="m432.88,248.49c-.19.19-.39.39-.58.55-1.23,1-2.72,1.42-4.17,1.23.13.13.26.26.36.39.84,1.03,1.2,2.26,1.07,3.46,1.84-1.26,3.04-3.07,3.33-5.62"/>
  <path class="cls-8" d="m409.58,235.2c.61-.52,1.49-.42,1.97.16.52.58.42,1.49-.16,1.97-.61.48-1.49.42-1.97-.16-.48-.61-.42-1.49.16-1.97Zm-5.37-6.5c-.61.48-1.49.39-1.97-.19-.52-.58-.42-1.49.16-1.97.61-.48,1.49-.42,1.97.19.48.58.42,1.45-.16,1.97Zm-3.46-4.17c-1.71,1.42-1.94,3.94-.52,5.62,1.16,1.39,2.52,1.13,4.69,3.75,2,2.42,1.26,3.43,2.49,4.91,1.42,1.68,3.94,1.94,5.62.52,1.71-1.42,1.94-3.94.52-5.62-1.23-1.49-2.33-.91-4.3-3.3-2.2-2.62-1.75-3.98-2.88-5.37-1.42-1.68-3.94-1.94-5.62-.52"/>
  <path class="cls-8" d="m425.32,240.67c.23-.19.48-.39.74-.52l-1.36-2.55c-2.84-.58-5.04.61-6.76,2.75,1.26.06,2.49.61,3.36,1.68.29.36.52.71.68,1.1.29.61.45,1.26.71,1.87.26.65.61,1.23,1,1.78-.78-2.13-.19-4.59,1.62-6.11"/>
  <path class="cls-8" d="m402.02,221.73c-.65-.81-1.07-1.52-1.39-2.1-.16,1.07-.71,2.07-1.62,2.81-.87.74-1.97,1.1-3.07,1.1.55.39,1.13.91,1.78,1.68.45.58.78,1.07,1,1.49.23-1,.74-1.97,1.62-2.68.84-.71,1.87-1.07,2.91-1.07-.39-.32-.78-.68-1.23-1.23"/>
  <path class="cls-8" d="m369.18,192.02c.19-1.03.71-2,1.55-2.75.84-.71,1.84-1.1,2.88-1.13-.36-.29-.78-.68-1.23-1.2-.71-.81-1.13-1.49-1.45-2.07-.13,1.07-.65,2.1-1.52,2.84-.91.78-1.97,1.16-3.07,1.16.55.39,1.13.87,1.81,1.65.48.55.81,1.03,1.03,1.49"/>
  <path class="cls-8" d="m387.67,208.8c.61-.48,1.49-.42,1.97.16.52.58.45,1.45-.13,1.97s-1.45.45-1.97-.13c-.48-.58-.45-1.49.13-2Zm7.37,8.5c.58-.48,1.49-.42,1.97.13.52.58.45,1.49-.13,1.97-.58.52-1.45.48-1.97-.13-.52-.58-.45-1.45.13-1.97Zm-9.44-4.78c1.16,1.36,2.52,1.07,4.75,3.62,2.07,2.39,1.36,3.39,2.59,4.85,1.45,1.68,3.98,1.84,5.62.42,1.68-1.49,1.87-4.01.42-5.66-1.26-1.49-2.33-.84-4.4-3.2-2.23-2.59-1.81-3.94-2.97-5.3-1.45-1.65-3.98-1.84-5.62-.39-1.68,1.45-1.84,3.98-.39,5.66"/>
  <path class="cls-8" d="m384.21,204.82c-.87.78-1.97,1.13-3.04,1.13.52.39,1.13.87,1.78,1.65.48.58.81,1.07,1.07,1.49.16-1.03.68-2,1.52-2.75.84-.71,1.87-1.1,2.91-1.13-.39-.29-.81-.65-1.26-1.2-.68-.78-1.1-1.45-1.42-2.07-.13,1.07-.68,2.1-1.55,2.88"/>
  <path class="cls-8" d="m374.83,191.89c.52.58.45,1.45-.13,1.97s-1.45.45-1.97-.13-.45-1.45.13-1.97,1.49-.45,1.97.13Zm5.4,8.34c.58-.52,1.45-.42,1.97.16.52.55.45,1.45-.13,1.97s-1.45.45-1.97-.16c-.52-.55-.45-1.45.13-1.97Zm-9.05-10.44c-1.68,1.45-1.84,3.98-.42,5.66,1.2,1.36,2.55,1.07,4.78,3.62,2.07,2.39,1.33,3.39,2.59,4.85,1.45,1.68,3.98,1.84,5.62.42,1.68-1.45,1.87-4.01.42-5.66-1.29-1.49-2.33-.84-4.4-3.2-2.23-2.59-1.81-3.94-2.97-5.3-1.45-1.65-3.98-1.84-5.62-.39"/>
  <path class="cls-8" d="m399.46,215.29c.87,1,1.23,2.23,1.13,3.43,1.81-1.29,2.97-3.1,3.2-5.69-.16.23-.36.42-.55.58-1.2,1.03-2.72,1.45-4.14,1.33.13.1.23.23.36.36"/>
  <path class="cls-8" d="m392.09,206.83c.29.32.52.71.71,1.1.29.61.48,1.23.74,1.84.29.61.65,1.2,1.03,1.75-.81-2.1-.29-4.59,1.52-6.14.23-.19.45-.39.71-.52l-1.42-2.55c-2.88-.48-5.01.78-6.69,2.91,1.26.03,2.52.58,3.39,1.62"/>
  <path class="cls-8" d="m345.32,157.05c.52.58.45,1.45-.13,1.97-.58.48-1.49.42-1.97-.16-.52-.58-.45-1.45.16-1.97.58-.52,1.45-.42,1.94.16Zm5.33,8.37c.58-.48,1.49-.42,1.97.19.52.55.42,1.45-.13,1.97-.61.48-1.49.42-2-.19-.48-.55-.42-1.45.16-1.97Zm-8.95-10.5c-1.68,1.42-1.87,3.94-.45,5.62,1.16,1.39,2.52,1.13,4.72,3.68,2.07,2.39,1.33,3.43,2.55,4.88,1.45,1.68,3.98,1.87,5.62.45,1.68-1.45,1.91-3.98.45-5.66-1.26-1.49-2.33-.84-4.36-3.23-2.2-2.59-1.78-3.94-2.94-5.3-1.42-1.68-3.94-1.87-5.59-.45"/>
  <path class="cls-8" d="m354.6,170.04c-.91.74-1.97,1.13-3.07,1.13.55.36,1.13.87,1.78,1.65.48.58.81,1.07,1.07,1.49.16-1,.71-1.97,1.55-2.72.84-.71,1.87-1.07,2.91-1.1-.39-.29-.81-.68-1.26-1.2-.68-.81-1.1-1.49-1.39-2.1-.16,1.07-.71,2.1-1.58,2.84"/>
  <path class="cls-8" d="m339.7,157.12c.16-1.03.71-2,1.55-2.72s1.87-1.1,2.88-1.13c-.36-.26-.74-.68-1.2-1.2-.71-.81-1.13-1.49-1.42-2.1-.16,1.1-.71,2.1-1.58,2.88-.87.74-1.97,1.13-3.04,1.1.52.39,1.1.91,1.75,1.68.48.55.81,1.07,1.07,1.49"/>
  <path class="cls-8" d="m370.86,184.14c1.81-1.29,3.01-3.14,3.26-5.69-.16.19-.39.39-.58.55-1.2,1.03-2.68,1.45-4.14,1.29.13.13.26.26.36.39.87.97,1.2,2.23,1.1,3.46"/>
  <path class="cls-8" d="m358.03,174.08c.58-.52,1.49-.42,1.97.16.52.58.42,1.49-.16,1.97-.58.52-1.45.42-1.97-.16-.48-.58-.42-1.49.16-1.97Zm7.3,8.57c.58-.52,1.45-.45,1.94.13.52.61.45,1.49-.13,2-.58.48-1.49.42-1.97-.16-.52-.61-.45-1.49.16-1.97Zm-9.44-4.91c1.16,1.39,2.55,1.13,4.72,3.68,2.07,2.42,1.33,3.43,2.59,4.88,1.42,1.68,3.94,1.87,5.62.45,1.68-1.45,1.87-3.98.42-5.66-1.23-1.45-2.29-.84-4.33-3.23-2.2-2.59-1.78-3.94-2.94-5.33-1.42-1.65-3.94-1.84-5.62-.42s-1.87,3.94-.45,5.62"/>
  <path class="cls-8" d="m362.49,172.11c.26.36.48.71.68,1.13.29.58.45,1.23.74,1.84.26.65.61,1.2,1,1.75-.81-2.1-.26-4.56,1.55-6.11.23-.19.48-.39.74-.55l-1.39-2.55c-2.88-.52-5.04.71-6.72,2.88,1.26.03,2.49.58,3.39,1.62"/>
  <path class="cls-8" d="m328.42,139.56c.61-.52,1.49-.45,2,.13.48.58.45,1.45-.13,1.97s-1.45.45-1.97-.13-.45-1.49.1-1.97Zm7.43,8.44c.58-.52,1.45-.45,1.97.13s.45,1.45-.13,1.97-1.45.45-1.97-.13-.45-1.45.13-1.97Zm-9.5-4.75c1.2,1.36,2.55,1.07,4.78,3.62,2.1,2.36,1.36,3.39,2.65,4.82,1.45,1.68,3.98,1.84,5.62.36,1.65-1.45,1.81-3.98.36-5.62-1.26-1.45-2.33-.81-4.4-3.17-2.23-2.55-1.84-3.94-3.01-5.27-1.45-1.68-3.98-1.84-5.66-.39-1.65,1.45-1.81,4.01-.36,5.66"/>
  <path class="cls-8" d="m315.49,122.69c.52.58.48,1.45-.1,1.97-.61.52-1.49.48-2-.13-.48-.58-.42-1.45.16-1.97.55-.52,1.45-.45,1.94.13Zm5.46,8.34c.58-.52,1.45-.45,1.97.1.48.61.45,1.49-.13,2-.58.48-1.45.42-1.97-.13-.52-.58-.45-1.45.13-1.97Zm-9.11-10.41c-1.68,1.45-1.84,3.98-.39,5.62,1.2,1.36,2.55,1.1,4.78,3.62,2.1,2.39,1.39,3.39,2.62,4.85,1.45,1.65,4.01,1.81,5.66.36s1.81-3.98.36-5.66c-1.26-1.45-2.33-.81-4.4-3.17-2.26-2.55-1.84-3.91-3.01-5.27-1.45-1.65-3.98-1.81-5.62-.36"/>
  <path class="cls-8" d="m309.87,122.85c.16-1.03.68-2,1.52-2.75.81-.74,1.84-1.13,2.88-1.16-.39-.26-.78-.65-1.26-1.2-.68-.78-1.13-1.45-1.42-2.04-.16,1.07-.68,2.1-1.55,2.88-.87.74-1.94,1.13-3.04,1.13.55.39,1.13.91,1.81,1.65.48.58.81,1.07,1.07,1.49"/>
  <path class="cls-8" d="m340.28,145.96c.84,1,1.23,2.23,1.13,3.43,1.78-1.29,2.94-3.14,3.17-5.72-.16.23-.36.42-.55.58-1.2,1.07-2.68,1.49-4.14,1.36.13.1.26.23.39.36"/>
  <path class="cls-8" d="m332.85,137.53c.32.32.55.68.71,1.1.29.58.48,1.23.78,1.84.26.65.61,1.2,1.03,1.71-.84-2.07-.32-4.56,1.45-6.14.23-.19.48-.36.71-.52l-1.42-2.52c-2.88-.48-5.01.78-6.66,2.94,1.26.03,2.52.55,3.39,1.58"/>
  <path class="cls-8" d="m324.93,135.56c-.84.78-1.94,1.16-3.01,1.2.52.36,1.1.87,1.78,1.62.48.55.84,1.03,1.07,1.49.16-1.03.68-2,1.52-2.75s1.84-1.1,2.88-1.16c-.36-.29-.78-.68-1.26-1.16-.68-.81-1.1-1.49-1.42-2.1-.13,1.1-.68,2.1-1.55,2.88"/>
  <path class="cls-8" d="m307.83,114.1c.52.58.48,1.45-.1,1.97-.55.52-1.45.48-1.97-.06-.52-.58-.48-1.49.1-1.97.58-.55,1.45-.48,1.97.06Zm-7.66-6.3c-.58.52-1.45.48-1.97-.1-.55-.58-.48-1.45.06-1.97.58-.52,1.45-.48,1.97.1s.48,1.45-.06,1.97Zm5.11,1.49c-2.29-2.52-1.91-3.91-3.14-5.24-1.45-1.62-4.01-1.71-5.62-.23s-1.75,4.01-.26,5.66c1.23,1.33,2.59,1,4.88,3.49,2.13,2.33,1.42,3.36,2.72,4.78,1.49,1.65,4.01,1.75,5.66.23,1.62-1.45,1.71-4.01.23-5.62-1.29-1.45-2.36-.78-4.46-3.07"/>
  <path class="cls-8" d="m310.22,111.9c.91.94,1.29,2.2,1.23,3.39,1.78-1.36,2.88-3.2,3.07-5.79-.19.23-.36.39-.58.58-1.13,1.07-2.65,1.55-4.1,1.42.16.13.26.26.39.39"/>
  <path class="cls-8" d="m303.37,104.69c.29.58.52,1.23.81,1.84s.65,1.16,1.07,1.68c-.87-2.07-.42-4.56,1.33-6.17.23-.19.48-.39.71-.55l-1.49-2.49c-2.88-.42-4.98.91-6.59,3.1,1.26,0,2.52.52,3.43,1.52.32.29.55.68.74,1.07"/>
  <path class="cls-8" d="m279.36,89.4c.13-1,.61-2,1.45-2.75.81-.74,1.81-1.16,2.84-1.23-.39-.26-.81-.65-1.26-1.16-.71-.78-1.16-1.42-1.52-2.04-.1,1.1-.58,2.13-1.45,2.94-.87.74-1.91,1.16-3.01,1.2.55.36,1.13.87,1.84,1.62.48.55.84,1,1.1,1.42"/>
  <path class="cls-8" d="m283.01,89.08c.58-.55,1.45-.48,1.97.06.52.58.48,1.45-.06,1.97-.58.52-1.45.48-1.97-.06-.55-.58-.48-1.45.06-1.97Zm7.6,8.27c.55-.52,1.45-.48,1.97.1.52.55.48,1.45-.1,1.97-.55.52-1.45.48-1.97-.1s-.48-1.45.1-1.97Zm-9.6-4.56c1.23,1.33,2.59,1,4.88,3.49,2.13,2.36,1.42,3.39,2.72,4.78,1.49,1.65,4.01,1.75,5.66.26,1.62-1.49,1.71-4.04.23-5.66-1.29-1.42-2.36-.78-4.46-3.07-2.29-2.52-1.91-3.88-3.14-5.2-1.49-1.65-4.01-1.75-5.62-.26s-1.75,4.04-.26,5.66"/>
  <path class="cls-8" d="m291.67,103.04c.55.36,1.16.87,1.84,1.62.52.52.84,1,1.1,1.45.13-1.03.61-2.04,1.45-2.78.81-.78,1.84-1.16,2.88-1.23-.39-.29-.81-.65-1.29-1.16-.71-.78-1.16-1.45-1.49-2.04-.13,1.07-.61,2.13-1.45,2.91-.87.81-1.94,1.2-3.04,1.23"/>
  <path class="cls-8" d="m279.68,78.28c.91.97,1.29,2.2,1.23,3.39,1.78-1.39,2.88-3.23,3.01-5.82-.16.19-.36.42-.55.58-1.13,1.07-2.62,1.55-4.07,1.49.13.1.26.23.39.36"/>
  <path class="cls-8" d="m277.32,80.51c.52.55.48,1.45-.1,1.97-.55.52-1.42.52-1.97-.06-.52-.55-.48-1.45.06-1.97.58-.52,1.45-.48,2,.06Zm-7.76-6.24c-.58.52-1.45.52-1.97-.06-.55-.55-.52-1.45.06-1.97s1.45-.52,1.97.06c.52.55.52,1.45-.06,1.97Zm5.14,1.42c-2.33-2.49-1.94-3.85-3.17-5.17-1.52-1.62-4.04-1.68-5.66-.19-1.62,1.52-1.68,4.04-.19,5.66,1.26,1.33,2.59,1,4.91,3.46,2.17,2.29,1.45,3.36,2.78,4.75,1.49,1.62,4.01,1.71,5.62.19s1.68-4.04.19-5.66c-1.33-1.42-2.36-.74-4.49-3.04"/>
  <path class="cls-8" d="m252.24,55.72c.55-.52,1.45-.48,1.97.06s.48,1.45-.06,1.97c-.55.55-1.45.52-1.97-.06-.55-.55-.52-1.42.06-1.97Zm7.66,8.21c.58-.52,1.45-.48,1.97.06.55.58.52,1.45-.06,1.97-.55.55-1.45.52-1.97-.06-.52-.55-.48-1.45.06-1.97Zm-9.63-4.46c1.26,1.33,2.59,1,4.88,3.46,2.17,2.33,1.49,3.36,2.81,4.75,1.49,1.62,4.01,1.71,5.62.19,1.62-1.49,1.71-4.04.19-5.66-1.33-1.42-2.36-.74-4.49-3.04-2.33-2.49-1.97-3.88-3.2-5.17-1.49-1.62-4.01-1.68-5.62-.19-1.62,1.52-1.68,4.04-.19,5.66"/>
  <path class="cls-8" d="m251.56,50.94c-.71-.78-1.2-1.42-1.49-2.04-.13,1.1-.61,2.13-1.45,2.94-.87.78-1.91,1.23-3.01,1.23.55.39,1.16.87,1.84,1.62.52.55.87,1,1.1,1.42.13-1.03.61-2.04,1.45-2.78.81-.74,1.81-1.16,2.84-1.23-.39-.29-.81-.65-1.29-1.16"/>
  <path class="cls-8" d="m261.06,69.62c.52.36,1.13.84,1.84,1.58.48.55.84,1,1.1,1.42.13-1.03.61-2,1.42-2.78.81-.74,1.84-1.16,2.84-1.23-.36-.29-.78-.65-1.26-1.16-.74-.78-1.2-1.42-1.52-2.04-.1,1.1-.58,2.13-1.45,2.94-.84.78-1.91,1.23-2.97,1.26"/>
  <path class="cls-8" d="m272.76,71.14c.29.58.48,1.23.81,1.84.29.58.65,1.16,1.1,1.68-.91-2.07-.45-4.56,1.26-6.17.23-.23.45-.42.71-.58l-1.52-2.49c-2.88-.36-4.98.97-6.56,3.17,1.26,0,2.52.48,3.46,1.49.29.32.52.68.74,1.07"/>
  <path class="cls-8" d="m241.64,38.04c.29.61.52,1.23.81,1.84.32.61.71,1.13,1.13,1.65-.94-2.04-.52-4.53,1.2-6.17.23-.23.45-.42.71-.58l-1.55-2.46c-2.91-.36-4.98,1-6.53,3.23,1.26-.03,2.52.45,3.46,1.45.32.29.55.65.78,1.03"/>
  <path class="cls-8" d="m229.9,36.65c.55.36,1.16.84,1.84,1.58.52.52.87,1,1.16,1.42.1-1.03.58-2.04,1.39-2.81.78-.78,1.78-1.2,2.81-1.29-.39-.23-.81-.61-1.29-1.1-.74-.78-1.2-1.42-1.52-2.04-.1,1.1-.58,2.17-1.42,2.94-.84.81-1.91,1.26-2.97,1.29"/>
  <path class="cls-8" d="m249.91,48.48c1.75-1.39,2.81-3.26,2.94-5.85-.16.23-.36.42-.55.61-1.13,1.1-2.62,1.58-4.07,1.49.16.13.26.26.42.39.87.94,1.29,2.17,1.26,3.36"/>
  <path class="cls-8" d="m244.32,47.32c.55-.52,1.42-.52,1.97.06.52.55.48,1.42-.06,1.97-.55.52-1.42.52-1.97-.03-.52-.58-.52-1.45.06-2Zm-5.85-6.08c-.55.52-1.45.48-1.97-.06s-.52-1.42.03-1.97c.58-.52,1.45-.52,1.97.06.55.55.52,1.42-.03,1.97Zm1.91-3.78c-1.52-1.62-4.04-1.65-5.62-.13s-1.65,4.07-.13,5.66c1.26,1.29,2.59.97,4.95,3.39,2.2,2.29,1.49,3.33,2.81,4.72,1.52,1.62,4.07,1.65,5.66.13s1.65-4.07.13-5.66c-1.36-1.39-2.39-.71-4.56-2.97-2.33-2.46-1.97-3.85-3.23-5.14"/>
  <g class="cls-4">
    <path class="cls-8" d="m202.59,9.6c.42.13.81.29,1.2.55.55.36,1.03.78,1.62,1.16.55.36,1.16.65,1.78.91-1.81-1.33-2.68-3.72-2-5.98.06-.29.19-.58.32-.84l-2.59-1.39c-2.65,1.13-3.81,3.36-4.04,6.08,1.07-.68,2.39-.87,3.72-.48"/>
  </g>
  <path class="cls-8" d="m199.94,13.67c.19-.74,1-1.16,1.71-.94.74.19,1.2,1,.97,1.71-.26.74-1,1.16-1.75.97-.74-.23-1.16-1-.94-1.75Zm10.76,3.17c.19-.74.97-1.13,1.71-.94.74.23,1.16,1,.94,1.75s-.97,1.16-1.71.94c-.74-.19-1.16-1-.94-1.75Zm-10.57,1.07c1.75.52,2.72-.45,5.95.48,3.04.91,2.97,2.17,4.82,2.68,2.1.65,4.33-.58,4.95-2.68.65-2.1-.58-4.33-2.68-4.98-1.84-.55-2.42.55-5.43-.32-3.23-.97-3.62-2.36-5.33-2.88-2.1-.61-4.33.61-4.95,2.72-.65,2.13.58,4.36,2.68,4.98"/>
  <path class="cls-8" d="m216.13,15.06c.84-2.07.84-4.23-.36-6.53-.03.26-.06.55-.16.81-.45,1.52-1.49,2.68-2.78,3.33.16.03.32.06.52.13,1.23.36,2.23,1.2,2.78,2.26"/>
  <path class="cls-8" d="m193.99,13.15c-.13,1.16-.65,2.17-1.42,2.91.65-.1,1.42-.13,2.42,0,.71.03,1.29.19,1.78.32-.58-.84-.87-1.91-.74-3.04.1-1.1.61-2.07,1.33-2.81-.48.06-1.03.06-1.71-.03-1.07-.1-1.84-.29-2.49-.52.61.91.97,2,.84,3.17"/>
  <path class="cls-8" d="m177.8,15.16c.71-.26,1.52.1,1.78.84.29.71-.1,1.52-.84,1.78-.71.29-1.52-.1-1.78-.81-.26-.74.1-1.55.84-1.81Zm10.5-3.91c.71-.26,1.52.13,1.81.84.26.74-.1,1.52-.84,1.78-.71.29-1.52-.06-1.78-.81-.29-.71.1-1.52.81-1.81Zm-8.63,8.99c1.68-.65,1.91-2,5.04-3.17,2.97-1.13,3.68-.06,5.46-.74,2.07-.74,3.14-3.07,2.36-5.14s-3.04-3.14-5.14-2.36c-1.81.68-1.58,1.91-4.53,2.97-3.17,1.2-4.33.32-5.98.94-2.07.74-3.14,3.07-2.36,5.14.74,2.07,3.04,3.14,5.14,2.36"/>
  <path class="cls-8" d="m172.69,20.72c.74.87,1.07,1.97,1.07,3.04.39-.52.91-1.07,1.68-1.75.58-.45,1.07-.78,1.52-1-1.03-.23-2-.74-2.72-1.62s-1.03-1.87-1.03-2.91c-.32.36-.68.74-1.23,1.2-.84.68-1.52,1.1-2.1,1.39,1.03.19,2.07.71,2.81,1.65"/>
  <path class="cls-8" d="m164.74,22.27l.19-.48c.55-1.2,1.55-2,2.68-2.42-1.91-1.13-4.04-1.45-6.5-.65.26.06.52.16.74.29,1.42.68,2.42,1.87,2.88,3.26"/>
  <path class="cls-8" d="m167.88,23.17c.36-.68,1.16-1,1.87-.68.68.36.97,1.2.65,1.87-.32.71-1.16,1-1.84.68-.71-.36-1-1.16-.68-1.87Zm-2.26,11.38c-.36.68-1.2,1-1.87.65-.71-.32-1-1.16-.68-1.87.36-.68,1.16-.97,1.87-.65.68.32,1,1.16.68,1.87Zm-.06-12.48c-.84,1.75.16,2.46-1.16,5.3-1.45,3.07-2.88,3.23-3.65,4.85-.94,2-.1,4.4,1.91,5.33,1.97.94,4.36.1,5.3-1.91.78-1.62-.03-2.78,1.42-5.82,1.36-2.88,2.55-2.62,3.39-4.36.94-1.97.1-4.36-1.91-5.3-1.97-.94-4.36-.1-5.3,1.91"/>
  <path class="cls-8" d="m160.02,35.72c-.48-1.16-.48-2.55.1-3.78.19-.39.45-.74.74-1.07.42-.52.94-.94,1.39-1.42.45-.52.84-1.07,1.16-1.65-1.58,1.58-4.04,2.1-6.21,1.1-.26-.16-.55-.29-.78-.48l-1.75,2.33c.68,2.84,2.72,4.3,5.33,4.98"/>
  <path class="cls-8" d="m166.46,38.3c-.94.45-2.04.61-3.1.39-1.07-.26-2-.87-2.62-1.68-.03.48-.1,1.03-.23,1.71-.26,1.03-.55,1.78-.84,2.39.94-.52,2.1-.71,3.23-.45s2.07.91,2.72,1.78c0-.65.03-1.42.26-2.42.19-.71.39-1.26.58-1.71"/>
  <path class="cls-8" d="m161.54,43.96c.74-.13,1.45.42,1.58,1.16.1.78-.39,1.49-1.16,1.58-.78.13-1.49-.39-1.58-1.16-.13-.74.39-1.45,1.16-1.58Zm3.3,12.28c.13.78-.42,1.49-1.16,1.58-.78.13-1.49-.39-1.62-1.16-.1-.74.42-1.45,1.16-1.58.78-.13,1.49.42,1.62,1.16Zm-5.33.81c.36,2.2,2.39,3.68,4.56,3.36,2.2-.36,3.68-2.39,3.33-4.56-.26-1.78-1.55-2.26-2.07-5.62-.48-3.14.65-3.59.36-5.49-.32-2.2-2.36-3.68-4.56-3.33-2.17.32-3.65,2.36-3.33,4.56.29,1.91,1.55,1.94,2,5.04.55,3.36-.55,4.3-.29,6.04"/>
  <path class="cls-8" d="m165.39,60.86c-1.03.42-2.13.45-3.1.13.26.39.52.91.78,1.52.42,1,.58,1.78.68,2.46.48-.97,1.33-1.78,2.39-2.23,1.1-.42,2.23-.42,3.26-.06-.39-.55-.78-1.2-1.16-2.17-.26-.68-.42-1.26-.52-1.75-.48.94-1.29,1.68-2.33,2.1"/>
  <path class="cls-8" d="m164.52,70.3c-.1-.16-.19-.29-.32-.45-.68-1.1-.84-2.39-.55-3.56-2,1-3.43,2.62-4.07,5.11.23-.16.42-.32.65-.48,1.36-.81,2.91-1,4.3-.61"/>
  <path class="cls-8" d="m173.28,81.48c-1.23-.23-2.39-.94-3.1-2.1-.26-.39-.42-.78-.52-1.2-.19-.65-.29-1.29-.45-1.94-.19-.68-.45-1.29-.74-1.87.48,2.2-.45,4.56-2.46,5.82-.26.16-.52.29-.81.42l1.03,2.72c2.75.94,5.07.03,7.05-1.84"/>
  <path class="cls-8" d="m167.43,66.19c.65-.42,1.52-.23,1.91.45.42.65.23,1.49-.42,1.91-.68.42-1.52.23-1.94-.42-.39-.68-.19-1.52.45-1.94Zm5.95,9.53c.65-.42,1.52-.23,1.91.45.42.65.23,1.52-.42,1.91-.65.42-1.52.23-1.94-.42-.39-.65-.19-1.55.45-1.94Zm-4.75-2.39c1.78,2.91,1.16,4.17,2.1,5.69,1.16,1.87,3.62,2.42,5.49,1.26s2.46-3.62,1.29-5.49c-.97-1.52-2.36-1.49-4.14-4.33-1.68-2.68-.81-3.59-1.81-5.2-1.2-1.87-3.65-2.46-5.53-1.29-1.84,1.2-2.42,3.65-1.26,5.53,1.03,1.65,2.17,1.2,3.85,3.85"/>
  <path class="cls-8" d="m176.96,80.97c-.94.58-2,.81-3.01.68.29.32.65.78,1.03,1.36.55.91.87,1.65,1.1,2.29.29-1.07.97-1.97,1.97-2.59.97-.65,2.1-.84,3.17-.68-.45-.45-.97-1.07-1.52-1.91-.39-.65-.65-1.16-.81-1.62-.32.97-.97,1.84-1.94,2.46"/>
  <path class="cls-8" d="m208.77,117.68c-.52-.42-1.1-.94-1.71-1.75-.45-.58-.78-1.1-.97-1.52-.23,1-.81,1.94-1.68,2.62-.87.71-1.91,1.03-2.94,1,.36.29.74.71,1.16,1.26.65.84,1.07,1.55,1.33,2.13.19-1.03.81-2.04,1.71-2.78.91-.71,2-1.03,3.1-.97"/>
  <path class="cls-8" d="m186.53,96.42c-.45-.61-.36-1.49.26-1.97.58-.48,1.49-.39,1.97.23.45.61.36,1.49-.26,1.97s-1.49.36-1.97-.23Zm-4.95-8.63c-.61.48-1.49.36-1.97-.23-.45-.61-.36-1.49.26-1.97s1.49-.39,1.97.23c.45.61.36,1.49-.26,1.97Zm8.5,10.92c1.75-1.39,2.04-3.88.68-5.62-1.1-1.42-2.46-1.23-4.56-3.88-1.94-2.49-1.16-3.49-2.33-5.01-1.36-1.71-3.88-2-5.62-.68-1.71,1.39-2.04,3.88-.68,5.62,1.2,1.52,2.29.97,4.23,3.43,2.07,2.68,1.58,4.04,2.68,5.43,1.36,1.75,3.85,2.07,5.59.71"/>
  <path class="cls-8" d="m179.93,99.65c-.26.19-.52.36-.78.52l1.29,2.59c2.84.65,5.04-.48,6.82-2.55-1.26-.1-2.46-.71-3.3-1.78-.29-.36-.48-.74-.65-1.16-.26-.58-.42-1.23-.65-1.87-.26-.61-.58-1.23-.94-1.78.71,2.13.06,4.59-1.81,6.04"/>
  <path class="cls-8" d="m193.77,103.4c.61-.45,1.49-.36,1.94.26.48.58.39,1.49-.23,1.97-.61.45-1.49.36-1.97-.26-.45-.61-.36-1.49.26-1.97Zm6.92,8.89c.58-.48,1.45-.39,1.94.23s.39,1.49-.26,1.97c-.58.45-1.45.36-1.94-.26-.45-.61-.36-1.49.26-1.94Zm-5.01-1.91c2.1,2.68,1.62,4.04,2.72,5.46,1.36,1.71,3.85,2.04,5.59.68s2.04-3.88.68-5.62c-1.1-1.42-2.49-1.2-4.56-3.88-1.94-2.49-1.16-3.46-2.33-4.98-1.36-1.75-3.88-2.07-5.62-.68-1.71,1.36-2.04,3.85-.68,5.59,1.2,1.55,2.29.97,4.2,3.43"/>
  <path class="cls-8" d="m177.41,89.95c-.13-.1-.23-.26-.36-.39-.81-1.03-1.1-2.29-.94-3.49-1.87,1.2-3.14,2.97-3.52,5.49.19-.16.42-.36.61-.52,1.23-.97,2.75-1.33,4.2-1.1"/>
  <path class="cls-8" d="m188.73,101.46c.65.84,1.03,1.55,1.33,2.17.19-1.07.78-2.07,1.71-2.78.91-.74,2-1.07,3.07-1-.52-.39-1.07-.94-1.68-1.75-.45-.58-.78-1.1-.97-1.52-.26,1-.81,1.94-1.68,2.65-.87.68-1.94,1-2.94.97.36.32.74.71,1.16,1.26"/>
  <path class="cls-8" d="m229.45,154.37c.36.29.74.68,1.2,1.26.65.84,1.03,1.52,1.33,2.13.19-1.07.78-2.07,1.68-2.78.94-.71,2.04-1.03,3.1-.97-.52-.42-1.07-.97-1.68-1.75-.48-.58-.78-1.1-1-1.55-.23,1.03-.78,1.97-1.65,2.65-.91.68-1.94,1-2.97,1"/>
  <path class="cls-8" d="m207.93,135.98c-.26.19-.48.36-.78.48l1.33,2.62c2.81.61,5.04-.52,6.79-2.59-1.23-.06-2.46-.68-3.3-1.75-.26-.36-.48-.74-.65-1.16-.23-.61-.39-1.26-.61-1.87-.26-.65-.58-1.23-.97-1.78.71,2.13.06,4.59-1.81,6.04"/>
  <path class="cls-8" d="m214.55,132.71c-.48-.61-.39-1.49.23-1.94.61-.48,1.49-.39,1.97.23.45.61.36,1.49-.26,1.97-.58.48-1.45.36-1.94-.26Zm-4.98-8.6c-.58.48-1.49.36-1.94-.26-.48-.61-.39-1.49.23-1.94.61-.48,1.49-.39,1.97.23s.39,1.49-.26,1.97Zm8.53,10.89c1.71-1.36,2.04-3.88.68-5.62-1.13-1.39-2.49-1.2-4.56-3.85-1.94-2.52-1.16-3.49-2.36-5.01-1.36-1.75-3.85-2.04-5.59-.68s-2.04,3.88-.68,5.62c1.16,1.52,2.26.94,4.2,3.39,2.1,2.68,1.58,4.04,2.68,5.46,1.36,1.75,3.88,2.04,5.62.68"/>
  <path class="cls-8" d="m216.72,137.79c.68.84,1.07,1.52,1.36,2.17.19-1.07.78-2.07,1.68-2.81.94-.71,2-1.03,3.1-.97-.52-.42-1.07-.94-1.68-1.75-.45-.58-.78-1.1-1-1.52-.23,1-.81,1.94-1.68,2.62-.87.71-1.91,1-2.94,1,.36.29.74.71,1.16,1.26"/>
  <path class="cls-8" d="m221.76,139.73c.61-.48,1.49-.39,1.97.23s.36,1.49-.26,1.97c-.58.48-1.49.36-1.94-.26-.48-.58-.39-1.45.23-1.94Zm6.92,8.86c.61-.48,1.49-.36,1.97.26.45.58.36,1.49-.26,1.97-.58.45-1.49.36-1.97-.26-.45-.61-.36-1.49.26-1.97Zm-4.98-1.87c2.07,2.68,1.58,4.04,2.68,5.43,1.36,1.75,3.88,2.07,5.59.68,1.75-1.33,2.07-3.85.71-5.59-1.13-1.42-2.49-1.23-4.56-3.88-1.97-2.49-1.16-3.46-2.36-4.98-1.36-1.75-3.85-2.07-5.59-.68-1.75,1.33-2.04,3.85-.68,5.59,1.16,1.52,2.26.97,4.2,3.43"/>
  <path class="cls-8" d="m205.4,126.28c-.13-.13-.23-.26-.36-.39-.78-1.03-1.1-2.29-.94-3.52-1.87,1.23-3.14,2.97-3.49,5.53.19-.19.39-.36.58-.52,1.26-1,2.78-1.33,4.2-1.1"/>
  <path class="cls-8" d="m229.1,163.52c1.2-1,2.72-1.39,4.17-1.2-.13-.13-.23-.26-.36-.39-.84-1-1.16-2.26-1.03-3.46-1.84,1.23-3.04,3.04-3.36,5.62.19-.19.36-.42.58-.58"/>
  <path class="cls-8" d="m244.87,173.5c.71.84,1.1,1.52,1.39,2.13.19-1.07.74-2.1,1.65-2.84.87-.71,1.97-1.07,3.07-1.03-.55-.39-1.1-.94-1.75-1.71-.48-.55-.81-1.07-1.03-1.49-.19,1-.74,1.97-1.62,2.68-.84.71-1.87,1.03-2.91,1.07.36.29.78.68,1.2,1.2"/>
  <path class="cls-8" d="m242.74,166.55c.61-.48,1.49-.42,1.97.19.52.58.42,1.49-.16,1.97-.61.48-1.49.39-1.97-.19-.52-.58-.42-1.49.16-1.97Zm-5.33-6.53c-.61.52-1.49.42-1.97-.16-.52-.61-.42-1.49.16-1.97.61-.52,1.49-.42,1.97.16.52.61.42,1.49-.16,1.97Zm8.79,10.7c1.68-1.39,1.94-3.91.52-5.62-1.13-1.42-2.52-1.16-4.65-3.75-2-2.46-1.26-3.46-2.46-4.95-1.42-1.68-3.94-1.94-5.66-.52-1.68,1.39-1.94,3.91-.52,5.62,1.23,1.49,2.33.91,4.3,3.3,2.17,2.65,1.68,4.01,2.84,5.37,1.39,1.71,3.91,1.97,5.62.55"/>
  <path class="cls-8" d="m249.98,175.31c.58-.48,1.49-.39,1.97.19.48.61.39,1.49-.19,1.97-.61.48-1.49.42-1.97-.19-.48-.58-.39-1.45.19-1.97Zm7.14,8.69c.58-.48,1.45-.42,1.97.19.48.58.39,1.45-.19,1.97-.61.48-1.49.42-1.97-.19s-.42-1.49.19-1.97Zm-5.04-1.75c2.17,2.62,1.71,3.98,2.84,5.37,1.39,1.71,3.91,1.94,5.62.55,1.68-1.42,1.94-3.94.55-5.62-1.16-1.39-2.52-1.16-4.69-3.75-2-2.46-1.26-3.46-2.49-4.95-1.39-1.68-3.91-1.94-5.59-.55-1.71,1.42-1.94,3.94-.55,5.62,1.23,1.52,2.33.91,4.3,3.33"/>
  <path class="cls-8" d="m258.06,189.76c.36.29.74.68,1.2,1.23.68.81,1.1,1.52,1.39,2.1.16-1.07.71-2.07,1.62-2.81s2-1.1,3.07-1.07c-.52-.39-1.1-.91-1.75-1.71-.45-.55-.78-1.07-1-1.49-.23,1.03-.74,1.97-1.62,2.68-.84.71-1.87,1.07-2.91,1.07"/>
  <path class="cls-8" d="m236.01,171.95c-.23.19-.45.36-.71.52l1.36,2.55c2.84.58,5.01-.61,6.76-2.75-1.26-.03-2.49-.61-3.36-1.68-.29-.32-.52-.71-.68-1.1-.26-.61-.45-1.26-.71-1.87-.26-.65-.58-1.23-.97-1.75.78,2.1.19,4.56-1.68,6.08"/>
  <path class="cls-8" d="m278.64,210.28c.58-.48,1.45-.42,1.97.16.48.58.42,1.49-.19,2-.58.48-1.45.42-1.94-.19-.52-.58-.45-1.45.16-1.97Zm7.24,8.6c.58-.52,1.49-.45,1.97.16.48.58.42,1.45-.16,1.97-.58.48-1.45.42-1.97-.16-.48-.58-.42-1.49.16-1.97Zm-5.04-1.68c2.2,2.59,1.75,3.94,2.91,5.33,1.42,1.68,3.94,1.87,5.62.45s1.87-3.94.45-5.62c-1.16-1.39-2.52-1.13-4.69-3.68-2.07-2.42-1.33-3.43-2.55-4.88-1.42-1.71-3.94-1.91-5.62-.48s-1.91,3.94-.48,5.66c1.26,1.45,2.33.84,4.36,3.23"/>
  <path class="cls-8" d="m257.6,198.78c1.2-1.03,2.72-1.42,4.17-1.26l-.39-.39c-.84-1-1.2-2.23-1.07-3.46-1.84,1.29-3.01,3.1-3.3,5.66.19-.19.39-.39.58-.55"/>
  <path class="cls-8" d="m273.54,208.57c.68.81,1.1,1.49,1.39,2.1.16-1.1.71-2.1,1.62-2.84.87-.78,1.97-1.13,3.04-1.13-.52-.36-1.1-.87-1.78-1.68-.48-.55-.78-1.03-1.03-1.49-.16,1.03-.71,2-1.55,2.72s-1.87,1.07-2.91,1.1c.36.29.78.68,1.23,1.23"/>
  <path class="cls-8" d="m271.15,203.59c-.52-.58-.45-1.45.16-1.97.58-.48,1.45-.42,1.94.16.52.61.45,1.49-.13,1.97-.58.52-1.49.42-1.97-.16Zm-5.3-8.4c-.58.48-1.45.42-1.97-.19-.48-.55-.42-1.45.16-1.97.61-.48,1.49-.42,1.97.19.52.58.42,1.45-.16,1.97Zm8.92,10.54c1.71-1.39,1.91-3.94.48-5.62-1.16-1.39-2.52-1.1-4.72-3.68-2.04-2.42-1.33-3.43-2.52-4.88-1.45-1.71-3.98-1.91-5.66-.48-1.68,1.45-1.87,3.94-.45,5.66,1.26,1.49,2.33.84,4.36,3.23,2.2,2.62,1.75,3.98,2.91,5.33,1.42,1.68,3.91,1.91,5.59.45"/>
  <path class="cls-8" d="m292.41,222.31c-.48-.58-.81-1.07-1.03-1.52-.19,1.03-.71,2-1.58,2.72-.81.74-1.87,1.1-2.91,1.1.39.29.81.68,1.23,1.23.71.81,1.13,1.49,1.42,2.1.16-1.1.71-2.1,1.62-2.84.87-.78,1.94-1.13,3.04-1.13-.55-.36-1.13-.87-1.78-1.65"/>
  <path class="cls-8" d="m264.65,207.08c-.23.23-.45.39-.71.55l1.39,2.55c2.84.52,5.01-.71,6.69-2.84-1.26-.03-2.49-.58-3.36-1.65-.29-.32-.52-.68-.68-1.1-.29-.61-.45-1.23-.74-1.84-.26-.65-.61-1.23-1-1.78.81,2.13.23,4.59-1.58,6.11"/>
  <path class="cls-8" d="m286.43,234.53c.19-.19.36-.39.55-.58,1.2-1.03,2.68-1.49,4.14-1.36-.13-.1-.26-.23-.39-.36-.84-.97-1.23-2.23-1.13-3.43-1.81,1.33-2.97,3.17-3.17,5.72"/>
  <path class="cls-8" d="m294.22,242.12c-.23.23-.45.39-.71.55l1.45,2.52c2.84.45,4.98-.81,6.63-2.97-1.26-.03-2.52-.58-3.39-1.58-.32-.32-.55-.71-.74-1.1-.29-.58-.45-1.23-.74-1.84s-.65-1.2-1.03-1.71c.84,2.07.32,4.56-1.45,6.14"/>
  <path class="cls-8" d="m302.6,238.6c-.58.52-1.45.45-1.97-.13s-.45-1.45.13-1.97,1.45-.45,1.97.13c.52.55.45,1.45-.13,1.97Zm-7.43-8.44c-.58.52-1.45.48-1.97-.1s-.45-1.49.1-2c.58-.52,1.45-.45,1.97.13s.48,1.49-.1,1.97Zm4.72,1.13c-2.1-2.36-1.39-3.39-2.65-4.82-1.49-1.65-4.01-1.81-5.66-.36s-1.81,4.01-.32,5.66c1.26,1.45,2.33.81,4.43,3.17,2.23,2.55,1.81,3.91,3.01,5.24,1.45,1.68,3.98,1.81,5.62.36s1.81-3.98.36-5.62c-1.2-1.39-2.55-1.07-4.78-3.62"/>
  <path class="cls-8" d="m307.35,239.76c-.48-.55-.84-1.03-1.1-1.45-.16,1-.65,2-1.49,2.72-.84.74-1.87,1.13-2.88,1.2.36.26.78.65,1.23,1.16.71.81,1.16,1.45,1.45,2.07.16-1.07.68-2.1,1.55-2.88s1.94-1.16,3.01-1.2c-.52-.36-1.13-.87-1.78-1.62"/>
  <path class="cls-8" d="m322.31,256.7c-.48-.55-.84-1.03-1.07-1.49-.16,1.03-.68,2-1.52,2.75s-1.84,1.13-2.88,1.2c.36.26.81.65,1.26,1.16.71.81,1.13,1.49,1.45,2.07.13-1.07.65-2.1,1.52-2.88s1.94-1.16,3.01-1.16c-.52-.39-1.1-.91-1.78-1.65"/>
  <path class="cls-8" d="m317.56,255.53c-.58.48-1.45.45-1.97-.13s-.45-1.45.13-1.97c.55-.52,1.45-.45,1.97.1.48.58.45,1.49-.13,2Zm-7.43-8.44c-.58.52-1.45.45-1.97-.1-.52-.58-.45-1.49.13-2,.55-.48,1.45-.45,1.97.13.48.58.45,1.45-.13,1.97Zm4.69,1.13c-2.07-2.36-1.36-3.39-2.65-4.82-1.45-1.65-3.98-1.81-5.62-.36-1.65,1.49-1.78,4.01-.32,5.66,1.26,1.45,2.33.81,4.4,3.14,2.26,2.55,1.84,3.94,3.04,5.27,1.45,1.65,3.98,1.81,5.62.36,1.68-1.49,1.81-4.01.36-5.66-1.2-1.36-2.55-1.07-4.82-3.59"/>
  <path class="cls-8" d="m352.11,291.32c-.48-.55-.81-1.03-1.07-1.45-.16,1.03-.68,2-1.52,2.72-.84.74-1.84,1.13-2.88,1.13.36.29.78.68,1.23,1.23.68.78,1.13,1.49,1.45,2.07.13-1.1.65-2.1,1.52-2.88.91-.74,1.97-1.13,3.07-1.16-.55-.36-1.13-.87-1.81-1.65"/>
  <path class="cls-8" d="m347.39,290.12c-.61.52-1.49.45-1.97-.13-.52-.58-.45-1.49.13-1.97.58-.52,1.45-.48,1.97.13.48.58.42,1.45-.13,1.97Zm-7.37-8.5c-.58.52-1.49.45-1.97-.13-.52-.58-.45-1.45.13-1.97s1.45-.45,1.97.13.45,1.45-.13,1.97Zm4.69,1.2c-2.07-2.39-1.36-3.43-2.62-4.88-1.42-1.65-3.94-1.81-5.62-.39-1.65,1.45-1.84,4.01-.39,5.66,1.26,1.45,2.33.84,4.4,3.2,2.23,2.55,1.81,3.94,2.97,5.3,1.45,1.65,3.98,1.81,5.62.39,1.68-1.45,1.84-4.01.39-5.66-1.16-1.36-2.52-1.1-4.75-3.62"/>
  <path class="cls-8" d="m316.46,268.85c.16-.23.32-.39.55-.58,1.16-1.03,2.68-1.45,4.14-1.29-.13-.13-.26-.26-.39-.42-.84-.97-1.2-2.2-1.13-3.43-1.78,1.33-2.94,3.14-3.17,5.72"/>
  <path class="cls-8" d="m332.56,273.05c-.58.52-1.45.45-1.97-.13s-.45-1.45.16-1.97c.55-.52,1.45-.45,1.94.13.52.58.48,1.45-.13,1.97Zm-7.37-8.47c-.58.48-1.45.45-1.97-.16-.48-.58-.45-1.45.16-1.97.58-.52,1.45-.45,1.94.16.52.55.45,1.45-.13,1.97Zm4.72,1.16c-2.1-2.39-1.36-3.39-2.62-4.88-1.45-1.65-3.98-1.81-5.62-.36-1.65,1.42-1.84,3.98-.39,5.62,1.26,1.45,2.33.84,4.4,3.2,2.23,2.59,1.78,3.94,2.94,5.3,1.45,1.65,4.01,1.81,5.66.39,1.65-1.45,1.84-3.98.39-5.66-1.2-1.36-2.55-1.07-4.75-3.62"/>
  <path class="cls-8" d="m337.28,274.25c-.48-.55-.81-1.03-1.03-1.45-.19,1-.71,1.97-1.55,2.72-.81.74-1.84,1.13-2.88,1.16.39.26.78.65,1.23,1.2.71.78,1.13,1.45,1.45,2.07.13-1.07.65-2.1,1.55-2.88.87-.78,1.94-1.13,3.04-1.13-.55-.39-1.13-.91-1.81-1.68"/>
  <path class="cls-8" d="m324.15,276.51c-.23.19-.48.39-.71.55l1.42,2.52c2.84.48,5.01-.78,6.66-2.91-1.23-.03-2.49-.58-3.39-1.62-.29-.36-.52-.71-.71-1.1-.26-.61-.45-1.23-.71-1.84-.29-.61-.65-1.2-1.07-1.75.84,2.1.32,4.56-1.49,6.14"/>
  <path class="cls-8" d="m376.84,327.77c.39.29.78.68,1.26,1.2.71.78,1.13,1.45,1.45,2.04.13-1.07.65-2.1,1.52-2.88s1.94-1.16,3.01-1.2c-.52-.39-1.1-.87-1.78-1.65-.52-.52-.84-1-1.1-1.45-.16,1.03-.65,2-1.49,2.75s-1.84,1.16-2.88,1.2"/>
  <path class="cls-8" d="m362.49,307.31c-.58.52-1.45.45-1.97-.1-.52-.58-.48-1.49.1-2s1.45-.45,1.97.13c.52.55.45,1.45-.1,1.97Zm-7.5-8.4c-.58.55-1.45.48-1.97-.1s-.48-1.45.1-1.97,1.45-.45,2,.1c.48.58.45,1.45-.13,1.97Zm4.72,1.13c-2.13-2.36-1.39-3.39-2.68-4.82-1.45-1.65-4.01-1.78-5.62-.32-1.65,1.49-1.78,4.01-.32,5.66,1.29,1.45,2.36.78,4.43,3.14,2.26,2.52,1.87,3.91,3.07,5.24,1.45,1.65,3.98,1.81,5.62.32s1.78-4.01.32-5.66c-1.23-1.36-2.55-1.03-4.82-3.56"/>
  <path class="cls-8" d="m354.12,310.9c-.23.19-.45.36-.71.55l1.45,2.49c2.88.45,5.01-.84,6.63-3.01-1.26-.03-2.52-.55-3.39-1.55-.32-.36-.55-.68-.74-1.1-.29-.58-.48-1.23-.78-1.84-.26-.61-.65-1.16-1.03-1.71.84,2.07.36,4.56-1.42,6.17"/>
  <path class="cls-8" d="m367.24,308.45c-.52-.55-.87-1.03-1.1-1.45-.16,1.03-.68,2-1.49,2.75-.84.74-1.87,1.13-2.88,1.2.39.29.78.65,1.26,1.16.68.81,1.13,1.45,1.45,2.07.13-1.1.65-2.13,1.52-2.91s1.94-1.16,3.01-1.2c-.55-.36-1.13-.84-1.78-1.62"/>
  <path class="cls-8" d="m377.55,324.15c-.58.52-1.49.45-2-.1-.52-.58-.45-1.49.13-1.97.58-.52,1.45-.48,1.97.1s.45,1.45-.1,1.97Zm-7.5-8.37c-.58.52-1.45.45-1.97-.13-.52-.55-.48-1.45.1-1.97.58-.48,1.45-.45,1.97.13s.48,1.45-.1,1.97Zm4.72,1.1c-2.13-2.36-1.42-3.39-2.68-4.82-1.45-1.65-4.01-1.78-5.62-.32-1.65,1.49-1.81,4.01-.32,5.66,1.29,1.45,2.33.81,4.43,3.14,2.26,2.52,1.87,3.91,3.07,5.24,1.45,1.65,3.98,1.78,5.62.32,1.65-1.49,1.78-4.01.32-5.66-1.23-1.33-2.59-1.03-4.82-3.56"/>
  <path class="cls-8" d="m346.29,303.34c.16-.23.36-.42.55-.58,1.16-1.07,2.68-1.52,4.14-1.39-.16-.1-.26-.23-.39-.36-.87-.97-1.26-2.23-1.2-3.43-1.78,1.33-2.91,3.17-3.1,5.75"/>
  <path class="cls-8" d="m412.04,356.99c-.13,1.03-.61,2-1.45,2.78-.81.78-1.81,1.16-2.84,1.26.39.26.81.61,1.29,1.13.71.78,1.2,1.42,1.52,2.04.1-1.1.58-2.13,1.42-2.94.87-.78,1.94-1.2,3.01-1.23-.55-.39-1.16-.87-1.84-1.62-.52-.55-.84-1-1.1-1.42"/>
  <path class="cls-8" d="m381.33,335.18c-.16-.13-.26-.26-.39-.39-.91-.94-1.29-2.17-1.26-3.36-1.75,1.36-2.84,3.23-3.01,5.79.16-.19.36-.39.55-.58,1.16-1.07,2.65-1.55,4.1-1.45"/>
  <path class="cls-8" d="m383.98,345.16l1.49,2.49c2.88.39,4.98-.94,6.59-3.14-1.26,0-2.55-.48-3.46-1.49-.32-.32-.55-.71-.74-1.1-.29-.58-.52-1.23-.81-1.81-.32-.61-.68-1.16-1.1-1.71.91,2.07.45,4.59-1.26,6.21-.23.19-.48.39-.71.55"/>
  <path class="cls-8" d="m392.97,340.86c-.58.52-1.45.48-2-.06-.52-.58-.48-1.45.1-1.97.55-.55,1.42-.52,1.97.03.52.58.48,1.49-.06,2Zm-7.69-8.21c-.55.52-1.45.48-1.97-.06-.52-.58-.48-1.45.06-2,.58-.52,1.45-.48,2,.06.52.58.48,1.45-.1,2Zm9.63,4.46c-1.23-1.33-2.59-1-4.88-3.46-2.17-2.33-1.49-3.36-2.78-4.78-1.52-1.62-4.01-1.68-5.66-.16-1.58,1.49-1.68,4.01-.19,5.66,1.36,1.39,2.39.74,4.53,3.01,2.33,2.49,1.94,3.88,3.17,5.17,1.49,1.65,4.01,1.71,5.66.23,1.58-1.52,1.68-4.07.16-5.66"/>
  <path class="cls-8" d="m393.61,345.65c.71.74,1.16,1.42,1.52,2,.1-1.07.58-2.13,1.42-2.91.84-.81,1.94-1.23,3.01-1.26-.55-.36-1.16-.84-1.84-1.58-.52-.55-.84-1.03-1.1-1.45-.16,1.03-.65,2.04-1.45,2.81-.81.74-1.81,1.16-2.84,1.23.39.29.81.65,1.29,1.16"/>
  <path class="cls-8" d="m400.69,349.17c-.55.52-1.42.48-1.97-.06-.52-.58-.48-1.45.06-2,.58-.52,1.45-.48,1.97.1.55.55.52,1.45-.06,1.97Zm5.75,6.17c.58-.55,1.45-.52,1.97.06.55.55.52,1.45-.06,1.97-.55.52-1.45.48-1.97-.06-.52-.58-.48-1.45.06-1.97Zm3.68,3.94c1.62-1.52,1.71-4.04.19-5.66-1.23-1.33-2.59-1-4.88-3.46-2.17-2.33-1.49-3.36-2.78-4.75-1.49-1.62-4.04-1.71-5.66-.19-1.58,1.52-1.68,4.01-.16,5.66,1.29,1.39,2.36.74,4.49,3.04,2.29,2.46,1.94,3.85,3.17,5.17,1.49,1.62,4.01,1.71,5.62.19"/>
  <path class="cls-8" d="m429.78,380.26c.55-.52,1.45-.52,1.97.06.52.55.52,1.42-.03,1.97-.58.52-1.45.48-2-.06-.52-.55-.52-1.42.06-1.97Zm7.72,8.15c.58-.55,1.45-.52,2,.06.52.55.48,1.42-.06,1.97-.55.52-1.45.48-1.97-.06s-.52-1.42.03-1.97Zm-5.14-1.39c2.36,2.49,1.97,3.88,3.23,5.14,1.52,1.62,4.04,1.68,5.66.16,1.58-1.52,1.65-4.07.13-5.66-1.26-1.33-2.62-.97-4.91-3.39-2.2-2.33-1.52-3.36-2.84-4.75-1.52-1.62-4.04-1.65-5.66-.13-1.58,1.52-1.65,4.04-.13,5.66,1.33,1.39,2.39.71,4.53,2.97"/>
  <path class="cls-8" d="m440.16,395.2c.74.78,1.2,1.42,1.55,2.04.06-1.1.55-2.13,1.42-2.94.81-.81,1.87-1.23,2.94-1.29-.52-.36-1.13-.84-1.84-1.58-.52-.52-.84-.97-1.13-1.42-.13,1.03-.58,2.04-1.39,2.81s-1.81,1.2-2.84,1.29c.39.26.81.61,1.29,1.1"/>
  <path class="cls-8" d="m423.87,374.06c-.55.55-1.45.52-1.97-.03-.52-.58-.52-1.45.03-2,.58-.52,1.45-.52,2,.06.52.55.48,1.45-.06,1.97Zm-7.72-8.15c-.58.55-1.45.52-2-.03-.52-.58-.48-1.45.06-1.97.55-.55,1.45-.52,1.97.03.52.58.52,1.45-.03,1.97Zm9.66,4.36c-1.26-1.29-2.62-.94-4.91-3.39-2.2-2.29-1.52-3.36-2.84-4.75-1.52-1.58-4.04-1.65-5.66-.1-1.58,1.49-1.65,4.04-.13,5.66,1.33,1.39,2.39.71,4.53,2.97,2.36,2.46,2,3.85,3.23,5.14,1.52,1.58,4.04,1.68,5.66.13,1.58-1.52,1.65-4.04.13-5.66"/>
  <path class="cls-8" d="m424.58,378.84c.71.74,1.2,1.42,1.52,2,.13-1.07.58-2.13,1.42-2.94s1.91-1.23,3.01-1.29c-.55-.36-1.2-.81-1.87-1.55-.52-.55-.87-1-1.13-1.42-.13,1-.58,2-1.39,2.78s-1.81,1.2-2.84,1.29c.39.26.81.61,1.29,1.13"/>
  <path class="cls-8" d="m414.95,378.45l1.52,2.49c2.88.36,4.98-1,6.53-3.23-1.26.03-2.52-.45-3.46-1.45-.29-.32-.55-.65-.74-1.07-.32-.58-.52-1.2-.84-1.78-.29-.65-.68-1.2-1.1-1.71.91,2.07.52,4.56-1.23,6.21-.19.19-.45.39-.68.55"/>
  <path class="cls-8" d="m412.17,368.5c-.1-.1-.26-.23-.36-.36-.91-.97-1.33-2.17-1.29-3.39-1.75,1.39-2.84,3.26-2.94,5.85.16-.23.32-.42.52-.61,1.16-1.07,2.62-1.58,4.07-1.49"/>
  <path class="cls-8" d="m443.55,401.37c-.13-.1-.29-.23-.39-.36-.94-.94-1.36-2.17-1.33-3.39-1.75,1.42-2.78,3.33-2.88,5.88.16-.19.32-.39.52-.58,1.13-1.1,2.62-1.62,4.07-1.55"/>
  <path class="cls-8" d="m457.61,413.56c.1-1.07.55-2.13,1.39-2.94.61-.61,1.33-1,2.1-1.2l.29-.52c-.39-.29-.84-.68-1.29-1.16-.52-.52-.91-1-1.16-1.42-.1,1.03-.58,2.04-1.36,2.84-.81.78-1.81,1.2-2.84,1.26.39.29.84.65,1.33,1.16.71.74,1.2,1.39,1.55,1.97"/>
  <path class="cls-8" d="m446.39,411.33l1.58,2.42c2.88.32,4.95-1.03,6.5-3.3-1.26.03-2.52-.42-3.49-1.39-.32-.32-.55-.68-.78-1.07-.32-.58-.52-1.23-.84-1.81-.32-.61-.71-1.16-1.13-1.68.94,2.07.55,4.56-1.13,6.21-.23.23-.45.45-.71.61"/>
  <path class="cls-8" d="m455.28,406.8c-.55.55-1.42.52-1.97-.03s-.52-1.42.03-1.97,1.42-.52,1.97.03.52,1.42-.03,1.97Zm-7.82-8.05c-.55.55-1.45.55-1.97-.03-.55-.55-.55-1.42,0-1.97s1.45-.52,1.97.03c.55.55.55,1.42,0,1.97Zm9.73,4.27c-1.29-1.29-2.62-.94-4.98-3.36-2.2-2.26-1.55-3.33-2.88-4.69-1.55-1.58-4.07-1.62-5.66-.1-1.55,1.55-1.58,4.1-.06,5.69,1.36,1.36,2.39.68,4.56,2.94,2.39,2.42,2.04,3.81,3.3,5.11,1.52,1.58,4.07,1.58,5.62.06,1.58-1.55,1.62-4.1.1-5.66"/>
  <path class="cls-8" d="m460.32,410.78c-.26.13-.52.36-.78.58-1,.97-1.39,2.29-1.16,3.56.55-1.39,1.2-2.78,1.94-4.14"/>
  <path class="cls-8" d="m680.79,455.32c1.33-1.33,1.33-3.46,0-4.78s-3.43-1.33-4.75,0-1.33,3.46,0,4.78c1.33,1.29,3.43,1.29,4.75,0"/>
  <path class="cls-1" d="m913.03,412.38c-1.93,0-2.87-.94-2.87-2.87l1.25-397.76c0-1.52.76-2.33,2.33-2.33l108.27-.54c21.15-.45,40.51,4.57,58.08,15.06,17.57,10.4,31.55,24.38,41.94,41.94,10.49,17.57,15.77,36.93,15.77,58.08v166.17c0,22.5-5.47,42.93-16.31,61.3-10.76,18.28-25.23,32.89-43.38,43.74-18.19,10.76-38.63,16.31-61.3,16.67l-103.79.54Zm67.76-71.16h36.03c14.21,0,26.22-5.02,36.03-15.06,9.9-10.04,14.88-22.05,14.88-36.03V123.43c0-12.28-4.57-22.99-13.62-32.09-9.1-9.05-19.81-13.44-32.09-13.09l-40.69.72-.54,262.24Z"/>
  <path class="cls-1" d="m1196.77,412.38c-1.57,0-2.33-.94-2.33-2.87l1.25-397.76c0-1.52.76-2.33,2.33-2.33h116.87c20.79,0,39.97,5.15,57.54,15.42,17.57,10.17,31.55,23.84,41.94,41.05,10.49,17.21,15.77,36.57,15.77,58.08,0,14.34-2.15,27.25-6.45,38.72-4.21,11.38-9.23,20.97-15.06,28.86-5.74,7.89-10.93,13.76-15.59,17.57,20.88,23.21,31.37,50.46,31.37,81.74l.54,118.66c0,1.93-.99,2.87-2.87,2.87h-65.43c-1.57,0-2.33-.58-2.33-1.79v-119.74c0-13.98-4.97-26.04-14.88-36.21-9.81-10.26-21.87-15.42-36.21-15.42h-38.18l-.54,170.29c0,1.93-.81,2.87-2.33,2.87h-65.43Zm68.29-242.53h49.83c11.92,0,22.5-4.39,31.73-13.26,9.32-8.96,13.98-19.81,13.98-32.62s-4.57-22.85-13.62-31.73c-9.1-8.83-19.81-13.26-32.09-13.26h-49.83v90.88Z"/>
  <path class="cls-1" d="m1486.85,412.38c-1.57,0-2.33-.94-2.33-2.87l.54-397.76c0-1.52.76-2.33,2.33-2.33h185.88c1.52,0,2.33.99,2.33,2.87v64.89c0,1.57-.81,2.33-2.33,2.33h-118.66v90.34h118.66c1.52,0,2.33.81,2.33,2.33l.54,65.43c0,1.43-.81,2.15-2.33,2.15h-119.2v101.46h119.2c1.52,0,2.33.99,2.33,2.87v65.96c0,1.57-.81,2.33-2.33,2.33h-186.96Z"/>
  <path class="cls-1" d="m1718.98,409.52L1790.86,11.76c.36-1.52,1.3-2.33,2.87-2.33h83.89c1.52,0,2.55.81,3.05,2.33l68.83,397.76c.36,1.93-.45,2.87-2.33,2.87h-64.35c-1.43,0-2.42-.94-2.87-2.87l-6.27-42.3h-78.69l-6.45,42.3c-.36,1.93-1.34,2.87-2.87,2.87h-64.35c-1.57,0-2.33-.94-2.33-2.87Zm87.47-104.32h55.57l-23.66-162.58-3.59-21.51-2.33,21.51-25.99,162.58Z"/>
  <path class="cls-1" d="m1999.26,412.38c-1.57,0-2.33-.94-2.33-2.87l1.25-397.76c0-1.52.76-2.33,2.33-2.33h70.62c1.52,0,2.87.81,3.94,2.33l52.7,76.36,52.7-76.36c1.17-1.52,2.55-2.33,4.12-2.33h71.16c1.52,0,2.33.81,2.33,2.33l1.08,397.76c0,1.93-.81,2.87-2.33,2.87h-65.43c-1.43,0-2.15-.94-2.15-2.87l-.72-295.23-60.77,88.01-60.23-88.01-.54,295.23c0,1.93-.81,2.87-2.33,2.87h-65.43Z"/>
  <path class="cls-1" d="m2418.41,412.38c-1.93,0-2.87-.94-2.87-2.87l1.25-397.76c0-1.52.76-2.33,2.33-2.33l108.27-.54c21.15-.45,40.51,4.57,58.08,15.06,17.57,10.4,31.55,24.38,41.94,41.94,10.49,17.57,15.77,36.93,15.77,58.08v166.17c0,22.5-5.47,42.93-16.31,61.3-10.76,18.28-25.23,32.89-43.38,43.74-18.19,10.76-38.63,16.31-61.3,16.67l-103.79.54Zm67.76-71.16h36.03c14.21,0,26.22-5.02,36.03-15.06,9.9-10.04,14.88-22.05,14.88-36.03V123.43c0-12.28-4.57-22.99-13.62-32.09-9.1-9.05-19.81-13.44-32.09-13.09l-40.69.72-.54,262.24Z"/>
  <path class="cls-1" d="m2702.16,412.38c-1.57,0-2.33-.94-2.33-2.87l.54-397.76c0-1.52.76-2.33,2.33-2.33h185.88c1.52,0,2.33.99,2.33,2.87v64.89c0,1.57-.81,2.33-2.33,2.33h-118.66v90.34h118.66c1.52,0,2.33.81,2.33,2.33l.54,65.43c0,1.43-.81,2.15-2.33,2.15h-119.2v101.46h119.2c1.52,0,2.33.99,2.33,2.87v65.96c0,1.57-.81,2.33-2.33,2.33h-186.96Z"/>
  <path class="cls-1" d="m3052.42,418.12c-20.79,0-39.79-5.29-57-15.77-17.21-10.62-30.97-24.74-41.23-42.3-10.17-17.57-15.24-36.97-15.24-58.26v-26.71c0-1.88.94-2.87,2.87-2.87h64.89c1.52,0,2.33.99,2.33,2.87v26.71c0,12.82,4.21,23.75,12.73,32.8,8.47,8.96,18.69,13.44,30.65,13.44s22.14-4.57,30.65-13.8c8.6-9.32,12.91-20.12,12.91-32.44,0-14.21-9.28-26.57-27.78-37.1-6.23-3.45-15.91-8.83-29.04-16.13-13.17-7.26-25.54-14.21-37.1-20.79-21.15-12.41-36.88-27.96-47.14-46.61-10.31-18.73-15.42-39.88-15.42-63.45,0-21.6,5.2-40.96,15.59-58.08,10.49-17.21,24.29-30.83,41.41-40.87,17.21-10.04,35.85-15.06,55.93-15.06s39.26,5.15,56.46,15.42c17.21,10.17,30.88,23.84,41.05,41.05,10.26,17.12,15.42,36.3,15.42,57.54v47.5c0,1.57-.81,2.33-2.33,2.33h-64.89c-1.43,0-2.15-.76-2.15-2.33l-.72-47.5c0-13.49-4.26-24.47-12.73-32.98-8.51-8.47-18.55-12.73-30.11-12.73s-22.18,4.57-30.65,13.62c-8.51,9.1-12.73,19.81-12.73,32.09s2.69,23.44,8.07,31.91c5.38,8.51,15.24,16.58,29.58,24.2,1.88,1.21,5.65,3.23,11.29,6.09,5.6,2.87,11.7,6.18,18.28,9.86,6.54,3.72,12.41,6.95,17.57,9.68,5.24,2.64,8.47,4.3,9.68,5.02,19.22,10.89,34.42,24.15,45.53,39.79,11.2,15.68,16.85,34.86,16.85,57.54s-5.15,41.77-15.42,59.33c-10.17,17.57-23.84,31.5-41.05,41.77-17.12,10.13-36.12,15.24-57,15.24Z"/>
  <path class="cls-1" d="m3220.32,412.38c-1.93,0-2.87-.94-2.87-2.87l.54-397.76c0-1.52.76-2.33,2.33-2.33h64.89c1.52,0,2.33.81,2.33,2.33l.54,397.76c0,1.93-.81,2.87-2.33,2.87h-65.43Z"/>
  <path class="cls-1" d="m3455.98,418.12c-20.79,0-39.7-5.2-56.64-15.59-16.98-10.4-30.61-24.38-40.87-41.94-10.31-17.57-15.42-37.15-15.42-58.79V118.23c0-20.79,5.11-39.97,15.42-57.54,10.26-17.57,23.93-31.55,41.05-41.94,17.21-10.49,36.03-15.77,56.46-15.77s40.42,5.15,57.54,15.42c17.21,10.31,30.83,24.11,40.87,41.41,10.04,17.34,15.06,36.84,15.06,58.44v26.71c0,1.57-.99,2.33-2.87,2.33h-64.89c-1.43,0-2.15-.76-2.15-2.33v-22.05c0-14.7-4.21-26.8-12.55-36.39-8.25-9.68-18.6-14.52-31.01-14.52-11.11,0-21.06,4.66-29.76,13.98-8.74,9.23-13.09,19.99-13.09,32.27v183.55c0,12.82,4.21,23.75,12.73,32.8,8.47,8.96,18.51,13.44,30.11,13.44,12.41,0,22.76-4.39,31.01-13.26,8.34-8.83,12.55-19.81,12.55-32.98v-28.32h-40.69c-1.93,0-2.87-.94-2.87-2.87v-64.89c0-1.88.94-2.87,2.87-2.87h108.27c1.52,0,2.33.99,2.33,2.87v96.08c0,21.64-5.15,41.23-15.42,58.79-10.17,17.57-23.75,31.55-40.69,41.94-16.98,10.4-36.12,15.59-57.36,15.59Z"/>
  <path class="cls-1" d="m3626.79,412.38c-3.14,0-4.66-1.34-4.66-4.12l-.54-394.17c0-3.09,1.52-4.66,4.66-4.66h52.16l97.87,228.19-3.05-223.53c0-3.09,1.79-4.66,5.38-4.66h57.18c2.38,0,3.59,1.57,3.59,4.66l.54,394.89c0,2.29-.99,3.41-2.87,3.41h-50.91l-100.2-213.13,3.94,208.47c0,3.14-1.75,4.66-5.2,4.66h-57.9Z"/>
  <path class="cls-1" d="m1430.87,747.68v-173.51h11.65v162.76h79.77v10.76h-91.42Z"/>
  <path class="cls-1" d="m1584.21,687.45l-24.92,60.23h-12.37l72.95-174.77h6.81l73.31,174.77h-13.09l-25.1-60.23h-77.62Zm38.36-95.18c-.13.27-.45,1.25-.9,3.05-2.29,6.95-4.48,12.86-6.63,17.75l-26.71,64.53h69.37l-26.53-64.35c-5.74-12.28-8.6-19.27-8.6-20.97Z"/>
  <path class="cls-1" d="m1762.43,601.77l.54,20.61v125.3h-11.65v-174.95h5.38l114.18,131.75c7.75,9.23,13.71,16.58,17.93,22.05-.63-7.75-.9-16.67-.9-26.71v-125.65h11.65v174.95h-5.38l-116.51-134.26c-8.02-9.19-13.17-15.33-15.42-18.46l.18,5.38Z"/>
  <path class="cls-1" d="m2034.6,739.26c22.81,0,41.09-6.18,54.85-18.64,13.85-12.41,20.79-31.06,20.79-55.93s-7.84-44.81-23.48-59.51c-15.55-14.7-34.77-22.05-57.72-22.05-14.83,0-27.6.45-38.36,1.25v152.9c10.49,1.34,25.14,1.97,43.92,1.97Zm-5.56-166.88c26.62,0,48.94,8.34,66.86,24.92,18.01,16.63,27.07,39.17,27.07,67.58,0,14.47-2.33,27.25-6.99,38.36-4.66,11.02-11.02,19.85-19,26.53-16.76,13.4-37.55,20.08-62.38,20.08-16.4,0-34.91-.9-55.57-2.69v-172.98c16.49-1.17,33.16-1.79,50.01-1.79Z"/>
  <path class="cls-1" d="m2267.11,589.4c-11.83-5.02-23.57-7.53-35.13-7.53-23.66,0-35.49,8.74-35.49,26.17,0,7.66,2.6,14.79,7.89,21.33,5.38,6.59,11.88,12.46,19.54,17.57,7.62,5.02,15.24,10.22,22.76,15.59,7.62,5.29,14.07,11.65,19.36,19.18,5.38,7.44,8.07,15.51,8.07,24.2,0,14.7-4.97,25.81-14.88,33.34-9.81,7.53-23.44,11.29-40.87,11.29s-32.18-4.39-44.45-13.26l5.92-8.78c11.56,7.66,24.29,11.47,38.18,11.47s24.65-2.78,32.09-8.42c7.53-5.6,11.29-13.67,11.29-24.2,0-7.26-2.69-14.16-8.07-20.61-5.38-6.54-11.92-12.46-19.54-17.75-7.53-5.24-15.15-10.62-22.76-16.13-7.53-5.47-13.98-12.05-19.36-19.72-5.38-7.62-8.07-15.82-8.07-24.56,0-11.47,4.21-20.52,12.73-27.25,8.6-6.68,20.12-10.04,34.6-10.04s27.87,2.87,40.33,8.6l-4.12,9.5Z"/>
  <path class="cls-1" d="m2422.19,750.55c-25.23,0-46.92-8.6-65.07-25.81-18.06-17.21-27.07-38.45-27.07-63.81s7.89-46.61,23.66-63.81c15.86-17.21,36.21-25.81,60.95-25.81,19.45,0,39.12,3.23,58.97,9.68l-3.05,9.68c-19.49-5.83-38.14-8.78-55.93-8.78-21.15,0-38.49,7.66-51.98,22.94-13.4,15.19-20.08,33.79-20.08,55.75s7.8,40.78,23.48,56.28c15.64,15.42,34.33,23.12,56.11,23.12,19.09,0,35.67-2.91,49.65-8.78l3.59,8.25c-6.23,3.59-14.3,6.36-24.2,8.25-9.95,1.88-19.63,2.87-29.04,2.87Z"/>
  <path class="cls-1" d="m2545.56,687.45l-24.92,60.23h-12.37l72.95-174.77h6.81l73.31,174.77h-13.09l-25.1-60.23h-77.62Zm38.36-95.18c-.13.27-.45,1.25-.9,3.05-2.29,6.95-4.48,12.86-6.63,17.75l-26.71,64.53h69.37l-26.53-64.35c-5.74-12.28-8.6-19.27-8.6-20.97Z"/>
  <path class="cls-1" d="m2712.67,747.68v-172.62c13.35-1.3,26.39-1.97,39.08-1.97,16.94,0,30.56,4.03,40.87,12.01,10.26,7.89,15.42,19.85,15.42,35.85s-6.99,28.99-20.97,39.26c-13.98,10.31-30.74,15.42-50.19,15.42h-2.69v-8.07h1.79c16,0,29.85-4.17,41.59-12.55,11.83-8.47,17.75-19.45,17.75-32.98s-4.12-23.21-12.37-29.22c-8.25-6.09-19.31-9.14-33.16-9.14-7.3,0-15.77.31-25.45.9v163.12h-11.65Z"/>
  <path class="cls-1" d="m2869.01,747.68v-173.51h11.65v173.51h-11.65Z"/>
  <path class="cls-1" d="m2971.16,601.77l.54,20.61v125.3h-11.65v-174.95h5.38l114.18,131.75c7.75,9.23,13.71,16.58,17.93,22.05-.63-7.75-.9-16.67-.9-26.71v-125.65h11.65v174.95h-5.38l-116.51-134.26c-8.02-9.19-13.17-15.33-15.42-18.46l.18,5.38Z"/>
  <path class="cls-1" d="m3262.15,581.87c-21.15,0-38.49,7.66-51.98,22.94-13.4,15.19-20.08,33.83-20.08,55.93s7.57,40.69,22.76,56.11c15.28,15.42,33.88,23.12,55.75,23.12,18.73,0,34.33-2.6,46.78-7.89v-71.34h11.65v76.72c-14.12,8.74-33.83,13.09-59.15,13.09s-46.74-8.65-64.17-25.99c-17.48-17.43-26.17-38.72-26.17-63.81s7.89-46.43,23.66-63.63c15.86-17.21,36.21-25.81,60.95-25.81,19.45,0,39.12,3.23,58.97,9.68l-3.05,9.68c-19.49-5.83-38.14-8.78-55.93-8.78Z"/>
</svg>